SplineFontDB: 3.0
FontName: RoutedGothic-Half-Italic
FullName: Routed Gothic Half Italic
FamilyName: Routed Gothic
Weight: Regular

StartChar: exclam
Encoding: 33 33 0
Width: 288
VWidth: 32
Flags: HW
HStem: 48 48<121.906 166.094>
VStem: 120 48<49.9059 94.0941>
LayerCount: 2
Fore
SplineSet
158.221548381 71.1490387171 m 0
 148.986703192 29.8878455005 112.900833788 0 72 0 c 0
 33.3499706091 0 11.9152270805 32.6776451843 11.9152270805 62.5970086173 c 0
 11.9152270805 66.1155539157 12.2116691839 69.595952229 12.8114159962 72.9805698984 c 0
 22.4016158933 116.238971781 55.9352602244 144 98 144 c 0
 130.864964464 144 159.16136532 117.180099895 159.16136532 82.2570301585 c 0
 159.16136532 78.6345869621 158.85691983 74.9249604713 158.221548381 71.1490387171 c 0
217.413574487 735.067872433 m 0
 239.985946779 730.553397975 255.975488308 710.078489371 255.975488308 687.74826791 c 0
 255.975488308 684.716750503 255.680795129 681.651038993 255.067872433 678.586425513 c 2
 175.067872433 278.586425513 l 2
 170.553397975 256.014053221 150.078489371 240.024511692 127.74826791 240.024511692 c 0
 124.716750503 240.024511692 121.651038993 240.319204871 118.586425513 240.932127567 c 0
 96.0125138044 245.446909909 80.024544865 265.922854489 80.024544865 288.251977254 c 0
 80.024544865 291.283453494 80.3192300552 294.349086928 80.9321275668 297.413574487 c 2
 160.932127567 697.413574487 l 2
 165.446909909 719.987486196 185.922854489 735.975455135 208.251977254 735.975455135 c 0
 211.283453494 735.975455135 214.349086928 735.680769945 217.413574487 735.067872433 c 0
EndSplineSet
EndChar

StartChar: quotedbl
Encoding: 34 34 1
Width: 384
VWidth: 32
Flags: HW
LayerCount: 2
Fore
SplineSet
345.500559869 735.050391732 m 0
 368.035420508 730.500083334 383.975020957 710.04268532 383.975020957 687.746059846 c 0
 383.975020957 684.686370274 383.674860218 681.592045965 383.050391732 678.499440131 c 2
 341.050391732 470.499440131 l 2
 336.500083334 447.964579492 316.04268532 432.024979043 293.746059846 432.024979043 c 0
 290.686370274 432.024979043 287.592045965 432.325139782 284.499440131 432.949608268 c 0
 261.963044068 437.500226703 246.025012669 457.958653206 246.025012669 480.254185243 c 0
 246.025012669 483.313834348 246.32516536 486.408080709 246.949608268 489.500559869 c 2
 288.949608268 697.500559869 l 2
 293.500226703 720.036955932 313.958653206 735.974987331 336.254185243 735.974987331 c 0
 339.313834348 735.974987331 342.408080709 735.67483464 345.500559869 735.050391732 c 0
185.500559869 735.050391732 m 0
 208.035420508 730.500083334 223.975020957 710.04268532 223.975020957 687.746059846 c 0
 223.975020957 684.686370274 223.674860218 681.592045965 223.050391732 678.499440131 c 2
 181.050391732 470.499440131 l 2
 176.500083334 447.964579492 156.04268532 432.024979043 133.746059846 432.024979043 c 0
 130.686370274 432.024979043 127.592045965 432.325139782 124.499440131 432.949608268 c 0
 101.963044068 437.500226703 86.0250126688 457.958653206 86.0250126688 480.254185243 c 0
 86.0250126688 483.313834348 86.3251653603 486.408080709 86.9496082676 489.500559869 c 2
 128.949608268 697.500559869 l 2
 133.500226703 720.036955932 153.958653206 735.974987331 176.254185243 735.974987331 c 0
 179.313834348 735.974987331 182.408080709 735.67483464 185.500559869 735.050391732 c 0
EndSplineSet
EndChar

StartChar: numbersign
Encoding: 35 35 2
Width: 672
VWidth: 32
Flags: HW
LayerCount: 2
Fore
SplineSet
251.405272901 4.64267979099 m 0
 234.270149203 12.7818635473 224.111025655 30.3446724197 224.111025655 48.3926233025 c 0
 224.111025655 55.2184485676 225.564176753 62.1136680715 228.642679791 68.5947270993 c 2
 310.060184419 240 l 1
 240.339815581 240 l 1
 139.357320209 27.4052729007 l 2
 131.217677034 10.2691820065 113.654665467 0.111097434345 95.607368718 0.111097434345 c 0
 88.7813925977 0.111097434345 81.8861367147 1.56426947937 75.4052729007 4.64267979099 c 0
 58.2701492032 12.7818635473 48.1110256552 30.3446724197 48.1110256552 48.3926233025 c 0
 48.1110256552 55.2184485676 49.5641767528 62.1136680715 52.642679791 68.5947270993 c 2
 134.060184419 240 l 1
 96 240 l 2
 69.8536339246 240 48 261.855528292 48 288 c 0
 48 314.144471708 69.8536339246 336 96 336 c 2
 179.660184419 336 l 1
 210.060184419 400 l 1
 128 400 l 2
 101.853633925 400 80 421.855528292 80 448 c 0
 80 474.144471708 101.853633925 496 128 496 c 2
 255.660184419 496 l 1
 356.642679791 708.594727099 l 2
 364.781863547 725.729850797 382.34467242 735.888974345 400.392623303 735.888974345 c 0
 407.218448568 735.888974345 414.113668071 734.435823247 420.594727099 731.357320209 c 0
 437.730817994 723.217677034 447.888902566 705.654665467 447.888902566 687.607368718 c 0
 447.888902566 680.781392598 446.435730521 673.886136715 443.357320209 667.405272901 c 2
 361.939815581 496 l 1
 431.660184419 496 l 1
 532.642679791 708.594727099 l 2
 540.781863547 725.729850797 558.34467242 735.888974345 576.392623303 735.888974345 c 0
 583.218448568 735.888974345 590.113668071 734.435823247 596.594727099 731.357320209 c 0
 613.730817994 723.217677034 623.888902566 705.654665467 623.888902566 687.607368718 c 0
 623.888902566 680.781392598 622.435730521 673.886136715 619.357320209 667.405272901 c 2
 537.939815581 496 l 1
 576 496 l 2
 602.144471708 496 624 474.146366075 624 448 c 0
 624 421.853633925 602.144471708 400 576 400 c 2
 492.339815581 400 l 1
 461.939815581 336 l 1
 544 336 l 2
 570.144471708 336 592 314.146366075 592 288 c 0
 592 261.853633925 570.144471708 240 544 240 c 2
 416.339815581 240 l 1
 315.357320209 27.4052729007 l 2
 307.217677034 10.2691820065 289.654665467 0.111097434345 271.607368718 0.111097434345 c 0
 264.781392598 0.111097434345 257.886136715 1.56426947937 251.405272901 4.64267979099 c 0
316.339815581 400 m 1
 285.939815581 336 l 1
 355.660184419 336 l 1
 386.060184419 400 l 1
 316.339815581 400 l 1
EndSplineSet
EndChar

StartChar: dollar
Encoding: 36 36 3
Width: 504
VWidth: 32
Flags: HW
LayerCount: 2
Fore
SplineSet
440.984313557 494.421727992 m 0
 433.575225615 490.147815686 425.575415817 488.189112734 417.693224404 488.189112734 c 0
 400.923949152 488.189112734 384.68703933 497.054612245 375.803429201 511.352647015 c 0
 374.4592345 513.323839244 364.337974411 528.519403809 338.844295746 537.468542079 c 1
 314.897639089 417.735258793 l 1
 394.000913547 394.710339895 421.021229674 338.143986774 421.021229674 285.176032223 c 0
 421.021229674 274.781895081 419.980732496 264.526324917 418.089126191 254.689972131 c 0
 402.704094843 178.948279342 340.612859856 115.690329417 251.316636784 99.8302472655 c 1
 239.067872433 38.5864255134 l 2
 234.553397975 16.0140532212 214.078489371 0.0245116921936 191.74826791 0.0245116921936 c 0
 188.716750503 0.0245116921936 185.651038993 0.319204870956 182.586425513 0.932127566836 c 0
 160.012513804 5.44690990864 144.024544865 25.9228544887 144.024544865 48.2519772538 c 0
 144.024544865 51.2834534937 144.319230055 54.3490869282 144.932127567 57.4135744866 c 2
 154.101413352 103.260003415 l 1
 77.208269251 125.257993705 41.6585427933 189.857224636 39.9641460557 192.813702894 c 0
 35.9777606259 200.32915999 34.1060735519 208.2841815 34.1060735519 216.053082498 c 0
 34.1060735519 232.937108358 42.9463548434 248.942056889 58.1324622705 257.645415627 c 0
 65.1618507692 261.674051016 73.0503442938 263.433187101 80.8676295846 263.433187101 c 0
 97.6698942016 263.433187101 114.143190609 255.306320073 121.049798989 244.120333241 c 0
 126.472443996 235.267170003 143.187603629 210.218957459 173.122735717 198.366615239 c 1
 201.706000336 341.282938334 l 1
 125.359893798 364.275958936 95.0544067844 421.330375674 95.0544067844 473.114849888 c 0
 95.0544067844 477.430522138 95.2648907589 481.709592487 95.676750833 485.929295005 c 0
 96.2113194052 491.4062045 96.8363176361 495.671367506 97.9214889756 501.368517039 c 0
 113.059995878 574.308595752 182.828414185 625.046923204 260.888121459 637.193543946 c 1
 272.932127567 697.413574487 l 2
 277.446909909 719.987486196 297.922854489 735.975455135 320.251977254 735.975455135 c 0
 323.283453494 735.975455135 326.349086928 735.680769945 329.413574487 735.067872433 c 0
 351.985946779 730.553397975 367.975488308 710.078489371 367.975488308 687.74826791 c 0
 367.975488308 684.716750503 367.680795129 681.651038993 367.067872433 678.586425513 c 2
 357.748251375 631.988320224 l 1
 425.066961641 613.07505565 454.713237 566.684612418 458.970571913 559.304262397 c 0
 462.761295212 552.205876806 464.632896115 544.266916462 464.632896115 536.326072777 c 0
 464.632896115 519.884591242 456.60943319 503.435035918 440.984313557 494.421727992 c 0
239.552900708 530.517440191 m 1
 212.722212981 517.162683139 195.281644887 496.71749006 192.073152655 482.600120773 c 0
 191.608561665 480.028026797 191.425568437 478.681922299 191.222717828 476.603621246 c 0
 190.8850631 473.144187825 190.378689755 469.404169763 190.378689755 465.576994519 c 0
 190.378689755 454.368929784 194.721545466 442.413370986 220.363115351 434.568513405 c 1
 239.552900708 530.517440191 l 1
272.712068404 206.807405367 m 1
 301.857187922 222.204157603 318.534834386 247.609270407 323.910587295 273.308404419 c 0
 325.666383444 282.60605053 327.658697002 290.35091918 327.658697002 296.964434189 c 0
 327.658697002 308.739441706 321.343085754 316.928071088 296.132354504 323.908835869 c 1
 272.712068404 206.807405367 l 1
EndSplineSet
EndChar

StartChar: percent
Encoding: 37 37 5
Width: 864
VWidth: 32
Flags: HW
HStem: 48 240<549.902 698.098> 448 240<165.902 314.098>
VStem: 112 256<500.907 635.093> 496 256<100.907 235.093>
LayerCount: 2
Fore
SplineSet
759.095117106 158.723689055 m 0
 741.181587015 67.7780747479 653.403090875 0 560 0 c 0
 548.352720833 0 536.961669745 1.08359217228 525.96282919 3.23055521561 c 0
 454.865045292 17.1087738991 405.886304758 76.1951656529 405.886304758 146.736573535 c 0
 405.886304758 156.718977788 406.867125573 166.930773776 408.904882894 177.276310945 c 0
 426.818412985 268.221925252 514.596909125 336 608 336 c 0
 619.647279167 336 631.038330255 334.916407828 642.03717081 332.769444784 c 0
 713.134954708 318.891226101 762.113695242 259.804834347 762.113695242 189.263426465 c 0
 762.113695242 179.281022212 761.132874427 169.069226224 759.095117106 158.723689055 c 0
664.904882894 177.276310945 m 0
 665.844062763 182.044454895 666.304036503 186.600804519 666.304036503 190.924316076 c 0
 666.304036503 215.997847974 650.834018566 233.240478349 623.645179926 238.547713367 c 0
 618.912203108 239.471585866 613.701137122 240 608 240 c 0
 559.403090875 240 511.181587015 199.778074748 503.095117106 158.723689055 c 0
 502.155937237 153.955545105 501.695963497 149.399195481 501.695963497 145.075683924 c 0
 501.695963497 120.002152026 517.165981434 102.759521651 544.354820074 97.4522866331 c 0
 549.087796892 96.5284141339 554.298862878 96 560 96 c 0
 608.596909125 96 656.818412985 136.221925252 664.904882894 177.276310945 c 0
455.095117106 558.723689055 m 0
 437.181587015 467.778074748 349.403090875 400 256 400 c 0
 244.352720833 400 232.961669745 401.083592172 221.96282919 403.230555216 c 0
 150.865045292 417.108773899 101.886304758 476.195165653 101.886304758 546.736573535 c 0
 101.886304758 556.718977788 102.867125573 566.930773776 104.904882894 577.276310945 c 0
 122.818412985 668.221925252 210.596909125 736 304 736 c 0
 315.647279167 736 327.038330255 734.916407828 338.03717081 732.769444784 c 0
 409.134954708 718.891226101 458.113695242 659.804834347 458.113695242 589.263426465 c 0
 458.113695242 579.281022212 457.132874427 569.069226224 455.095117106 558.723689055 c 0
360.904882894 577.276310945 m 0
 361.844062763 582.044454895 362.304036503 586.600804519 362.304036503 590.924316076 c 0
 362.304036503 615.997847974 346.834018566 633.240478349 319.645179926 638.547713367 c 0
 314.912203108 639.471585866 309.701137122 640 304 640 c 0
 255.403090875 640 207.181587015 599.778074748 199.095117106 558.723689055 c 0
 198.155937237 553.955545105 197.695963497 549.399195481 197.695963497 545.075683924 c 0
 197.695963497 520.002152026 213.165981434 502.759521651 240.354820074 497.452286633 c 0
 245.087796892 496.528414134 250.298862878 496 256 496 c 0
 304.596909125 496 352.818412985 536.221925252 360.904882894 577.276310945 c 0
163.2 9.6 m 0
 150.764210843 18.926841868 144.176727195 33.5244197061 144.176727195 48.2244591869 c 0
 144.176727195 58.2482075701 147.239698024 68.3195973654 153.6 76.8 c 2
 633.6 716.8 l 2
 642.926841868 729.235789157 657.524419706 735.823272805 672.224459187 735.823272805 c 0
 682.24820757 735.823272805 692.319597365 732.760301976 700.8 726.4 c 0
 713.236337916 717.072746563 719.823228436 702.475323633 719.823228436 687.77580521 c 0
 719.823228436 677.751711751 716.76010537 667.680140493 710.4 659.2 c 2
 230.4 19.2 l 2
 221.072746563 6.76366208437 206.475323633 0.176771564229 191.77580521 0.176771564229 c 0
 181.751711751 0.176771564229 171.680140493 3.2398946299 163.2 9.6 c 0
EndSplineSet
EndChar

StartChar: ampersand
Encoding: 38 38 6
Width: 784
VWidth: 32
Flags: HW
LayerCount: 2
Fore
SplineSet
395.838564343 455.146106765 m 1
 483.572266605 463.082674273 532.966612584 515.308807403 541.882461296 561.161743637 c 0
 542.759010533 565.66971114 543.279067914 570.318236175 543.279067914 575.014729034 c 0
 543.279067914 602.046006238 526.050980593 630.666327092 460.408030517 643.221761376 c 0
 444.712940719 646.223739019 426.27038045 648 405 648 c 0
 270.605983319 648 223.725220629 580.28305244 216.03939134 542.445123634 c 0
 214.044637817 532.692995301 212.996085165 524.146952416 212.996085165 516.63668173 c 0
 212.996085165 487.012544182 229.310462165 473.503933211 268.220751231 465.658381752 c 0
 279.691905491 463.345432319 293.358018673 462 309 462 c 0
 339.006388835 462 368.132153374 459.729280913 395.838564343 455.146106765 c 1
710.638826253 395.87903156 m 0
 714.845553305 388.543592669 716.75213431 380.613546282 716.75213431 372.802483798 c 0
 716.75213431 355.907681936 707.832619236 339.569519788 693.975994651 331.008685336 c 0
 691.776299255 329.705493763 668.604000089 315.8184165 638.814404218 285.979548492 c 1
 658.913039915 242.936656924 669.394274898 193.118614257 669.394274898 137.866856996 c 0
 669.394274898 106.448194015 666.005086845 73.2724975715 659.067872433 38.5864255134 c 0
 654.553090091 16.0125138044 634.077145511 0.0245448649932 611.748022746 0.0245448649932 c 0
 608.716546506 0.0245448649932 605.650913072 0.319230055154 602.586425513 0.932127566836 c 0
 580.014053221 5.44660202528 564.024511692 25.9215106285 564.024511692 48.2517320898 c 0
 564.024511692 51.2832494966 564.319204871 54.3489610072 564.932127567 57.4135744866 c 0
 570.936541318 87.4356432444 573.686378051 114.621927834 573.686378051 139.818692287 c 0
 573.686378051 159.481314391 572.085781082 177.677273677 568.965291057 194.48334785 c 1
 564.487575105 186.778275143 560.085135035 178.709176347 555.797928357 170.266677006 c 0
 480.512228176 22.0117597273 352.450201959 -8 251 -8 c 0
 229.672977934 -8 209.551791782 -6.12469229908 190.673301253 -2.40566952829 c 0
 82.8744619892 18.8304741819 27.6118791077 100.624300211 27.6118791077 189.884380801 c 0
 27.6118791077 204.258674287 29.0450224999 218.826592697 31.9226951369 233.366412337 c 0
 48.6397943464 316.951908385 102.608553015 376.600861916 163.52796469 414.016689915 c 1
 134.576899039 441.281239267 117.933451529 478.940520935 117.933451529 523.020064144 c 0
 117.933451529 535.398713949 119.246000977 548.283683777 121.967124086 561.586952308 c 0
 140.269292643 651.689935975 235.395960004 744 405 744 c 0
 431.581927243 744 456.022396559 741.800838496 478.442887382 737.512502904 c 0
 579.731823118 718.139111323 639.06186048 650.52981891 639.06186048 572.98210843 c 0
 639.06186048 563.069874168 638.092512351 552.99526369 636.117538704 542.838256363 c 0
 625.178995114 486.58288933 588.669085036 436.61040273 536.473238189 403.113720476 c 1
 553.549337712 392.073350237 569.090078434 379.564246749 583.030874434 365.686704611 c 1
 616.637912354 397.099028384 642.302159499 412.022299008 645.802269522 414.029541892 c 0
 652.871878996 417.781939335 660.768319993 419.633722272 668.666438047 419.633722272 c 0
 685.150464734 419.633722272 701.641796535 411.567513578 710.638826253 395.87903156 c 0
519.71865044 294.241756061 m 1
 498.137277358 316.574683928 470.514461334 333.416333105 437.638779229 345.516916762 c 0
 402.096519144 358.598990319 359.309386707 365.841303627 310.609961041 365.997421959 c 0
 247.322444874 361.245113567 144.027905919 304.386593023 126.067872433 214.586425513 c 0
 124.071249974 204.498227825 123.042734907 194.773749155 123.042734907 185.504677199 c 0
 123.042734907 138.769264894 149.190243096 103.61146692 209.228479311 91.7840611607 c 0
 221.405013774 89.385309583 235.304799844 88 251 88 c 0
 335.549798041 88 415.487771824 105.988240273 470.202071643 213.733322994 c 0
 485.813787466 244.476394153 502.740809392 271.206640329 519.71865044 294.241756061 c 1
EndSplineSet
EndChar

StartChar: quotesingle
Encoding: 39 39 7
Width: 224
VWidth: 0
Flags: HW
LayerCount: 2
Fore
SplineSet
185.500559869 735.050391732 m 0
 208.035420508 730.500083334 223.975020957 710.04268532 223.975020957 687.746059846 c 0
 223.975020957 684.686370274 223.674860218 681.592045965 223.050391732 678.499440131 c 2
 181.050391732 470.499440131 l 2
 176.500083334 447.964579492 156.04268532 432.024979043 133.746059846 432.024979043 c 0
 130.686370274 432.024979043 127.592045965 432.325139782 124.499440131 432.949608268 c 0
 101.963044068 437.500226703 86.0250126688 457.958653206 86.0250126688 480.254185243 c 0
 86.0250126688 483.313834348 86.3251653603 486.408080709 86.9496082676 489.500559869 c 2
 128.949608268 697.500559869 l 2
 133.500226703 720.036955932 153.958653206 735.974987331 176.254185243 735.974987331 c 0
 179.313834348 735.974987331 182.408080709 735.67483464 185.500559869 735.050391732 c 0
EndSplineSet
EndChar

StartChar: parenleft
Encoding: 40 40 8
Width: 344
VWidth: 32
Flags: HW
LayerCount: 2
Fore
SplineSet
344.413927396 803.402504301 m 0
 354.749029848 793.939861272 359.623220884 781.075330053 359.623220884 768.288099821 c 0
 359.623220884 756.664907613 355.596046677 745.105583345 347.982332239 736.22303941 c 0
 345.347417177 733.327980037 201.586037191 573.025525787 159.083418923 358.664494524 c 0
 150.03379692 313.022922681 146.471648933 270.062646826 146.471648933 230.708610088 c 0
 146.471648933 87.382179331 193.719923806 -8.11115249616 195.209549912 -11.0900619895 c 0
 198.39342859 -17.8623844556 199.891719373 -24.9522778065 199.891719373 -31.9028173436 c 0
 199.891719373 -49.6039983606 190.174017789 -66.4013502999 173.832343522 -74.747500235 c 0
 166.930388805 -78.2725214765 159.509540878 -79.9733482915 152.155035618 -79.9733482915 c 0
 135.256634743 -79.9733482915 118.708483125 -70.9940089263 109.609747565 -54.5318332025 c 0
 107.103948531 -49.625504907 50.3304137123 61.5505176403 50.3304137123 229.711933012 c 0
 50.3304137123 275.092610799 54.4650297319 324.623333476 64.9165810767 377.335505476 c 0
 113.874004756 624.251207512 272.857879018 796.329517528 277.127901005 800.993237228 c 0
 286.390532679 810.467894254 299.39494404 815.668510545 312.506944414 815.668510545 c 0
 323.84549542 815.668510545 335.264499961 811.779563564 344.413927396 803.402504301 c 0
EndSplineSet
EndChar

StartChar: parenright
Encoding: 41 41 9
Width: 344
VWidth: 32
Flags: HW
LayerCount: 2
Fore
SplineSet
138.167656478 810.747500235 m 0
 145.005784448 814.239923372 152.224865527 815.84355342 159.325470284 815.84355342 c 0
 176.962597068 815.84355342 193.868758894 805.949615506 202.390252435 790.531833202 c 0
 205.255436195 784.921833374 261.673354448 673.945584087 261.673354448 506.315063601 c 0
 261.673354448 460.929022931 257.537593137 411.389894904 247.083418923 358.664494524 c 0
 198.022890138 111.228784131 38.4203403365 -61.1178466341 34.8720989951 -64.9932372283 c 0
 25.0782227432 -75.0112992327 12.40421978 -79.928337321 -0.157429969419 -79.928337321 c 0
 -11.8003662858 -79.928337321 -23.3467826311 -75.7042269584 -32.4139273956 -67.4025043011 c 0
 -42.5839285127 -58.0910252312 -47.9062327109 -45.2066749633 -47.9062327109 -32.1129530577 c 0
 -47.9062327109 -20.9386074136 -44.0299301407 -9.61177371398 -35.9823322392 -0.223039410252 c 0
 -34.0026784004 1.95206501116 110.320533418 162.503265111 152.916581077 377.335505476 c 0
 161.967790356 422.985082713 165.530637246 465.95079998 165.530637246 505.308583532 c 0
 165.530637246 648.174578709 118.585173361 743.501028356 116.790450088 747.09006199 c 0
 113.810260343 753.4291245 112.347304551 760.400358906 112.347304551 767.403077571 c 0
 112.347304551 784.653101304 121.224529779 802.094171727 138.167656478 810.747500235 c 0
EndSplineSet
EndChar

StartChar: asterisk
Encoding: 42 42 10
Width: 512
VWidth: 32
Flags: HW
LayerCount: 2
Fore
SplineSet
420.427125925 722.921554027 m 0
 432.482625495 713.56648636 438.819773687 699.225631797 438.819773687 684.798779886 c 0
 438.819773687 674.507757366 435.595233659 664.172976694 428.921554027 655.572874075 c 2
 392.005003744 608 l 1
 438 608 l 2
 464.144471708 608 486 586.146366075 486 560 c 0
 486 533.853633925 464.144471708 512 438 512 c 2
 363.328896092 512 l 1
 385.92901208 451.893308542 l 2
 387.961059128 446.488928095 388.921856654 440.905231057 388.921856654 435.385883044 c 0
 388.921856654 415.912865356 376.962086449 397.240848413 357.893308542 390.07098792 c 0
 352.488752916 388.038875005 346.905035491 387.078077326 341.385756864 387.078077326 c 0
 321.911983243 387.078077326 303.240410303 399.039078736 296.07098792 418.106691458 c 2
 279.287029549 462.744878614 l 1
 234.921554027 405.572874075 l 2
 225.56648636 393.517374505 211.225631797 387.180226313 196.798779886 387.180226313 c 0
 186.507757366 387.180226313 176.172976694 390.404766341 167.572874075 397.078445973 c 0
 155.516854518 406.43391715 149.180266208 420.77460142 149.180266208 435.2009403 c 0
 149.180266208 445.492321654 152.404975548 455.827292903 159.078445973 464.427125925 c 2
 195.994996256 512 l 1
 150 512 l 2
 123.853633925 512 102 533.855528292 102 560 c 0
 102 586.144471708 123.853633925 608 150 608 c 2
 224.671103908 608 l 1
 202.07098792 668.106691458 l 2
 200.038875005 673.511247084 199.078077326 679.094964509 199.078077326 684.614243136 c 0
 199.078077326 704.088016757 211.039078736 722.759589697 230.106691458 729.92901208 c 0
 235.511071905 731.961059128 241.094768943 732.921856654 246.614116956 732.921856654 c 0
 266.087134644 732.921856654 284.759151587 720.962086449 291.92901208 701.893308542 c 2
 308.712970451 657.255121386 l 1
 353.078445973 714.427125925 l 2
 362.43391715 726.483145482 376.77460142 732.819733792 391.2009403 732.819733792 c 0
 401.492321654 732.819733792 411.827292903 729.595024452 420.427125925 722.921554027 c 0
EndSplineSet
EndChar

StartChar: plus
Encoding: 43 43 11
Width: 640
VWidth: 192
Flags: HW
LayerCount: 2
Fore
SplineSet
584 368 m 0
 584 341.855528292 562.146366075 320 536 320 c 2
 359.386334906 320 l 1
 324.076236293 142.628341849 l 2
 319.579069325 120.037921732 299.095752609 104.024288007 276.749335531 104.024288007 c 0
 273.731389609 104.024288007 270.679462123 104.316364764 267.628341849 104.923763707 c 0
 245.036380394 109.421237515 229.024320962 129.905593821 229.024320962 152.250909656 c 0
 229.024320962 155.26881408 229.316389759 158.320663433 229.923763707 161.371658151 c 2
 261.502553983 320 l 1
 104 320 l 2
 77.8555282921 320 56 341.853633925 56 368 c 0
 56 394.146366075 77.8555282921 416 104 416 c 2
 280.613665094 416 l 1
 315.923763707 593.371658151 l 2
 320.421237515 615.963619606 340.905593821 631.975679038 363.250909656 631.975679038 c 0
 366.26881408 631.975679038 369.320663433 631.683610241 372.371658151 631.076236293 c 0
 394.962078268 626.579069325 410.975711993 606.095752609 410.975711993 583.749335531 c 0
 410.975711993 580.731389609 410.683635236 577.679462123 410.076236293 574.628341849 c 2
 378.497446017 416 l 1
 536 416 l 2
 562.146366075 416 584 394.144471708 584 368 c 0
EndSplineSet
EndChar

StartChar: comma
Encoding: 44 44 12
Width: 296
VWidth: 32
Flags: HW
LayerCount: 2
Fore
SplineSet
40.2899104825 9.08909780779 m 1
 21.4855578635 21.1658897166 11.924755898 42.7541677635 11.924755898 62.6892648414 c 0
 11.924755898 66.1908740469 12.2197361644 69.6414775141 12.8114159962 72.9805698984 c 0
 22.4016158933 116.238971781 55.9352602244 144 98 144 c 0
 131.224324681 144 164.845367526 113.927973696 164.845367526 71.6423482346 c 0
 164.845367526 66.0912965062 164.265970567 60.3297658155 163.030218738 54.3981570359 c 0
 151.462159602 -3.44213864027 100.196747985 -79.0483915259 98.3026402719 -82.0828352026 c 0
 88.6748676204 -96.4388601356 73.3207796487 -103.959269948 57.8293693445 -103.959269948 c 0
 49.1271391937 -103.959269948 40.3815758802 -101.58614435 32.5834027326 -96.7185041885 c 0
 18.1443705374 -87.7056223661 10.153034258 -71.7989070035 10.153034258 -55.6749161943 c 0
 10.153034258 -47.0305971059 12.449901542 -38.323828779 17.2814958115 -30.5834027326 c 2
 17.2814958115 -30.5834027326 27.887768267 -13.6283511917 40.2899104825 9.08909780779 c 1
EndSplineSet
EndChar

StartChar: hyphen
Encoding: 45 45 13
Width: 416
VWidth: 32
Flags: HW
LayerCount: 2
Fore
SplineSet
11 264 m 0
 11 290.144471708 32.8536339246 312 59 312 c 2
 315 312 l 2
 341.144471708 312 363 290.146366075 363 264 c 0
 363 237.853633925 341.144471708 216 315 216 c 2
 59 216 l 2
 32.8536339246 216 11 237.855528292 11 264 c 0
EndSplineSet
EndChar

StartChar: period
Encoding: 46 46 14
Width: 288
VWidth: 32
Flags: HW
HStem: 48 48<121.906 166.094>
VStem: 120 48<49.9059 94.0941>
AnchorPoint: "above" 61 -48 mark 0
LayerCount: 2
Fore
SplineSet
158.221548381 71.1490387171 m 0
 148.986703192 29.8878455005 112.900833788 0 72 0 c 0
 33.3499706091 0 11.9152270805 32.6776451843 11.9152270805 62.5970086173 c 0
 11.9152270805 66.1155539157 12.2116691839 69.595952229 12.8114159962 72.9805698984 c 0
 22.4016158933 116.238971781 55.9352602244 144 98 144 c 0
 130.864964464 144 159.16136532 117.180099895 159.16136532 82.2570301585 c 0
 159.16136532 78.6345869621 158.85691983 74.9249604713 158.221548381 71.1490387171 c 0
EndSplineSet
EndChar

StartChar: slash
Encoding: 47 47 15
Width: 576
VWidth: 32
Flags: HW
LayerCount: 2
Fore
SplineSet
19.2 9.6 m 0
 6.7642108426 18.926841868 0.176727195196 33.5244197061 0.176727195196 48.2244591869 c 0
 0.176727195196 58.2482075701 3.23969802404 68.3195973654 9.6 76.8 c 2
 489.6 716.8 l 2
 498.926841868 729.235789157 513.524419706 735.823272805 528.224459187 735.823272805 c 0
 538.24820757 735.823272805 548.319597365 732.760301976 556.8 726.4 c 0
 569.236337916 717.072746563 575.823228436 702.475323633 575.823228436 687.77580521 c 0
 575.823228436 677.751711751 572.76010537 667.680140493 566.4 659.2 c 2
 86.4 19.2 l 2
 77.0727465633 6.76366208437 62.4753236333 0.176771564229 47.7758052099 0.176771564229 c 0
 37.7517117509 0.176771564229 27.6801404935 3.2398946299 19.2 9.6 c 0
EndSplineSet
EndChar

StartChar: zero
Encoding: 48 48 16
Width: 672
VWidth: 32
Flags: HW
HStem: 40 656<250.729 421.271>
VStem: 88 496<233.016 502.984>
LayerCount: 2
Fore
SplineSet
631.077849649 358.636449794 m 0
 592.309853839 163.719581972 441.503904178 -8 271 -8 c 0
 255.999864084 -8 241.309214493 -6.58634968174 227.090928514 -3.7991875096 c 0
 100.200121162 21.0747852577 31.7499465765 143.644977515 31.7499465765 285.811140333 c 0
 31.7499465765 315.70423712 34.7763296097 346.463729255 40.9221503514 377.363550206 c 0
 79.6901461613 572.280418028 230.496095822 744 401 744 c 0
 416.000135916 744 430.690785507 742.586349682 444.909071486 739.79918751 c 0
 571.799878838 714.925214742 640.250053423 592.355022485 640.250053423 450.188859667 c 0
 640.250053423 420.29576288 637.22367039 389.536270745 631.077849649 358.636449794 c 0
536.922150351 377.363550206 m 0
 542.249727474 404.149424072 544.702055281 429.331122288 544.702055281 452.728381765 c 0
 544.702055281 562.498205657 490.724342912 632.99109408 426.44198593 645.59214557 c 0
 418.442744145 647.160209691 409.988190932 648 401 648 c 0
 297.503904178 648 168.309853839 525.719581972 135.077849649 358.636449794 c 0
 129.750272526 331.850575928 127.297944719 306.668877712 127.297944719 283.271618235 c 0
 127.297944719 173.501794343 181.275657088 103.00890592 245.55801407 90.4078544302 c 0
 253.557255855 88.8397903091 262.011809068 88 271 88 c 0
 374.496095822 88 503.690146161 210.280418028 536.922150351 377.363550206 c 0
EndSplineSet
EndChar

StartChar: one
Encoding: 49 49 17
Width: 352
VWidth: 0
Flags: HW
LayerCount: 2
Fore
SplineSet
249.413574487 735.067872433 m 0
 271.985946779 730.553397975 287.975488308 710.078489371 287.975488308 687.74826791 c 0
 287.975488308 684.716750503 287.680795129 681.651038993 287.067872433 678.586425513 c 2
 159.067872433 38.5864255134 l 2
 154.553397975 16.0140532212 134.078489371 0.0245116921935 111.74826791 0.0245116921935 c 0
 108.716750503 0.0245116921935 105.651038993 0.319204870956 102.586425513 0.932127566836 c 0
 80.0125138044 5.44690990864 64.024544865 25.9228544887 64.024544865 48.2519772538 c 0
 64.024544865 51.2834534937 64.3192300552 54.3490869282 64.9321275668 57.4135744866 c 2
 192.932127567 697.413574487 l 2
 197.446909909 719.987486196 217.922854489 735.975455135 240.251977254 735.975455135 c 0
 243.283453494 735.975455135 246.349086928 735.680769945 249.413574487 735.067872433 c 0
EndSplineSet
EndChar

StartChar: two
Encoding: 50 50 18
Width: 672
VWidth: 32
Flags: HW
LayerCount: 2
Fore
SplineSet
151.755794214 488.898570517 m 0
 129.110610051 493.342952455 113.023613957 513.851715799 113.023613957 536.2474041 c 0
 113.023613957 539.224099966 113.307808056 542.234130392 113.898570517 545.244205786 c 0
 140.621761091 681.405224425 265.0452609 744 387 744 c 0
 405.591185243 744 423.505718024 742.325878617 440.586063846 738.998228282 c 0
 534.305710012 720.739452071 599.06186699 649.24837533 599.06186699 558.287622982 c 0
 599.06186699 545.473293358 597.776684612 532.272559024 595.106246235 518.779817754 c 0
 579.341719406 437.329762469 526.263405261 393.004715465 425.543885997 339.623370255 c 0
 241.24513031 241.211413335 171.676439487 206.910859331 134.105293884 96 c 1
 480 96 l 2
 506.144471708 96 528 74.1463660754 528 48 c 0
 528 21.8536339246 506.144471708 0 480 0 c 2
 72 0 l 2
 52.4277536121 0 24.0049407669 19.2064543077 24.0049407669 48.2325647397 c 0
 24.0049407669 51.2093870125 24.3038884431 54.2894912298 24.9419898037 57.4627520503 c 0
 66.0650769633 261.96675306 178.300992158 316.429720022 380.456114003 424.376629745 c 0
 479.736594739 476.995284535 492.658280594 494.670237531 500.893753765 537.220182246 c 0
 502.51338939 545.403604355 503.320836767 553.23585428 503.320836767 560.682642815 c 0
 503.320836767 604.016697569 475.978549609 634.298018091 422.228174104 644.76984676 c 0
 411.592735278 646.84187867 399.823448903 648 387 648 c 0
 292.9547391 648 223.378238909 604.594775575 208.101429483 526.755794214 c 0
 203.656743897 504.109062891 183.146929963 488.023646248 160.752350694 488.023646248 c 0
 157.77569731 488.023646248 154.765745171 488.307832478 151.755794214 488.898570517 c 0
EndSplineSet
EndChar

StartChar: three
Encoding: 51 51 19
Width: 672
VWidth: 32
Flags: HW
LayerCount: 2
Fore
SplineSet
78.0254186816 199.604406743 m 0
 82.8460575876 201.1873031 87.7699993002 201.93780364 92.6352080645 201.93780364 c 0
 112.839305945 201.93780364 132.030524356 188.995041315 138.604406743 168.974581318 c 0
 153.354688137 124.053269799 198.257328423 88 269 88 c 0
 369.817670619 88 467.166266723 165.584270266 483.932127567 249.413574487 c 0
 486.262119669 261.063534996 487.346474518 272.137416998 487.35340886 282.696842833 c 0
 487.35340886 347.477382812 449.997659455 396 359 396 c 0
 337.158818838 396 297.771316299 386.557870988 271.52422316 376.933936837 c 0
 266.230965784 374.9930758 260.775118321 374.074990946 255.382689306 374.074990946 c 0
 248.439508587 374.074990946 241.601466827 375.597047843 235.351008053 378.417684645 c 0
 224.244144549 383.42046681 214.980283645 392.526109351 210.289031136 404.537776109 c 0
 210.228023414 404.693982694 210.167917396 404.850352008 210.108710133 405.006877925 c 0
 210.049679773 405.162704557 209.991420158 405.319005142 209.933936837 405.47577684 c 0
 207.993012287 410.769207433 207.074925998 416.225080116 207.074925998 421.617447178 c 0
 207.074925998 428.560745296 208.597071722 435.398753954 211.417737679 441.649117863 c 0
 216.42032106 452.75566019 225.525614173 462.019522909 237.537776109 466.710968864 c 0
 361.241601555 515.02448009 430.386362612 587.958204352 467.08315572 640 c 1
 180 640 l 2
 153.855528292 640 132 661.853633925 132 688 c 0
 132 714.146366075 153.855528292 736 180 736 c 2
 548 736 l 2
 549.447730703 736 556.275792373 735.438594463 560.014104927 734.472155995 c 0
 581.582575655 728.896217782 595.932159839 708.851078015 595.932159839 687.604746454 c 0
 595.932159839 682.537107261 595.115797841 677.401131082 593.386313543 672.376858735 c 0
 591.706704497 667.49747747 556.934501113 569.395622447 446.049869076 477.939695036 c 1
 532.348306037 447.738819338 583.353383561 372.105086689 583.353383561 282.658348696 c 0
 583.342079425 265.440420037 581.568938795 248.091757323 578.067872433 230.586425513 c 0
 550.833733277 94.4157297336 412.182329381 -8 269 -8 c 0
 163.742671577 -8 76.6453118629 49.9467302015 47.3955932575 139.025418682 c 0
 45.8126428333 143.846222246 45.0621367649 148.770207397 45.0621367649 153.635383501 c 0
 45.0621367649 173.840305882 58.0062245955 193.030940028 78.0254186816 199.604406743 c 0
EndSplineSet
EndChar

StartChar: four
Encoding: 52 52 20
Width: 672
VWidth: 32
Flags: HW
LayerCount: 2
Fore
SplineSet
421.039066117 318 m 1
 480.977649871 620.052705531 l 1
 160.153307273 318 l 1
 421.039066117 318 l 1
621 270 m 0
 621 243.855528292 599.146366075 222 573 222 c 2
 499.860933883 222 l 1
 463.081966506 36.6571722715 l 2
 458.596718834 14.0543493593 438.107630221 -1.97586527032 415.750071195 -1.97586527032 c 0
 412.741458344 -1.97586527032 409.699010191 -1.68558121771 406.657172272 -1.08196650562 c 0
 384.052806703 3.40358728689 368.024167534 23.8937179757 368.024167534 46.2501740034 c 0
 368.024167534 49.2587451303 368.314443647 52.3011151132 368.918033494 55.3428277285 c 2
 401.989066117 222 l 1
 93 222 l 2
 64.5616164907 222 45.1179719343 247.155449774 45.1179719343 271.103884935 c 0
 45.1179719343 273.804217223 45.3651772526 276.4892036 45.8745671717 279.121051515 c 2
 48.1602814574 290.930575325 l 1
 57.8745671717 341.121051515 l 2
 59.7966751941 351.051942964 65.8731021681 361.088693995 72.0966963604 366.948141719 c 2
 448.09669636 720.948141719 l 2
 457.194689761 729.513805719 471.335552944 734 481 734 c 2
 527 734 l 1
 543 734 l 2
 571.265124652 734 590.887937144 709.123488997 590.887937144 684.974904466 c 0
 590.887937144 682.179330301 590.624958833 679.393511561 590.081966506 676.657172272 c 2
 518.910933883 318 l 1
 573 318 l 2
 599.146366075 318 621 296.144471708 621 270 c 0
EndSplineSet
EndChar

StartChar: five
Encoding: 53 53 21
Width: 672
VWidth: 0
Flags: HW
LayerCount: 2
Fore
SplineSet
70.2310100028 201.335846242 m 0
 75.2951018127 203.09726948 80.4907691959 203.931339933 85.6251490903 203.931339933 c 0
 105.526875586 203.931339933 124.507776586 191.399690259 131.335846242 171.768989997 c 0
 148.604957208 122.120295971 191.999485598 88 257 88 c 0
 355.09822595 88 455.406385803 171.606187232 475.946778807 273.486536531 c 0
 478.46305166 285.967249881 479.617254975 297.713184995 479.617254975 309.137073242 c 0
 479.617254975 385.883999088 428.207236291 440 346 440 c 0
 288.334103025 440 226.513633133 414.037391833 175.044462882 365.185298036 c 0
 165.873360032 356.480522449 153.981566375 352.218065327 142.117442921 352.218065327 c 0
 128.093134788 352.218065327 114.107490399 358.174022954 104.700042387 369.788856988 c 0
 97.4915249843 378.688798095 94.2907511802 390.412270494 94.2907511802 400.999916697 c 0
 94.2907511802 405.794497415 94.9471343124 410.356154096 96.1849610543 414.317199671 c 2
 186.184961054 702.317199671 l 2
 192.554764252 722.700569903 212.687945336 736 232 736 c 2
 552 736 l 2
 578.144471708 736 600 714.146366075 600 688 c 0
 600 661.853633925 578.144471708 640 552 640 c 2
 267.289163843 640 l 1
 227.320326252 512.099719709 l 1
 264.375708357 527.105299775 305.438031798 536 346 536 c 0
 479.12050021 536 575.617187603 436.878091398 575.617187603 309.093507685 c 0
 575.617187603 291.06755374 573.779116374 272.993903565 570.053221193 254.513463469 c 0
 540.593614197 108.393812768 404.90177405 -8 257 -8 c 0
 154.000514402 -8 71.3950427924 51.8797040293 40.6641537581 140.231010003 c 0
 38.9026717024 145.295270913 38.0685975711 150.4909728 38.0685975711 155.625305394 c 0
 38.0685975711 175.527826553 50.6015342152 194.50820249 70.2310100028 201.335846242 c 0
EndSplineSet
EndChar

StartChar: six
Encoding: 54 54 22
Width: 672
VWidth: 0
Flags: HW
LayerCount: 2
Fore
SplineSet
162.54557046 192.238887178 m 0
 184.810453066 108.408356094 247.359908385 88 293 88 c 0
 400.713663383 88 472.469926325 164.10256828 485.922695137 231.366412337 c 0
 487.280426901 238.226530726 487.926670284 244.9918034 487.933003036 251.499881575 c 0
 487.933003036 304.178381656 443.83438766 356 357 356 c 0
 256.520647893 356 185.720901505 308.690325379 163.081140153 194.65300894 c 0
 162.886411173 193.672151854 162.902494889 193.772206726 162.54557046 192.238887178 c 0
173.152931866 393.67026558 m 1
 224.833865145 433.736644307 289.294945454 452 357 452 c 0
 485.234583789 452 583.933017936 365.69976922 583.933017936 251.5151414 c 0
 583.920439222 238.58986978 582.658957087 225.677725216 580.086642761 212.68076862 c 0
 557.52205214 99.8578155134 447.289240208 -8 293 -8 c 0
 200.03416303 -8 58.465272643 56.4433627172 58.465272643 261.304787778 c 0
 58.4666844318 267.999701956 58.610804031 274.793301246 58.9054915921 281.742935934 c 0
 60.1506137886 311.106728475 64.0523624484 342.885006219 70.925333239 377.379538866 c 0
 126.087641149 655.354306176 319.067284268 744 423 744 c 0
 558.941701159 744 607.680968163 654.40839431 612.669557942 643.939585614 c 0
 615.356485286 637.790535084 616.66713671 631.163436216 616.66713671 624.54098202 c 0
 616.66713671 606.778987708 607.238851083 589.050405248 589.648427206 580.668228124 c 0
 583.124037982 577.559230497 576.311943226 576.125487168 569.617851593 576.125487168 c 0
 551.533829786 576.125487168 534.311000481 586.589015349 525.948155245 602.754536839 c 0
 524.308610099 605.667298244 501.829415733 648 423 648 c 0
 369.772721839 648 227.902923574 599.25016991 173.152931866 393.67026558 c 1
EndSplineSet
EndChar

StartChar: seven
Encoding: 55 55 23
Width: 672
VWidth: 0
Flags: HW
LayerCount: 2
Fore
SplineSet
120 688 m 0
 120 714.144471708 141.853633925 736 168 736 c 2
 616 736 l 2
 643.965427995 736 663.899969156 711.59555931 663.899969156 687.115569024 c 0
 663.899969156 684.155456221 663.608494845 681.194238765 663.004500136 678.274931006 c 2
 651.004500136 620.274931006 l 2
 648.026482409 605.881178658 637.449821943 593.60918561 626.458812971 587.571789868 c 0
 620.282077148 584.431194374 344.546309092 442.978608808 269.983326189 70.163694294 c 1
 262.891200835 37.7425498173 l 2
 258.033827225 15.5374133139 237.732311729 0.0292233154411 215.727300741 0.0292233154411 c 0
 212.421962915 0.0292233154411 209.078189855 0.379127906659 205.742549817 1.10879916498 c 0
 183.535913075 5.96650095242 168.029260877 26.2689802676 168.029260877 48.2729421872 c 0
 168.029260877 51.5782463135 168.379156998 54.9219431345 169.108799165 58.2574501827 c 2
 176.016673811 89.836305706 l 1
 239.10499786 405.277925951 433.837723641 574.599357177 528.718963921 640 c 1
 168 640 l 2
 141.853633925 640 120 661.855528292 120 688 c 0
EndSplineSet
EndChar

StartChar: eight
Encoding: 56 56 24
Width: 672
VWidth: 0
Flags: HW
LayerCount: 2
Fore
SplineSet
513.117494775 383.128173352 m 1
 557.137072724 346.140301489 576.766037878 294.586518879 576.766037878 244.291773757 c 0
 576.766037878 231.59127529 575.514356723 218.971061926 573.087669048 206.685955573 c 0
 549.906486285 89.4921982668 432.00911507 -8 271 -8 c 0
 251.698795089 -8 233.210952542 -6.25335979343 215.667285245 -2.87641001052 c 0
 105.120273429 18.4025906246 37.2158655059 105.125335405 37.2158655059 199.305366166 c 0
 37.2158655059 211.900312093 38.4302967321 224.628627285 40.919578639 237.351623698 c 0
 58.0066857141 322.10367479 115.976833812 376.2602406 161.207892891 407.131302107 c 1
 132.550010789 437.705616334 116.513735231 477.564954527 116.513735231 519.692463678 c 0
 116.513735231 530.885074758 117.645704857 542.237791632 119.97368325 553.619019335 c 0
 143.159374769 668.183612719 267.689255836 744 401 744 c 0
 514.530379802 744 625.258988294 678.640346036 625.258988294 566.400275433 c 0
 625.247679819 555.858801896 624.169908243 545.096604564 622.087566017 534.684893435 c 0
 608.469258031 465.080208172 553.991779062 415.15407737 513.117494775 383.128173352 c 1
410.486612513 428.77622289 m 1
 444.941553918 449.684877686 518.966834602 507.593154174 527.912433983 553.315106565 c 0
 528.878458897 558.14523114 529.254485376 562.200741011 529.258923456 566.339943524 c 0
 529.258923456 602.281605767 487.771900077 648 401 648 c 0
 298.313559231 648 224.832429105 587.775366086 214.036313122 534.429851817 c 0
 212.847295848 528.616878479 212.353393125 523.477962819 212.3477116 518.433940767 c 0
 212.3477116 494.354231502 223.686564553 473.295313687 252.287942384 456.459077576 c 0
 274.47167775 443.400594566 307.49976034 434 350 434 c 0
 371.186618387 434 391.64420334 432.180897869 410.486612513 428.77622289 c 1
256.632900217 350.866273215 m 1
 224.869608148 336.638830865 149.978884751 292.544754715 135.080421361 218.648376302 c 0
 133.790166438 212.053740026 133.140693296 205.370933339 133.140693296 198.694460586 c 0
 133.140693296 151.443385861 165.67116912 104.509561965 233.813048634 91.3930509566 c 0
 245.100744293 89.2203021945 257.483525353 88 271 88 c 0
 393.99088493 88 466.093513715 160.507801733 478.912330952 225.314044427 c 0
 480.336364493 232.523214229 481.079927132 239.653796487 481.079927132 246.620016937 c 0
 481.079927132 278.690744002 465.320488469 307.277904665 427.64548846 324.012148003 c 0
 418.505536474 328.071874098 407.713728114 331.533055643 395.009059957 334.001681276 c 0
 382.038597555 336.521953003 367.077740225 338 350 338 c 0
 316.732221551 338 285.065159411 342.457159999 256.632900217 350.866273215 c 1
EndSplineSet
EndChar

StartChar: nine
Encoding: 57 57 25
Width: 672
VWidth: 0
Flags: HW
LayerCount: 2
Fore
SplineSet
509.45442954 543.761112822 m 0
 487.189546934 627.591643906 424.640091615 648 379 648 c 0
 271.286336617 648 199.530073675 571.89743172 186.077304863 504.633587663 c 0
 184.719962825 497.775438416 184.066996964 491.006721673 184.066996964 484.500118425 c 0
 184.066996964 431.821618344 228.16561234 380 315 380 c 0
 415.479352107 380 486.279098495 427.309674621 508.918859847 541.34699106 c 0
 509.113588827 542.327848146 509.097505111 542.227793274 509.45442954 543.761112822 c 0
498.847068134 342.32973442 m 1
 447.166134855 302.263355693 382.705054546 284 315 284 c 0
 186.765416211 284 88.0669820642 370.30023078 88.0669820642 484.4848586 c 0
 88.0669820642 497.407146423 89.341832422 510.326263883 91.9133572391 523.31923138 c 0
 114.47794786 636.142184487 224.710759792 744 379 744 c 0
 471.96583697 744 613.534727357 679.556637283 613.534727357 474.695212222 c 0
 613.533315568 468.000298044 613.389195969 461.206698754 613.094508408 454.257064066 c 0
 611.849386211 424.893271525 607.947637552 393.114993781 601.074666761 358.620461134 c 0
 545.912358851 80.6456938238 352.932715732 -8 249 -8 c 0
 113.058298841 -8 64.3190318371 81.5916056902 59.3304420581 92.060414386 c 0
 56.6435147144 98.2094649164 55.3328632896 104.836563784 55.3328632896 111.45901798 c 0
 55.3328632896 129.221012292 64.7611489168 146.949594752 82.3515727939 155.331771876 c 0
 88.8759620179 158.440769503 95.688056774 159.874512832 102.382148407 159.874512832 c 0
 120.466170214 159.874512832 137.688999519 149.410984651 146.051844755 133.245463161 c 0
 147.691389901 130.332701756 170.170584267 88 249 88 c 0
 302.227278161 88 444.097076426 136.74983009 498.847068134 342.32973442 c 1
EndSplineSet
EndChar

StartChar: colon
Encoding: 58 58 26
Width: 288
VWidth: 0
Flags: HW
HStem: 48 48<121.906 166.094> 432 48<121.906 166.094>
VStem: 120 48<49.9059 94.0941 433.906 478.094>
LayerCount: 2
Fore
SplineSet
88.765126785 456.771773698 m 0
 97.5962827087 496.606364857 132.086169696 528 174 528 c 0
 206.86744402 528 235.173490204 501.22273492 235.173490204 466.321184848 c 0
 235.173490204 462.703879932 234.869429696 458.999304819 234.234873215 455.228226302 c 0
 225.403717291 415.393635143 190.913830304 384 149 384 c 0
 116.13255598 384 87.8265097956 410.77726508 87.8265097956 445.678815152 c 0
 87.8265097956 449.296120068 88.1305703038 453.000695181 88.765126785 456.771773698 c 0
158.221548381 71.1490387171 m 0
 148.986703192 29.8878455005 112.900833788 0 72 0 c 0
 33.3499706091 0 11.9152270805 32.6776451843 11.9152270805 62.5970086173 c 0
 11.9152270805 66.1155539157 12.2116691839 69.595952229 12.8114159962 72.9805698984 c 0
 22.4016158933 116.238971781 55.9352602244 144 98 144 c 0
 130.864964464 144 159.16136532 117.180099895 159.16136532 82.2570301585 c 0
 159.16136532 78.6345869621 158.85691983 74.9249604713 158.221548381 71.1490387171 c 0
EndSplineSet
EndChar

StartChar: semicolon
Encoding: 59 59 27
Width: 296
VWidth: 0
Flags: HW
HStem: 432 48<121.906 166.094>
VStem: 120 48<433.906 478.094>
LayerCount: 2
Fore
SplineSet
40.2899104825 9.08909780779 m 1
 21.4855578635 21.1658897166 11.924755898 42.7541677635 11.924755898 62.6892648414 c 0
 11.924755898 66.1908740469 12.2197361644 69.6414775141 12.8114159962 72.9805698984 c 0
 22.4016158933 116.238971781 55.9352602244 144 98 144 c 0
 131.224324681 144 164.845367526 113.927973696 164.845367526 71.6423482346 c 0
 164.845367526 66.0912965062 164.265970567 60.3297658155 163.030218738 54.3981570359 c 0
 151.462159602 -3.44213864027 100.196747985 -79.0483915259 98.3026402719 -82.0828352026 c 0
 88.6748676204 -96.4388601356 73.3207796487 -103.959269948 57.8293693445 -103.959269948 c 0
 49.1271391937 -103.959269948 40.3815758802 -101.58614435 32.5834027326 -96.7185041885 c 0
 18.1443705374 -87.7056223661 10.153034258 -71.7989070035 10.153034258 -55.6749161943 c 0
 10.153034258 -47.0305971059 12.449901542 -38.323828779 17.2814958115 -30.5834027326 c 2
 17.2814958115 -30.5834027326 27.887768267 -13.6283511917 40.2899104825 9.08909780779 c 1
88.765126785 456.771773698 m 0
 97.5962827087 496.606364857 132.086169696 528 174 528 c 0
 206.86744402 528 235.173490204 501.22273492 235.173490204 466.321184848 c 0
 235.173490204 462.703879932 234.869429696 458.999304819 234.234873215 455.228226302 c 0
 225.403717291 415.393635143 190.913830304 384 149 384 c 0
 116.13255598 384 87.8265097956 410.77726508 87.8265097956 445.678815152 c 0
 87.8265097956 449.296120068 88.1305703038 453.000695181 88.765126785 456.771773698 c 0
EndSplineSet
EndChar

StartChar: less
Encoding: 60 60 28
Width: 640
VWidth: 0
Flags: HW
LayerCount: 2
Fore
SplineSet
534.964636851 128.698299332 m 0
 526.277431432 113.053285871 509.614633033 104.135227177 492.634085582 104.135227177 c 0
 484.806284823 104.135227177 476.910959714 106.030389776 469.698299332 110.035363149 c 2
 80.6982993324 326.035363149 l 2
 76.13370596 328.569944559 72.1417382615 331.783440792 68.7768128511 335.485661867 c 0
 65.3535193791 339.137185526 62.4679364981 343.375305917 60.3055599155 348.130528298 c 0
 57.1159528553 355.144710491 55.8085291813 362.605237562 56.1600665796 369.916855378 c 0
 56.3946428373 377.233171387 58.294780875 384.565189335 62.0353631495 391.301700668 c 0
 64.5712427018 395.868631898 67.7866269152 399.862264876 71.4910602253 403.228169579 c 0
 75.1414277662 406.649339497 79.37773715 409.533173663 84.1305282984 411.694440085 c 2
 559.130528298 627.694440085 l 2
 565.406773784 630.548480137 572.040387806 631.895539474 578.604917484 631.895539474 c 0
 596.934690889 631.895539474 614.725839172 621.393015374 622.694440085 603.869471702 c 0
 625.548393224 597.593417343 626.895468035 590.959779117 626.895468035 584.395115375 c 0
 626.895468035 566.066013243 616.394021468 548.274618336 598.869471702 540.305559915 c 2
 210.566802337 363.730030268 l 1
 516.301700668 193.964636851 l 2
 531.947537371 185.276974311 540.864703585 168.614120963 540.864703585 151.634173572 c 0
 540.864703585 143.806157338 538.969492375 135.910747476 534.964636851 128.698299332 c 0
EndSplineSet
EndChar

StartChar: equal
Encoding: 61 61 29
Width: 640
VWidth: 0
Flags: HW
AnchorPoint: "middle" 320 368 basechar 0
LayerCount: 2
Fore
SplineSet
32 248 m 0
 32 274.144471708 53.8536339246 296 80 296 c 2
 512 296 l 2
 538.144471708 296 560 274.146366075 560 248 c 0
 560 221.853633925 538.144471708 200 512 200 c 2
 80 200 l 2
 53.8536339246 200 32 221.855528292 32 248 c 0
80 488 m 0
 80 514.144471708 101.853633925 536 128 536 c 2
 560 536 l 2
 586.144471708 536 608 514.146366075 608 488 c 0
 608 461.853633925 586.144471708 440 560 440 c 2
 128 440 l 2
 101.853633925 440 80 461.855528292 80 488 c 0
EndSplineSet
EndChar

StartChar: greater
Encoding: 62 62 30
Width: 640
VWidth: 0
Flags: HW
LayerCount: 2
Fore
SplineSet
17.3055599155 132.130528298 m 0
 14.4516067757 138.406582657 13.1045319645 145.040220883 13.1045319645 151.604884625 c 0
 13.1045319645 169.933986757 23.6059785319 187.725381664 41.1305282984 195.694440085 c 2
 429.433197663 372.269969732 l 1
 123.698299332 542.035363149 l 2
 108.052462629 550.723025689 99.1352964154 567.385879037 99.1352964154 584.365826428 c 0
 99.1352964154 592.193842662 101.030507625 600.089252524 105.035363149 607.301700668 c 0
 113.722568568 622.946714129 130.385366967 631.864772823 147.365914418 631.864772823 c 0
 155.193715177 631.864772823 163.089040286 629.969610224 170.301700668 625.964636851 c 2
 559.301700668 409.964636851 l 2
 563.86629404 407.430055441 567.858261738 404.216559208 571.223187149 400.514338133 c 0
 574.646480621 396.862814474 577.532063502 392.624694083 579.694440085 387.869471702 c 0
 582.884047145 380.855289509 584.191470819 373.394762438 583.83993342 366.083144622 c 0
 583.605357163 358.766828613 581.705219125 351.434810665 577.964636851 344.698299332 c 0
 575.428757298 340.131368102 572.213373085 336.137735124 568.508939775 332.771830421 c 0
 564.858572234 329.350660503 560.62226285 326.466826337 555.869471702 324.305559915 c 2
 80.8694717016 108.305559915 l 2
 74.5932262163 105.451519863 67.9596121936 104.104460526 61.395082516 104.104460526 c 0
 43.065309111 104.104460526 25.2741608277 114.606984626 17.3055599155 132.130528298 c 0
EndSplineSet
EndChar

StartChar: question
Encoding: 63 63 31
Width: 640
VWidth: 0
Flags: HW
HStem: 48 48<281.906 326.094>
VStem: 280 48<49.9059 94.0941>
LayerCount: 2
Fore
SplineSet
318.221548381 71.1490387171 m 0
 308.986703192 29.8878455005 272.900833788 0 232 0 c 0
 193.349970609 0 171.91522708 32.6776451843 171.91522708 62.5970086173 c 0
 171.91522708 66.1155539157 172.211669184 69.595952229 172.811415996 72.9805698984 c 0
 182.401615893 116.238971781 215.935260224 144 258 144 c 0
 290.864964464 144 319.16136532 117.180099895 319.16136532 82.2570301585 c 0
 319.16136532 78.6345869621 318.85691983 74.9249604713 318.221548381 71.1490387171 c 0
135.755794214 488.898570517 m 0
 113.110610051 493.342952455 97.023613957 513.851715799 97.023613957 536.2474041 c 0
 97.023613957 539.224099966 97.3078080561 542.234130392 97.8985705166 545.244205786 c 0
 124.519579421 680.884584488 246.691941585 744 369 744 c 0
 394.057900351 744 417.848251043 741.881022428 440.15966691 737.402051212 c 0
 519.588279229 721.45691934 584.667723332 667.295391121 584.667723332 585.014886336 c 0
 584.667723332 574.000299813 583.501487616 562.481816012 581.047318875 550.483657723 c 0
 563.220684305 461.350484874 503.171258874 417.456085442 433.119894549 381.400236157 c 0
 358.309430951 342.213802843 345.47309914 326.688086337 326.050391732 230.499440131 c 0
 321.500083334 207.964579492 301.04268532 192.024979043 278.746059846 192.024979043 c 0
 275.686370274 192.024979043 272.592045965 192.325139782 269.499440131 192.949608268 c 0
 246.963044068 197.500226703 231.025012669 217.958653206 231.025012669 240.254185243 c 0
 231.025012669 243.313834348 231.32516536 246.408080709 231.949608268 249.500559869 c 0
 254.52690086 361.311913663 295.690569049 417.786197157 388.880105451 466.599763843 c 0
 454.828741126 500.543914558 476.779315695 518.649515126 486.952681125 569.516342277 c 0
 488.310047707 576.152356676 489.048190918 582.307093118 489.048190918 588.01190792 c 0
 489.048190918 616.082816608 471.176301341 633.260243204 421.264830874 643.27986907 c 0
 406.200341378 646.304034602 388.59569442 648 369 648 c 0
 275.308058415 648 207.480420579 605.115415512 192.101429483 526.755794214 c 0
 187.656743897 504.109062891 167.146929963 488.023646248 144.752350694 488.023646248 c 0
 141.77569731 488.023646248 138.765745171 488.307832478 135.755794214 488.898570517 c 0
EndSplineSet
EndChar

StartChar: at
Encoding: 64 64 32
Width: 880
VWidth: 0
Flags: HW
LayerCount: 2
Fore
SplineSet
563.0193627 89.1388533479 m 0
 565.656961763 83.0723755041 566.902057573 76.6998645458 566.902057573 70.3956861918 c 0
 566.902057573 51.7840976224 556.049985349 33.7680859959 538.138853348 25.9806372998 c 0
 486.067509259 3.3409224788 430.529753904 -8 375 -8 c 0
 350.981020852 -8 327.699301164 -5.73423497503 305.382998456 -1.32992345647 c 0
 155.774829287 28.1965169842 57.6582849095 152.945343521 57.6582849095 304.902620012 c 0
 57.6582849095 328.485676673 60.0214792108 352.724064749 64.9221503514 377.363550206 c 0
 105.451259034 581.134902194 299.462152897 744 505 744 c 0
 529.018979148 744 552.300698836 741.734234975 574.617001544 737.329923456 c 0
 724.189149757 707.810592057 822.322759335 583.256418067 822.322759335 431.111689279 c 0
 822.322759335 407.457309969 819.95069171 383.136016825 815.03107349 358.401269662 c 0
 805.75491834 314.081861724 793.546519008 262.376352432 758.066424989 216.759088693 c 0
 724.678281234 172.747444653 668.986674144 152 623 152 c 0
 612.679360645 152 602.547826926 152.990526647 592.724220752 154.876377053 c 0
 567.235864157 159.769409895 539.977516409 171.571635122 519.783928526 191.26568608 c 1
 484.503875749 161.333375048 441.80588536 142 395 142 c 0
 295.711884925 142 238.39107367 230.607705747 238.39107367 323.70913729 c 0
 238.39691775 341.276135747 240.230885439 359.27933385 243.969405179 377.598080576 c 0
 266.976667929 490.333668054 356.507795343 594 466 594 c 0
 499.55593412 594 528.44371332 583.568817019 551.943477106 566.286757555 c 1
 560.802672751 579.547704369 576.041242998 587.975125912 592.253446909 587.975125912 c 0
 595.306831013 587.975125912 598.394751301 587.676193171 601.481093957 587.054318159 c 0
 624.025892271 582.511709543 639.975092387 562.049355522 639.975092387 539.746307982 c 0
 639.975092387 536.692964503 639.676167681 533.605122192 639.054318159 530.518906043 c 2
 585.120463794 262.847184383 l 2
 586.523877959 260.258585057 600.816995709 248 623 248 c 0
 641.013325856 248 671.321718766 261.252555347 681.933575011 275.240911307 c 0
 702.58737919 301.795802394 711.874011729 334.292493676 720.973477919 377.619600116 c 0
 724.716277362 396.70395503 726.516575205 415.191137116 726.516575205 432.938594425 c 0
 726.516575205 542.084424847 658.426097682 623.252544021 555.321988689 643.285115556 c 0
 539.515270317 646.356275568 522.723324433 648 505 648 c 0
 348.537847103 648 190.548740966 516.865097806 159.077849649 358.636449794 c 0
 155.244984647 339.365656316 153.40414312 320.710152166 153.40414312 302.813869281 c 0
 153.40414312 193.863216162 221.630221226 113.051155386 323.970868085 92.853361168 c 0
 339.983700386 89.6930929699 357.012153209 88 375 88 c 0
 417.470246096 88 459.932490741 96.6590775212 499.861146652 114.0193627 c 0
 505.927811628 116.657043125 512.300310187 117.90212826 518.604371047 117.90212826 c 0
 537.216649455 117.90212826 555.232368479 107.048940056 563.0193627 89.1388533479 c 0
523.34686966 442.286989059 m 1
 514.09046204 482.039324684 492.007129036 498 466 498 c 0
 421.492204657 498 355.023332071 441.666331946 338.030594821 358.401919424 c 0
 335.527677009 346.137622142 334.394674469 334.529967435 334.39106223 323.674783837 c 0
 334.39106223 263.377501509 364.305816766 238 395 238 c 0
 426.015559429 238 468.50009108 263.909941983 497.086569938 311.958094139 c 1
 523.34686966 442.286989059 l 1
EndSplineSet
EndChar

StartChar: A
Encoding: 65 65 33
Width: 688
VWidth: 0
Flags: HW
AnchorPoint: "above" 427 784 basechar 0
LayerCount: 2
Fore
SplineSet
9.07051498341 5.83083215341 m 0
 -6.78308578753 14.4512275726 -15.8680345133 31.242260648 -15.8680345133 48.3712611973 c 0
 -15.8680345133 56.0586028928 -14.0382042546 63.8140157606 -10.1691678466 70.9294850166 c 2
 337.830832153 710.929485017 l 2
 346.422935275 726.731053975 364.367813953 736 380 736 c 2
 415 736 l 1
 436 736 l 2
 459.83080725 736 480.234214546 717.62912742 483.511618558 694.829795168 c 2
 575.511618558 54.8297951677 l 2
 575.831945321 52.6014350743 575.987357614 50.3814966638 575.987357614 48.1826769066 c 0
 575.987357614 24.846093613 558.481610522 3.8883298995 534.829795168 0.488381442348 c 0
 532.601334427 0.168040210881 530.381320716 0.0126223486213 528.182446891 0.0126223486213 c 0
 504.844592885 0.0126223486213 483.888092306 17.5200422994 480.488381442 41.1702048323 c 2
 465.706598387 144 l 1
 138.837075324 144 l 1
 74.1691678466 25.0705149834 l 2
 65.548314131 9.21607136856 48.7572073875 0.132035445008 31.6288135126 0.132035445008 c 0
 23.9412653362 0.132035445008 16.1857745553 1.96190976118 9.07051498341 5.83083215341 c 0
191.037075324 240 m 1
 451.906598387 240 l 1
 397.361152656 619.446579 l 1
 191.037075324 240 l 1
EndSplineSet
EndChar

StartChar: B
Encoding: 66 66 34
Width: 696
VWidth: 0
Flags: HW
AnchorPoint: "above" 431 784 basechar 0
LayerCount: 2
Fore
SplineSet
206.55058733 436 m 1
 404 436 l 2
 421.528179316 436 438.138136438 439.064679701 453.593574651 444.590055243 c 0
 502.618335644 462.116586141 538.382051556 504.663194432 546.932127567 547.413574487 c 0
 548.317503588 554.340454594 548.94579298 560.814955344 548.94579298 567.112422466 c 0
 548.94579298 607.534308747 524.749385995 640 464 640 c 2
 247.35058733 640 l 1
 206.55058733 436 l 1
546.825679332 386.192266012 m 1
 582.37342858 349.636069977 597.518651748 301.009659567 597.518651748 253.401288004 c 0
 597.518651748 238.21793601 595.978213319 223.138129942 593.067872433 208.586425513 c 0
 573.694178749 111.717957094 485.59203656 0 352 0 c 2
 80 0 l 2
 60.5034119753 0 32.0048366341 19.167019459 32.0048366341 48.2309530245 c 0
 32.0048366341 51.1923453855 32.3007102704 54.2564880042 32.9321275668 57.4135744866 c 2
 102.821698119 406.861427247 l 1
 160.932127567 697.413574487 l 2
 164.702490525 716.265389276 183.866061088 736 208 736 c 2
 464 736 l 2
 571.521000376 736 644.945687898 660.924201025 644.945687898 567.052040946 c 0
 644.945687898 554.197285184 643.642199931 541.458063004 641.067872433 528.586425513 c 0
 629.661245627 471.553291483 594.811323171 420.776678003 546.825679332 386.192266012 c 1
187.35058733 340 m 1
 138.55058733 96 l 1
 352 96 l 2
 426.407963439 96 486.305821251 164.282042906 498.932127567 227.413574487 c 0
 500.654014348 236.02300839 501.511520213 244.743893347 501.517503276 253.364447462 c 0
 501.517503276 303.789070262 477.96466074 340 420 340 c 0
 418.431737457 340 416.727744096 340.090037602 415.091388916 340.25120452 c 0
 411.414593499 340.085003519 407.703450186 340 404 340 c 2
 187.35058733 340 l 1
EndSplineSet
EndChar

StartChar: C
Encoding: 67 67 35
Width: 684
VWidth: 0
Flags: HW
AnchorPoint: "bottom" 303 40 basechar 0
AnchorPoint: "above" 451 784 basechar 0
LayerCount: 2
Fore
SplineSet
540.789804197 246.991060147 m 0
 563.199363684 242.322401921 578.973436452 221.92383049 578.973436452 199.738792424 c 0
 578.973436452 196.585340216 578.654726232 193.395793007 577.991060147 190.210195803 c 0
 568.229947482 143.356855008 469.772802741 -8 303 -8 c 0
 288.036116866 -8 273.373367979 -6.57647225045 259.179371316 -3.77353145026 c 0
 132.789568305 21.1851284671 63.8043727914 143.870461077 63.8043727914 286.314343861 c 0
 63.8043727914 316.039814758 66.8085516072 346.625734298 72.9221503514 377.363550206 c 0
 111.690146161 572.280418028 262.496095822 744 433 744 c 0
 607.068298071 744 635.759272489 587.368306961 636.459481835 583.225979392 c 0
 636.774110346 580.904870457 636.92678746 578.607907292 636.92678746 576.345591737 c 0
 636.92678746 552.534452673 620.013504204 532.561510562 597.000313169 528.671414671 c 0
 594.337641728 528.22132293 591.681256928 528.002806023 589.053284382 528.002806023 c 0
 566.803369118 528.002806023 546.590124249 543.666713896 541.84175313 567.06957406 c 0
 540.217292204 575.120630408 526.048106017 648 433 648 c 0
 329.503904178 648 200.309853839 525.719581972 167.077849649 358.636449794 c 0
 161.798872376 332.094925171 159.370852855 307.119205559 159.370852855 283.889109075 c 0
 159.370852855 173.897110756 213.805113871 103.040590593 277.777684296 90.4076914887 c 0
 285.722969355 88.8387067841 294.104234011 88 303 88 c 0
 398.798514937 88 473.498175808 186.422377034 484.534254342 212.06580903 c 0
 490.188569963 232.429369041 509.428910525 247.975211522 531.288028967 247.975211522 c 0
 534.412460299 247.975211522 537.590394287 247.657603879 540.789804197 246.991060147 c 0
EndSplineSet
EndChar

StartChar: D
Encoding: 68 68 36
Width: 696
VWidth: 0
Flags: HW
HStem: 48 21G<144 384> 668 20G<144 384>
VStem: 144 432<226.215 509.777>
AnchorPoint: "above" 431 784 basechar 0
LayerCount: 2
Fore
SplineSet
32.9321275668 57.4135744866 m 2
 160.932127567 697.413574487 l 2
 165.665182392 721.078848612 188.774845704 736 208 736 c 2
 416 736 l 2
 426.411824519 736 437.277885307 734.903939439 448.652341928 732.676934845 c 0
 530.195820179 716.711539155 634.16706925 638.509008171 634.16706925 463.800618012 c 0
 634.16706925 432.006044388 630.723635369 397.015283855 623.074931705 358.621790949 c 0
 567.872893535 81.5292071937 376.401740905 0 288 0 c 2
 80 0 l 2
 51.7902425896 0 32.1100135881 24.7883102522 32.1100135881 48.9995097171 c 0
 32.1100135881 51.8255064476 32.3781407717 54.643640511 32.9321275668 57.4135744866 c 2
138.55058733 96 m 1
 288 96 l 2
 327.598259095 96 482.127106465 142.470792806 528.925068295 377.378209051 c 0
 535.945985936 412.620462307 538.989495671 443.180606821 538.989495671 469.673905757 c 0
 538.989495671 598.815837837 466.673033012 631.325949435 430.206723971 638.465687225 c 0
 424.483427176 639.58625137 419.489814826 640 416 640 c 2
 247.35058733 640 l 1
 138.55058733 96 l 1
EndSplineSet
EndChar

StartChar: E
Encoding: 69 69 37
Width: 696
VWidth: 0
Flags: HW
AnchorPoint: "bottom" 284 48 basechar 0
AnchorPoint: "above" 431 784 basechar 0
LayerCount: 2
Fore
SplineSet
672 688 m 0
 672 661.855528292 650.146366075 640 624 640 c 2
 247.35058733 640 l 1
 206.55058733 436 l 1
 436 436 l 2
 462.144471708 436 484 414.146366075 484 388 c 0
 484 361.853633925 462.144471708 340 436 340 c 2
 187.35058733 340 l 1
 138.55058733 96 l 1
 512 96 l 2
 538.144471708 96 560 74.1463660754 560 48 c 0
 560 21.8536339246 538.144471708 0 512 0 c 2
 80 0 l 2
 60.5034119753 0 32.0048366341 19.167019459 32.0048366341 48.2309530245 c 0
 32.0048366341 51.1923453855 32.3007102704 54.2564880042 32.9321275668 57.4135744866 c 2
 160.932127567 697.413574487 l 2
 164.702490525 716.265389276 183.866061088 736 208 736 c 2
 624 736 l 2
 650.146366075 736 672 714.144471708 672 688 c 0
EndSplineSet
EndChar

StartChar: F
Encoding: 70 70 38
Width: 664
VWidth: 0
Flags: HW
AnchorPoint: "above" 415 784 basechar 0
LayerCount: 2
Fore
SplineSet
70.5864255134 0.932127566836 m 0
 48.0140532212 5.44660202528 32.0245116922 25.9215106285 32.0245116922 48.2517320898 c 0
 32.0245116922 51.2832494966 32.319204871 54.3489610072 32.9321275668 57.4135744866 c 2
 160.932127567 697.413574487 l 2
 165.665182392 721.078848612 188.774845704 736 208 736 c 2
 608 736 l 2
 634.144471708 736 656 714.146366075 656 688 c 0
 656 661.853633925 634.144471708 640 608 640 c 2
 247.35058733 640 l 1
 206.55058733 436 l 1
 444 436 l 2
 470.144471708 436 492 414.146366075 492 388 c 0
 492 361.853633925 470.144471708 340 444 340 c 2
 187.35058733 340 l 1
 127.067872433 38.5864255134 l 2
 122.553090091 16.0125138044 102.077145511 0.0245448649932 79.7480227462 0.0245448649932 c 0
 76.7165465063 0.0245448649932 73.6509130718 0.319230055154 70.5864255134 0.932127566836 c 0
EndSplineSet
EndChar

StartChar: G
Encoding: 71 71 39
Width: 672
VWidth: 0
Flags: HW
AnchorPoint: "above" 451 784 basechar 0
LayerCount: 2
Fore
SplineSet
597.000313169 528.671414671 m 0
 594.382916086 528.228976001 591.789756656 528.016734608 589.237045964 528.016734608 c 0
 566.058706318 528.016734608 546.215140764 545.514860523 541.84175313 567.06957406 c 0
 540.067102068 575.864993797 525.648599258 648 433 648 c 0
 329.503898517 648 200.309884721 525.719737241 167.077849649 358.636449794 c 0
 161.969535245 332.952980151 159.592423668 308.333636877 159.587807913 285.085301453 c 0
 159.587807913 159.018155269 224.195945795 88 303 88 c 0
 383.759886391 88 444.418134159 148.669588112 464.111868626 172.427499438 c 1
 488.568926029 296 l 1
 379 296 l 2
 352.855528292 296 331 317.853633925 331 344 c 0
 331 370.146366075 352.855528292 392 379 392 c 2
 547 392 l 2
 566.351205565 392 594.995355108 372.908823567 594.995355108 343.772132436 c 0
 594.995355108 340.840316282 594.705334446 337.806789766 594.086642761 334.68076862 c 2
 556.086642761 142.68076862 l 2
 554.937696304 136.875565469 552.128504385 129.920304359 548.347549063 124.508721697 c 0
 547.019174782 122.607454262 459.523787211 -8 303 -8 c 0
 152.833992884 -8 63.5878124219 129.319148693 63.5878124219 285.107999404 c 0
 63.5937291181 314.911694255 66.6374213639 345.765329464 72.9221503514 377.363550206 c 0
 111.690115279 572.280262759 262.496101483 744 433 744 c 0
 606.480497138 744 635.505536858 588.869366758 636.459481835 583.225979392 c 0
 636.744820229 581.120952444 636.884392728 579.007594182 636.884392728 576.900063225 c 0
 636.884392728 554.494053992 621.108971928 532.746685859 597.000313169 528.671414671 c 0
EndSplineSet
EndChar

StartChar: H
Encoding: 72 72 40
Width: 712
VWidth: 0
Flags: HW
AnchorPoint: "above" 439 784 basechar 0
LayerCount: 2
Fore
SplineSet
641.413574487 735.067872433 m 0
 663.985946779 730.553397975 679.975488308 710.078489371 679.975488308 687.74826791 c 0
 679.975488308 684.716750503 679.680795129 681.651038993 679.067872433 678.586425513 c 2
 551.067872433 38.5864255134 l 2
 546.553397975 16.0140532212 526.078489371 0.0245116921936 503.74826791 0.0245116921936 c 0
 500.716750503 0.0245116921936 497.651038993 0.319204870956 494.586425513 0.932127566836 c 0
 472.012513804 5.44690990864 456.024544865 25.9228544887 456.024544865 48.2519772538 c 0
 456.024544865 51.2834534937 456.319230055 54.3490869282 456.932127567 57.4135744866 c 2
 513.44941267 340 l 1
 187.35058733 340 l 1
 127.067872433 38.5864255134 l 2
 122.553090091 16.0125138044 102.077145511 0.0245448649932 79.7480227462 0.0245448649932 c 0
 76.7165465063 0.0245448649932 73.6509130718 0.319230055154 70.5864255134 0.932127566836 c 0
 48.0140532212 5.44660202528 32.0245116922 25.9215106285 32.0245116922 48.2517320898 c 0
 32.0245116922 51.2832494966 32.319204871 54.3489610072 32.9321275668 57.4135744866 c 2
 160.932127567 697.413574487 l 2
 165.446602025 719.985946779 185.921510629 735.975488308 208.25173209 735.975488308 c 0
 211.283249497 735.975488308 214.348961007 735.680795129 217.413574487 735.067872433 c 0
 239.987486196 730.553090091 255.975455135 710.077145511 255.975455135 687.748022746 c 0
 255.975455135 684.716546506 255.680769945 681.650913072 255.067872433 678.586425513 c 2
 206.55058733 436 l 1
 532.64941267 436 l 1
 584.932127567 697.413574487 l 2
 589.446909909 719.987486196 609.922854489 735.975455135 632.251977254 735.975455135 c 0
 635.283453494 735.975455135 638.349086928 735.680769945 641.413574487 735.067872433 c 0
EndSplineSet
EndChar

StartChar: I
Encoding: 73 73 41
Width: 336
VWidth: 0
Flags: HW
AnchorPoint: "above" 251 784 basechar 0
LayerCount: 2
Fore
SplineSet
241.413574487 735.067872433 m 0
 263.985946779 730.553397975 279.975488308 710.078489371 279.975488308 687.74826791 c 0
 279.975488308 684.716750503 279.680795129 681.651038993 279.067872433 678.586425513 c 2
 151.067872433 38.5864255134 l 2
 146.553397975 16.0140532212 126.078489371 0.0245116921935 103.74826791 0.0245116921935 c 0
 100.716750503 0.0245116921935 97.6510389928 0.319204870956 94.5864255134 0.932127566836 c 0
 72.0125138044 5.44690990864 56.024544865 25.9228544887 56.024544865 48.2519772538 c 0
 56.024544865 51.2834534937 56.3192300552 54.3490869282 56.9321275668 57.4135744866 c 2
 184.932127567 697.413574487 l 2
 189.446909909 719.987486196 209.922854489 735.975455135 232.251977254 735.975455135 c 0
 235.283453494 735.975455135 238.349086928 735.680769945 241.413574487 735.067872433 c 0
EndSplineSet
EndChar

StartChar: J
Encoding: 74 74 42
Width: 544
VWidth: 0
Flags: HW
AnchorPoint: "above" 355 784 basechar 0
LayerCount: 2
Fore
SplineSet
86.8458496824 327.177864973 m 0
 109.661102782 322.900005017 125.97843327 302.312868668 125.97843327 279.762917279 c 0
 125.97843327 276.915002209 125.718170554 274.035780083 125.177864973 271.154150318 c 2
 113.142130302 206.963565409 l 2
 110.97787571 195.914476176 110.087529499 186.373268179 110.087529499 176.660162692 c 0
 110.087529499 118.295352189 141.680146531 88 183 88 c 0
 233.635193648 88 308.755894189 153.5324076 327.926064726 249.383260283 c 2
 416.920040938 697.352938296 l 2
 421.409469995 719.95141265 441.896535503 735.975811571 464.25018692 735.975811571 c 0
 467.262072654 735.975811571 470.30784499 735.684899473 473.352938296 735.079959062 c 0
 495.952954844 730.590223631 511.975778714 710.10211692 511.975778714 687.749567885 c 0
 511.975778714 684.737723796 511.684874562 681.692029618 511.079959062 678.647061704 c 2
 422.079959062 230.647061704 l 2
 397.238971507 106.442123931 300.366649448 -8 183 -8 c 0
 79.6885993833 -8 14.0877134834 78.8097059439 14.0877134834 176.779289169 c 0
 14.0877134834 192.62562096 15.7273008323 209.0540567 18.8578696975 225.036434591 c 2
 30.8221350272 288.845849682 l 2
 35.1002884602 311.662667992 55.6885099326 327.97840305 78.2373274737 327.97840305 c 0
 81.0851972178 327.97840305 83.9643407743 327.718147893 86.8458496824 327.177864973 c 0
EndSplineSet
EndChar

StartChar: K
Encoding: 75 75 43
Width: 672
VWidth: 0
Flags: HW
AnchorPoint: "above" 419 784 basechar 0
LayerCount: 2
Fore
SplineSet
533.819956895 5.24617583057 m 0
 527.001111533 1.76609153971 519.65803028 0.122159764534 512.383975181 0.122159764534 c 0
 494.81644284 0.122159764534 477.651518146 9.71069217266 469.246175831 26.1800431052 c 2
 299.145660426 359.473438771 l 1
 170.07197569 253.606941795 l 1
 127.067872433 38.5864255134 l 2
 122.553397975 16.0140532212 102.078489371 0.0245116921935 79.7482679102 0.0245116921935 c 0
 76.7167505034 0.0245116921935 73.6510389928 0.319204870956 70.5864255134 0.932127566836 c 0
 48.0125138044 5.44690990864 32.024544865 25.9228544887 32.024544865 48.2519772538 c 0
 32.024544865 51.2834534937 32.3192300552 54.3490869282 32.9321275668 57.4135744866 c 2
 160.932127567 697.413574487 l 2
 165.446909909 719.987486196 185.922854489 735.975455135 208.251977254 735.975455135 c 0
 211.283453494 735.975455135 214.349086928 735.680769945 217.413574487 735.067872433 c 0
 239.985946779 730.553397975 255.975488308 710.078489371 255.975488308 687.74826791 c 0
 255.975488308 684.716750503 255.680795129 681.651038993 255.067872433 678.586425513 c 2
 199.77694035 402.131765098 l 1
 593.559696843 725.113177494 l 2
 602.339542265 732.314424446 613.107598761 735.814878443 623.839064489 735.814878443 c 0
 637.817465993 735.814878443 651.733785101 729.875769252 661.113177494 718.440303157 c 0
 668.31419274 709.660740234 671.814846407 698.892480098 671.814846407 688.160634004 c 0
 671.814846407 674.182732349 665.876244191 660.266604445 654.440303157 650.886822506 c 2
 375.121829432 421.789246077 l 1
 554.753824169 69.8199568948 l 2
 558.234011814 63.0009090231 559.877911629 55.6578855826 559.877911629 48.3840103034 c 0
 559.877911629 30.8158501003 550.28840613 13.6510579531 533.819956895 5.24617583057 c 0
EndSplineSet
EndChar

StartChar: L
Encoding: 76 76 44
Width: 656
VWidth: 0
Flags: HW
AnchorPoint: "above" 411 784 basechar 0
LayerCount: 2
Fore
SplineSet
217.413574487 735.067872433 m 0
 239.985946779 730.553397975 255.975488308 710.078489371 255.975488308 687.74826791 c 0
 255.975488308 684.716750503 255.680795129 681.651038993 255.067872433 678.586425513 c 2
 138.55058733 96 l 1
 496 96 l 2
 522.144471708 96 544 74.1463660754 544 48 c 0
 544 21.8536339246 522.144471708 0 496 0 c 2
 80 0 l 2
 60.5034119753 0 32.0048366341 19.167019459 32.0048366341 48.2309530245 c 0
 32.0048366341 51.1923453855 32.3007102704 54.2564880042 32.9321275668 57.4135744866 c 2
 160.932127567 697.413574487 l 2
 165.446909909 719.987486196 185.922854489 735.975455135 208.251977254 735.975455135 c 0
 211.283453494 735.975455135 214.349086928 735.680769945 217.413574487 735.067872433 c 0
EndSplineSet
EndChar

StartChar: M
Encoding: 77 77 45
Width: 830
VWidth: 0
Flags: HW
AnchorPoint: "above" 498 784 basechar 0
LayerCount: 2
Fore
SplineSet
70.5864255134 0.932127566836 m 0
 48.0140532212 5.44660202528 32.0245116922 25.9215106285 32.0245116922 48.2517320898 c 0
 32.0245116922 51.2832494966 32.319204871 54.3489610072 32.9321275668 57.4135744866 c 2
 160.932127567 697.413574487 l 2
 165.665182392 721.078848612 188.774845704 736 208 736 c 2
 228 736 l 1
 248 736 l 2
 271.966582634 736 291.893963557 717.1425049 295.378531262 695.69901133 c 2
 377.38600167 191.037654973 l 1
 670.164374218 711.532539502 l 2
 678.916636772 727.092117376 697.009317722 736 712 736 c 2
 738 736 l 1
 752 736 l 2
 780.20975741 736 799.889986412 711.211689748 799.889986412 687.000490283 c 0
 799.889986412 684.174493552 799.621859228 681.356359489 799.067872433 678.586425513 c 2
 671.067872433 38.5864255134 l 2
 666.553397975 16.0140532212 646.078489371 0.0245116921936 623.74826791 0.0245116921936 c 0
 620.716750503 0.0245116921936 617.651038993 0.319204870956 614.586425513 0.932127566836 c 0
 592.012513804 5.44690990864 576.024544865 25.9228544887 576.024544865 48.2519772538 c 0
 576.024544865 51.2834534937 576.319230055 54.3490869282 576.932127567 57.4135744866 c 2
 667.726231107 511.384092186 l 1
 393.835625782 24.4674604976 l 2
 388.209356851 14.4652046201 376.501136492 4.57432307533 363.392460541 1.3715554321 c 0
 359.689674396 0.466874921298 355.972766909 0.0353675148758 352.304639957 0.0353675148758 c 0
 329.420865821 0.0353675148758 308.435602809 16.8293943845 304.621468738 40.3009886699 c 2
 225.182196746 529.15804708 l 1
 127.067872433 38.5864255134 l 2
 122.553090091 16.0125138044 102.077145511 0.0245448649932 79.7480227462 0.0245448649932 c 0
 76.7165465063 0.0245448649932 73.6509130718 0.319230055154 70.5864255134 0.932127566836 c 0
EndSplineSet
EndChar

StartChar: N
Encoding: 78 78 46
Width: 720
VWidth: 0
Flags: HW
AnchorPoint: "above" 443 784 basechar 0
LayerCount: 2
Fore
SplineSet
70.5864255134 0.932127566836 m 0
 48.0140532212 5.44660202528 32.0245116922 25.9215106285 32.0245116922 48.2517320898 c 0
 32.0245116922 51.2832494966 32.319204871 54.3489610072 32.9321275668 57.4135744866 c 2
 160.932127567 697.413574487 l 2
 165.665182392 721.078848612 188.774845704 736 208 736 c 2
 225 736 l 1
 248 736 l 2
 269.223039056 736 287.409570141 720.129294394 293.126531128 704.358367534 c 2
 487.229688826 168.901380781 l 1
 592.932127567 697.413574487 l 2
 597.446602025 719.985946779 617.921510629 735.975488308 640.25173209 735.975488308 c 0
 643.283249497 735.975488308 646.348961007 735.680795129 649.413574487 735.067872433 c 0
 671.987486196 730.553090091 687.975455135 710.077145511 687.975455135 687.748022746 c 0
 687.975455135 684.716546506 687.680769945 681.650913072 687.067872433 678.586425513 c 2
 559.067872433 38.5864255134 l 2
 555.297509475 19.7346107236 536.133938912 0 512 0 c 2
 498 0 l 1
 480 0 l 2
 463.22484644 0 442.106266228 11.6890880376 434.873468872 31.6416324662 c 2
 235.614755619 581.320841441 l 1
 127.067872433 38.5864255134 l 2
 122.553090091 16.0125138044 102.077145511 0.0245448649932 79.7480227462 0.0245448649932 c 0
 76.7165465063 0.0245448649932 73.6509130718 0.319230055154 70.5864255134 0.932127566836 c 0
EndSplineSet
EndChar

StartChar: O
Encoding: 79 79 47
Width: 736
VWidth: 0
Flags: HW
HStem: 40 656<282.729 453.271>
VStem: 120 496<233.016 502.984>
AnchorPoint: "middle" 368 368 basechar 0
AnchorPoint: "above" 451 784 basechar 0
LayerCount: 2
Fore
SplineSet
663.077849649 358.636449794 m 0
 624.309853839 163.719581972 473.503904178 -8 303 -8 c 0
 287.999864084 -8 273.309214493 -6.58634968174 259.090928514 -3.7991875096 c 0
 132.200121162 21.0747852577 63.7499465765 143.644977515 63.7499465765 285.811140333 c 0
 63.7499465765 315.70423712 66.7763296097 346.463729255 72.9221503514 377.363550206 c 0
 111.690146161 572.280418028 262.496095822 744 433 744 c 0
 448.000135916 744 462.690785507 742.586349682 476.909071486 739.79918751 c 0
 603.799878838 714.925214742 672.250053423 592.355022485 672.250053423 450.188859667 c 0
 672.250053423 420.29576288 669.22367039 389.536270745 663.077849649 358.636449794 c 0
568.922150351 377.363550206 m 0
 574.249727474 404.149424072 576.702055281 429.331122288 576.702055281 452.728381765 c 0
 576.702055281 562.498205657 522.724342912 632.99109408 458.44198593 645.59214557 c 0
 450.442744145 647.160209691 441.988190932 648 433 648 c 0
 329.503904178 648 200.309853839 525.719581972 167.077849649 358.636449794 c 0
 161.750272526 331.850575928 159.297944719 306.668877712 159.297944719 283.271618235 c 0
 159.297944719 173.501794343 213.275657088 103.00890592 277.55801407 90.4078544302 c 0
 285.557255855 88.8397903091 294.011809068 88 303 88 c 0
 406.496095822 88 535.690146161 210.280418028 568.922150351 377.363550206 c 0
EndSplineSet
EndChar

StartChar: P
Encoding: 80 80 48
Width: 680
VWidth: 0
Flags: HW
AnchorPoint: "above" 423 784 basechar 0
LayerCount: 2
Fore
SplineSet
199.35058733 400 m 1
 381 400 l 2
 458.416394803 400 525.804830951 442.221534848 542.900056615 529.251774593 c 0
 545.404209303 542.000188277 546.602856741 553.314559264 546.602856741 563.356599862 c 0
 546.602856741 609.928683739 520.821910232 629.135021315 479.919039525 637.106348128 c 0
 470.319792006 638.977090641 459.602195036 640 448 640 c 2
 247.35058733 640 l 1
 199.35058733 400 l 1
180.15058733 304 m 1
 127.067872433 38.5864255134 l 2
 122.553090091 16.0125138044 102.077145511 0.0245448649932 79.7480227462 0.0245448649932 c 0
 76.7165465063 0.0245448649932 73.6509130718 0.319230055154 70.5864255134 0.932127566836 c 0
 48.0140532212 5.44660202528 32.0245116922 25.9215106285 32.0245116922 48.2517320898 c 0
 32.0245116922 51.2832494966 32.319204871 54.3489610072 32.9321275668 57.4135744866 c 2
 95.557894438 370.542408842 l 1
 160.932127567 697.413574487 l 2
 165.665182392 721.078848612 188.774845704 736 208 736 c 2
 448 736 l 2
 465.197804964 736 482.020207995 734.502909359 498.282460475 731.333651872 c 0
 581.790623457 715.059223033 641.829293495 650.943442586 641.829293495 557.575578862 c 0
 641.829293495 542.685316611 640.302286902 527.051065128 637.099943385 510.748225407 c 0
 610.195169049 373.778465152 495.583605197 304 381 304 c 2
 180.15058733 304 l 1
EndSplineSet
EndChar

StartChar: Q
Encoding: 81 81 49
Width: 736
VWidth: 0
Flags: HW
HStem: 40 656<282.729 453.271>
VStem: 120 496<233.016 502.984>
AnchorPoint: "above" 451 784 basechar 0
LayerCount: 2
Fore
SplineSet
340.970199269 194.910950444 m 0
 349.913472918 209.641048217 366.005260889 217.851122999 382.336561083 217.851122999 c 0
 390.782514908 217.851122999 399.292528236 215.655271357 406.910950444 211.029800731 c 0
 432.177383532 195.689466355 448.293656309 180.557039507 458.455389547 166.069966984 c 1
 509.580265936 217.741599919 551.875822376 291.658401216 568.922150351 377.363550206 c 0
 574.249727474 404.149424072 576.702055281 429.331122288 576.702055281 452.728381765 c 0
 576.702055281 562.498205657 522.724342912 632.99109408 458.44198593 645.59214557 c 0
 450.442744145 647.160209691 441.988190932 648 433 648 c 0
 329.503904178 648 200.309853839 525.719581972 167.077849649 358.636449794 c 0
 161.750272526 331.850575928 159.297944719 306.668877712 159.297944719 283.271618235 c 0
 159.297944719 173.501794343 213.275657088 103.00890592 277.55801407 90.4078544302 c 0
 285.557255855 88.8397903091 294.011809068 88 303 88 c 0
 320.918878003 88 339.608077909 91.6654779018 358.436194234 98.5943307382 c 1
 356.332782373 116.673832779 357.089049556 128.970199269 357.089049556 128.970199269 c 1
 342.358212172 137.913921967 334.14894172 154.005690209 334.14894172 170.33641651 c 0
 334.14894172 178.782624708 336.344864825 187.292752535 340.970199269 194.910950444 c 0
482.282892901 57.1010367489 m 1
 486.841715874 54.0235771769 493.473178372 51.8259391705 503.010567795 50.622190991 c 0
 526.987507913 47.595975248 544.990322678 26.5025872458 544.990322678 2.84049326741 c 0
 544.990322678 0.904505479515 544.869808181 -1.0486777476 544.622190991 -3.01056779498 c 0
 541.595762387 -26.9891944252 520.501037541 -44.9903065017 496.840275519 -44.9903065017 c 0
 494.90434248 -44.9903065017 492.951230906 -44.8697966523 490.989432205 -44.622190991 c 0
 443.481334822 -38.6260233601 412.754301921 -17.564745612 392.903984222 7.92642038048 c 1
 363.940984804 -2.39960594658 333.791703024 -8 303 -8 c 1
 287.999864084 -8 273.309214493 -6.58634968174 259.090928514 -3.7991875096 c 0
 132.200121162 21.0747852577 63.7499465765 143.644977515 63.7499465765 285.811140333 c 0
 63.7499465765 315.70423712 66.7763296097 346.463729255 72.9221503514 377.363550206 c 0
 111.690146161 572.280418028 262.496095822 744 433 744 c 0
 448.000135916 744 462.690785507 742.586349682 476.909071486 739.79918751 c 0
 603.799878838 714.925214742 672.250053423 592.355022485 672.250053423 450.188859667 c 0
 672.250053423 420.29576288 669.22367039 389.536270745 663.077849649 358.636449794 c 0
 638.906328852 237.107414679 571.180971158 124.596134437 482.282892901 57.1010367489 c 1
EndSplineSet
EndChar

StartChar: R
Encoding: 82 82 50
Width: 704
VWidth: 0
Flags: HW
AnchorPoint: "above" 435 784 basechar 0
LayerCount: 2
Fore
SplineSet
205.75058733 432 m 1
 411 432 l 2
 494.319064041 432 553.446490974 461.488167694 569.900056615 545.251774593 c 0
 572.444329899 558.204438583 573.6906956 569.223980156 573.6906956 578.640168849 c 0
 573.6906956 617.348356073 552.62863542 628.961835222 514.085011997 636.388943933 c 0
 501.835781329 638.74929202 487.586445062 640 472 640 c 2
 247.35058733 640 l 1
 205.75058733 432 l 1
186.55058733 336 m 1
 127.067872433 38.5864255134 l 2
 122.553090091 16.0125138044 102.077145511 0.0245448649932 79.7480227462 0.0245448649932 c 0
 76.7165465063 0.0245448649932 73.6509130718 0.319230055154 70.5864255134 0.932127566836 c 0
 48.0140532212 5.44660202528 32.0245116922 25.9215106285 32.0245116922 48.2517320898 c 0
 32.0245116922 51.2832494966 32.319204871 54.3489610072 32.9321275668 57.4135744866 c 2
 101.840103027 401.953451787 l 1
 160.932127567 697.413574487 l 2
 165.665182392 721.078848612 188.774845704 736 208 736 c 2
 472 736 l 2
 492.605248229 736 512.771022864 734.408176159 532.249439108 730.654810437 c 0
 608.9583591 715.87349417 668.613035874 660.561480184 668.613035874 571.07752463 c 0
 668.613035874 557.123957026 667.1625127 542.339487373 664.099943385 526.748225407 c 0
 643.132669498 420.005740164 570.412850197 365.246632626 488.944947421 345.178442256 c 1
 554.780173691 58.7524578334 l 2
 555.58327724 55.2584358991 555.967831874 51.75102358 555.967831874 48.2844867964 c 0
 555.967831874 26.4695656092 540.73875004 6.27339198059 518.752457833 1.21982630921 c 0
 515.258572797 0.416754226302 511.751235037 0.0322082405888 508.284726887 0.0322082405888 c 0
 486.470827077 0.0322082405888 466.273731428 15.2597731449 461.219826309 37.2475421666 c 2
 392.551350927 336 l 1
 186.55058733 336 l 1
EndSplineSet
EndChar

StartChar: S
Encoding: 83 83 51
Width: 672
VWidth: 0
Flags: HW
AnchorPoint: "bottom" 271 40 basechar 0
AnchorPoint: "above" 419 784 basechar 0
LayerCount: 2
Fore
SplineSet
583.463664139 528.437188415 m 0
 581.262339552 528.138034048 579.084327837 527.992686707 576.938385953 527.992686707 c 0
 553.234947312 527.992686707 533.444271043 545.726163217 529.367758604 569.792339962 c 0
 528.771748099 573.054289345 519.125495265 648 401 648 c 0
 301.959038072 648 230.916553416 599.505580354 218.077304863 534.633587663 c 0
 217.785970294 533.176914817 217.564958847 531.927511759 217.356077176 530.571764915 c 0
 216.699836451 526.312433361 216.058995398 521.487361447 216.058995398 516.290917958 c 0
 216.058995398 488.813635114 233.976828048 450.952851251 362.2800405 431.444760469 c 0
 368.739970856 430.444513188 374.766506136 429.403416179 380.801812878 428.250103045 c 0
 519.8841321 401.67225499 572.549950427 322.194445322 572.549950427 242.494231355 c 0
 572.549950427 230.553316728 571.367766504 218.607409816 569.116904153 206.833668283 c 0
 544.852584292 84.2349995166 425.548538 -8 271 -8 c 0
 77.4448609727 -8 34.8529627487 150.548230907 33.1867698702 157.363335613 c 0
 32.4471340641 160.884281089 32.0927012061 164.376021811 32.0927012061 167.798171819 c 0
 32.0927012061 190.053741378 47.0831045217 209.366037332 68.6004543733 214.626712939 c 0
 72.3658050736 215.547285813 76.1528969781 215.99052014 79.8935696188 215.99052014 c 0
 100.822022654 215.99052014 120.29745065 202.11631097 126.382863372 180.34058801 c 0
 128.065049351 174.300958765 150.560344782 88 271 88 c 0
 388.161707803 88 460.668307791 154.943553419 474.879486643 225.145512934 c 0
 476.430016006 233.412489204 477.691841437 241.889512149 477.691841437 250.34056186 c 0
 477.691841437 283.532266695 458.227617925 316.323322749 360.343745359 334.414740503 c 0
 356.291204586 335.163752635 351.940546997 335.901729209 347.7199595 336.555239531 c 0
 185.952762566 361.151421521 120.55686535 438.406172477 120.55686535 520.532623965 c 0
 120.55686535 528.71915968 121.206672832 536.954103132 122.475606885 545.190121776 c 0
 122.904238848 547.972158268 123.392158369 550.713728495 123.932127567 553.413574487 c 0
 149.075729875 680.454933518 276.043605628 744 401 744 c 0
 596.032056818 744 624.913402193 591.655171222 624.913402193 576.889548754 c 0
 624.913402193 553.936593374 608.246560911 531.80512054 583.463664139 528.437188415 c 0
EndSplineSet
EndChar

StartChar: T
Encoding: 84 84 52
Width: 688
VWidth: 0
Flags: HW
AnchorPoint: "bottom" 280 48 basechar 0
AnchorPoint: "above" 427 784 basechar 0
LayerCount: 2
Fore
SplineSet
112 688 m 0
 112 714.144471708 133.853633925 736 160 736 c 2
 656 736 l 2
 682.144471708 736 704 714.146366075 704 688 c 0
 704 661.853633925 682.144471708 640 656 640 c 2
 446.785014644 640 l 1
 327.076367114 38.6289990227 l 2
 322.579471704 16.0382960935 302.096023318 0.0242845079472 279.749352288 0.0242845079472 c 0
 276.731619122 0.0242845079472 273.679907725 0.316320338289 270.628999023 0.923632885668 c 0
 248.036754726 5.42083512021 232.024317459 25.9053231521 232.024317459 48.2508928992 c 0
 232.024317459 51.2685845623 232.31634533 54.3202178248 232.923632886 57.3710009773 c 2
 348.901505732 640 l 1
 160 640 l 2
 133.853633925 640 112 661.855528292 112 688 c 0
EndSplineSet
EndChar

StartChar: U
Encoding: 85 85 53
Width: 712
VWidth: 0
Flags: HW
AnchorPoint: "above" 439 784 basechar 0
LayerCount: 2
Fore
SplineSet
641.375211249 735.075528824 m 0
 663.964102229 730.576893756 679.97569307 710.094289012 679.97569307 687.749244943 c 0
 679.97569307 684.730148716 679.68339499 681.677052904 679.075528824 678.624788751 c 2
 585.090309969 206.699008972 l 2
 560.452275032 80.915356922 426.400544079 -8 291 -8 c 0
 272.117682994 -8 253.833151002 -6.2635486789 236.343280061 -2.8839109151 c 0
 137.97426234 16.1243280939 63.1801883225 91.1661718045 63.1801883225 187.577193351 c 0
 63.1801883225 199.830345544 64.3883066599 212.428665399 66.9096900306 225.300991028 c 2
 160.924471176 697.375211249 l 2
 165.423106244 719.964102229 185.905710988 735.97569307 208.250755057 735.97569307 c 0
 211.269851284 735.97569307 214.322947096 735.68339499 217.375211249 735.075528824 c 0
 239.965643403 730.576586827 255.975660097 710.0929428 255.975660097 687.748999757 c 0
 255.975660097 684.729945 255.683369979 681.676927317 255.075528824 678.624788751 c 2
 161.090309969 206.699008972 l 2
 159.808631118 200.15570115 159.171467453 193.692072534 159.171467453 187.361413314 c 0
 159.171467453 142.012166904 191.867366126 103.486212674 254.556819479 91.3724786925 c 0
 265.820820853 89.1958906239 278.004056137 88 291 88 c 0
 389.599455921 88 477.547724968 157.084643078 490.909690031 225.300991028 c 2
 584.924471176 697.375211249 l 2
 589.423413173 719.965643403 609.9070572 735.975660097 632.251000243 735.975660097 c 0
 635.270055 735.975660097 638.323072683 735.683369979 641.375211249 735.075528824 c 0
EndSplineSet
EndChar

StartChar: V
Encoding: 86 86 54
Width: 688
VWidth: 0
Flags: HW
AnchorPoint: "above" 427 784 basechar 0
LayerCount: 2
Fore
SplineSet
151.725744076 735.281462423 m 0
 154.422562932 735.753405723 157.114363754 735.981184102 159.777800101 735.981184102 c 0
 182.548680782 735.981184102 203.246320661 719.332208853 207.281462423 696.274255924 c 2
 300.173079227 165.465017049 l 1
 614.388497453 711.926613964 l 2
 623.181532355 727.218848576 639.625803686 735.859375338 656.355720378 735.859375338 c 0
 664.421417136 735.859375338 672.553507062 733.851039015 679.926613964 729.611502547 c 0
 695.219639108 720.818013089 703.859307582 704.373717033 703.859307582 687.644389797 c 0
 703.859307582 679.578462445 701.850914404 671.446276223 697.611502547 664.073386036 c 2
 329.611502547 24.0733860356 l 2
 322.345769799 11.4373290835 305.758165249 0 288 0 c 2
 272 0 l 2
 251.125923043 0 228.862107647 16.0482008169 224.718537577 39.7257440759 c 2
 112.718537577 679.725744076 l 2
 112.246574066 682.422678424 112.01878863 685.114557693 112.01878863 687.778042823 c 0
 112.01878863 710.550094217 128.669381845 731.246599033 151.725744076 735.281462423 c 0
EndSplineSet
EndChar

StartChar: W
Encoding: 87 87 55
Width: 872
VWidth: 0
Flags: HW
AnchorPoint: "above" 519 784 basechar 0
LayerCount: 2
Fore
SplineSet
157.005842265 735.906523767 m 0
 157.983169795 735.967606738 158.956404629 735.997716552 159.924567994 735.997716552 c 0
 184.805289027 735.997716552 206.336645659 716.11220747 207.906523767 690.994157735 c 2
 237.532857849 216.972812431 l 1
 452.024447925 707.239304033 l 2
 459.91663193 725.278581759 479.402286133 736 496 736 c 2
 504 736 l 2
 530.055865451 736 551.054512971 714.11267125 551.966285554 689.798735708 c 2
 569.664820887 217.837793483 l 1
 796.433902043 708.149320305 l 2
 804.469478837 725.523540402 822.173158992 735.893007544 840.39436245 735.893007544 c 0
 847.059384691 735.893007544 853.793650429 734.505595275 860.149320305 731.566097957 c 0
 877.524531482 723.530062788 887.892935926 705.826153166 887.892935926 687.605614219 c 0
 887.892935926 680.940451473 886.505506157 674.206156883 883.566097957 667.850679695 c 2
 587.566097957 27.8506796947 l 2
 581.031804008 13.7224765598 563.542223511 0 544 0 c 2
 528 0 l 2
 503.668974729 0 481.010123104 20.1637000709 480.033714446 46.2012642917 c 2
 463.263089678 493.417924773 l 1
 259.975552075 28.7606959671 l 2
 253.322875756 13.5545786656 235.690152596 0 216 0 c 2
 200 0 l 2
 177.723623124 0 153.740565723 18.6524104264 152.093476233 45.0058422646 c 2
 112.093476233 685.005842265 l 2
 110.462510728 711.101290344 130.912284863 734.27567643 157.005842265 735.906523767 c 0
EndSplineSet
EndChar

StartChar: X
Encoding: 88 88 56
Width: 632
VWidth: 0
Flags: HW
AnchorPoint: "above" 399 784 basechar 0
LayerCount: 2
Fore
SplineSet
0.138399102568 12.0996046226 m 0
 -10.4160610596 21.4666880166 -15.8098027853 34.7662291578 -15.8098027853 48.0992361827 c 0
 -15.8098027853 59.4681057529 -11.8881557833 70.8613074823 -3.90039537739 79.8616008974 c 2
 258.778862902 375.838229945 l 1
 116.853932584 666.966292135 l 2
 113.634794709 673.569651879 112.114998772 680.624441044 112.114998772 687.609811931 c 0
 112.114998772 705.486427746 122.068524724 722.908405803 138.966292135 731.146067416 c 0
 145.569454115 734.365108881 152.624287225 735.884929446 159.60981927 735.884929446 c 0
 177.485790736 735.884929446 194.907945755 725.932418963 203.146067416 709.033707865 c 2
 327.713408357 453.510957217 l 1
 564.099604623 719.861600897 l 2
 573.466688017 730.41606106 586.766229158 735.809802785 600.099236183 735.809802785 c 0
 611.468105753 735.809802785 622.861307482 731.888155783 631.861600897 723.900395377 c 0
 642.416476059 714.532943671 647.809782961 701.233614704 647.809782961 687.901087956 c 0
 647.809782961 676.531809406 643.887887433 665.138390151 635.900395377 656.138399103 c 2
 373.221137098 360.161770055 l 1
 515.146067416 69.0337078652 l 2
 518.365108881 62.4305458848 519.884929446 55.3757127752 519.884929446 48.3901807299 c 0
 519.884929446 30.5142092636 509.932418963 13.0920542447 493.033707865 4.85393258427 c 0
 486.430348121 1.63479470885 479.375558956 0.114998771584 472.390188069 0.114998771584 c 0
 454.513572254 0.114998771584 437.091594197 10.0685247237 428.853932584 26.9662921348 c 2
 304.286591643 282.489042783 l 1
 67.9003953774 16.1383991026 l 2
 58.5329436712 5.58352394063 45.2336147038 0.190217038671 31.9010879555 0.190217038671 c 0
 20.5318094056 0.190217038671 9.13839015117 4.11211256698 0.138399102568 12.0996046226 c 0
EndSplineSet
EndChar

StartChar: Y
Encoding: 89 89 57
Width: 656
VWidth: 0
Flags: HW
AnchorPoint: "middle" 328 368 basechar 0
AnchorPoint: "above" 411 784 basechar 0
LayerCount: 2
Fore
SplineSet
136.467460498 729.835625782 m 0
 143.739581206 733.926193681 151.722178188 735.862697971 159.637769447 735.862697971 c 0
 176.525347851 735.862697971 193.10794023 727.048424929 201.835625782 711.532539502 c 2
 341.207987515 463.759451977 l 1
 589.439359761 721.310090757 l 2
 598.734393053 730.954084344 611.378111999 735.807116221 624.031130938 735.807116221 c 0
 636.075877209 735.807116221 648.129050802 731.409471512 657.310090757 722.560640239 c 0
 666.954442534 713.265261717 671.807110012 700.621766112 671.807110012 687.969205223 c 0
 671.807110012 675.924022813 667.409158635 663.870624575 658.560640239 654.689909243 c 2
 375.322426529 360.818178977 l 1
 311.073253144 38.6133691647 l 2
 306.569900893 16.0293936957 286.089585358 0.0243677945684 263.748953906 0.0243677945684 c 0
 260.726160495 0.0243677945684 257.669309586 0.317377783936 254.613369165 0.926746855965 c 0
 232.027853044 5.43040632046 216.024400827 25.9117601534 216.024400827 48.2512912739 c 0
 216.024400827 51.2740433045 216.317402846 54.3308161008 216.926746856 57.3866308353 c 2
 280.451277329 375.957410522 l 1
 118.164374218 664.467460498 l 2
 114.073686021 671.73979507 112.137233298 679.722303042 112.137233298 687.637673241 c 0
 112.137233298 704.525847717 120.9523862 721.108396489 136.467460498 729.835625782 c 0
EndSplineSet
EndChar

StartChar: Z
Encoding: 90 90 58
Width: 632
VWidth: 0
Flags: HW
AnchorPoint: "above" 399 784 basechar 0
LayerCount: 2
Fore
SplineSet
120 688 m 0
 120 714.144471708 141.853633925 736 168 736 c 2
 592 736 l 2
 618.354847908 736 639.996663789 713.865582227 639.996663789 687.910164833 c 0
 639.996663789 675.36354089 632.230872211 661.08571124 628.123681346 656.391778822 c 2
 137.780874876 96 l 1
 472 96 l 2
 498.144471708 96 520 74.1463660754 520 48 c 0
 520 21.8536339246 498.144471708 0 472 0 c 2
 32 0 l 2
 24.6182259756 0 11.736180909 3.24025326488 3.3233701726 9.5077812832 c 0
 -9.2334269853 18.862571314 -15.7880993253 33.4891712937 -15.7880993253 48.1863516805 c 0
 -15.7880993253 59.3866244274 -11.9814739797 70.6278867391 -4.12368134593 79.6082211777 c 2
 486.219125124 640 l 1
 168 640 l 2
 141.853633925 640 120 661.855528292 120 688 c 0
EndSplineSet
EndChar

StartChar: bracketleft
Encoding: 91 91 59
Width: 312
VWidth: 0
Flags: HW
LayerCount: 2
Fore
SplineSet
360 768 m 0
 360 741.855528292 338.146366075 720 312 720 c 2
 231.35058733 720 l 1
 90.5505873305 16 l 1
 152 16 l 2
 178.144471708 16 200 -5.85363392464 200 -32 c 0
 200 -58.1463660754 178.144471708 -80 152 -80 c 2
 32 -80 l 2
 12.5034119753 -80 -15.9951633659 -60.832980541 -15.9951633659 -31.7690469755 c 0
 -15.9951633659 -28.8076546145 -15.6992897296 -25.7435119958 -15.0678724332 -22.5864255134 c 2
 144.932127567 777.413574487 l 2
 148.702490525 796.265389276 167.866061088 816 192 816 c 2
 312 816 l 2
 338.146366075 816 360 794.144471708 360 768 c 0
EndSplineSet
EndChar

StartChar: backslash
Encoding: 92 92 60
Width: 576
VWidth: 0
Flags: HW
LayerCount: 2
Fore
SplineSet
415.856820387 2.69479889443 m 0
 410.765959409 0.912997552146 405.540129747 0.0693874934811 400.375850666 0.0693874934811 c 0
 380.507575718 0.0693874934811 361.550331585 12.5559433541 354.694798894 32.1431796131 c 2
 130.694798894 672.143179613 l 2
 128.912997552 677.234040591 128.069387493 682.459870253 128.069387493 687.624149334 c 0
 128.069387493 707.492424282 140.555943354 726.449668415 160.143179613 733.305201106 c 0
 165.234210173 735.087061802 170.460073297 735.930675303 175.624303408 735.930675303 c 0
 195.493369849 735.930675303 214.450095369 723.442836778 221.305201106 703.856820387 c 2
 445.305201106 63.8568203869 l 2
 447.087061802 58.7657898266 447.930675303 53.5399267025 447.930675303 48.3756965917 c 0
 447.930675303 28.5066301514 435.442836778 9.54990463144 415.856820387 2.69479889443 c 0
EndSplineSet
EndChar

StartChar: bracketright
Encoding: 93 93 61
Width: 312
VWidth: 0
Flags: HW
LayerCount: 2
Fore
SplineSet
112 768 m 0
 112 794.144471708 133.853633925 816 160 816 c 2
 280 816 l 2
 308.20975741 816 327.889986412 791.211689748 327.889986412 767.000490283 c 0
 327.889986412 764.174493552 327.621859228 761.356359489 327.067872433 758.586425513 c 2
 167.067872433 -41.4135744866 l 2
 162.334817608 -65.0788486118 139.225154296 -80 120 -80 c 2
 0 -80 l 2
 -26.1444717079 -80 -48 -58.1463660754 -48 -32 c 0
 -48 -5.85363392464 -26.1444717079 16 0 16 c 2
 80.6494126695 16 l 1
 221.44941267 720 l 1
 160 720 l 2
 133.853633925 720 112 741.855528292 112 768 c 0
EndSplineSet
EndChar

StartChar: asciicircum
Encoding: 94 94 62
Width: 512
VWidth: 0
Flags: HW
LayerCount: 2
Fore
SplineSet
98.0146377174 410.518297147 m 0
 86.2999142036 419.890075958 80.1830452847 433.998538016 80.1830452847 448.179429833 c 0
 80.1830452847 458.711764398 83.5572496162 469.284052869 90.5182971467 477.985362283 c 2
 282.518297147 717.985362283 l 2
 291.921809397 729.739752595 306.00340773 735.7826757 320.127983264 735.7826757 c 0
 331.892902557 735.7826757 343.687638938 731.590165173 352.833637325 723.013601072 c 0
 357.953564571 718.212442974 362.97101746 709.816411722 364.566881162 705.826752465 c 2
 460.566881162 465.826752465 l 2
 462.839946422 460.144089315 463.91373848 454.234868898 463.91373848 448.392011428 c 0
 463.91373848 429.276037055 452.419969015 410.870405457 433.826752465 403.433118838 c 0
 428.143909182 401.159981524 422.234681312 400.08619315 416.391912644 400.08619315 c 0
 397.275211553 400.08619315 378.869959249 411.581146506 371.433118838 430.173247535 c 2
 306.024942794 593.693687643 l 1
 165.481702853 418.014637717 l 2
 156.109528091 406.299419264 142.001248454 400.183080943 127.820862456 400.183080943 c 0
 117.288157082 400.183080943 106.715670556 403.557470876 98.0146377174 410.518297147 c 0
EndSplineSet
EndChar

StartChar: underscore
Encoding: 95 95 63
Width: 576
VWidth: 0
Flags: HW
LayerCount: 2
Fore
SplineSet
-92 -96 m 0
 -92 -69.8555282921 -70.1463660754 -48 -44 -48 c 2
 436 -48 l 2
 462.144471708 -48 484 -69.8536339246 484 -96 c 0
 484 -122.146366075 462.144471708 -144 436 -144 c 2
 -44 -144 l 2
 -70.1463660754 -144 -92 -122.144471708 -92 -96 c 0
EndSplineSet
EndChar

StartChar: grave
Encoding: 96 96 64
Width: 384
VWidth: 0
Flags: HW
LayerCount: 2
Fore
SplineSet
152.315141721 729.749580696 m 0
 159.626378738 733.897301696 167.666682389 735.86138228 175.640256291 735.86138228 c 0
 192.466752691 735.86138228 208.996081917 727.114754431 217.749580696 711.684858279 c 2
 335.749580696 503.684858279 l 2
 339.897301696 496.373621262 341.86138228 488.333317611 341.86138228 480.359743709 c 0
 341.86138228 463.533247309 333.114754431 447.003918083 317.684858279 438.250419304 c 0
 310.373406308 434.102576359 302.333194482 432.13854935 294.359845323 432.13854935 c 0
 277.532755437 432.13854935 261.003462447 440.886048723 252.250419304 456.315141721 c 2
 134.250419304 664.315141721 l 2
 130.102576359 671.626593692 128.13854935 679.666805518 128.13854935 687.640154677 c 0
 128.13854935 704.467244563 136.886048723 720.996537553 152.315141721 729.749580696 c 0
EndSplineSet
EndChar

StartChar: a
Encoding: 97 97 65
Width: 588
VWidth: 0
Flags: HW
AnchorPoint: "above" 335 576 basechar 0
LayerCount: 2
Fore
SplineSet
475.371658151 527.076236293 m 0
 497.962078268 522.579069325 513.975711993 502.095752609 513.975711993 479.749335531 c 0
 513.975711993 476.731389609 513.683635236 473.679462123 513.076236293 470.628341849 c 2
 427.076236293 38.6283418491 l 2
 422.579069325 16.0379217315 402.095752609 0.0242880070445 379.749335531 0.0242880070445 c 0
 376.731389609 0.0242880070445 373.679462123 0.316364763655 370.628341849 0.923763707124 c 0
 355.283628005 3.97849840759 342.974406476 14.4084278773 336.656140807 27.787348383 c 1
 304.222441544 7.35589467748 223.690500136 -8.47572670659 218.280573766 -8.47572670659 c 0
 217.7453628 -8.47572670659 217.945400976 -8.32077630983 219 -8 c 1
 102.924007914 -8 33.3223863525 94.9765900549 33.3223863525 208.868107967 c 0
 33.3223863525 209.179226754 33.3239449777 209.49042699 33.3239449777 209.8017068 c 0
 33.392926757 230.463557658 35.5710822159 251.783081439 39.9467788069 273.486536531 c 0
 67.9988300048 412.624710472 178.821646858 536 308 536 c 0
 352.537739389 536 390.574745141 520.369324857 420.302336586 494.660910872 c 1
 426.709585007 514.422315381 445.692645283 527.975679047 466.250909625 527.975679047 c 0
 469.26881406 527.975679047 472.320663423 527.683610247 475.371658151 527.076236293 c 0
358.826888696 187.48968135 m 1
 392.658164254 357.432832989 l 1
 381.355083284 413.440254504 348.674306349 440 308 440 c 0
 243.178353142 440 156.001169995 363.375289528 134.053221193 254.513463469 c 0
 130.865892574 238.704313519 129.370578645 223.609459784 129.32340996 209.48120241 c 0
 129.32340996 209.220122929 129.322103091 208.959463874 129.322103091 208.699225248 c 0
 129.322103091 128.270757135 170.893272724 88 219 88 c 0
 264.127898518 88 321.379353955 124.020940769 358.826888696 187.48968135 c 1
EndSplineSet
EndChar

StartChar: b
Encoding: 98 98 66
Width: 588
VWidth: 0
Flags: HW
LayerCount: 2
Fore
SplineSet
217.430211534 735.064541966 m 0
 239.995415361 730.543205169 255.97539925 710.071639221 255.97539925 687.747844806 c 0
 255.97539925 684.710940002 255.679664291 681.639756772 255.064541966 678.569788466 c 2
 220.601822141 506.572361086 l 1
 253.702558885 525.175298795 290.075626804 536 328 536 c 0
 340.015745722 536 351.822622058 534.850438854 363.262728844 532.572422214 c 0
 460.925601025 513.125256897 512.510350589 421.508080282 512.510350589 318.39259927 c 0
 512.510350589 297.405358005 510.373450128 275.941798987 506.053221193 254.513463469 c 0
 478.057949741 115.656917065 368.358283502 -8 239 -8 c 0
 191.37604819 -8 150.867355241 9.86965670152 120.016436187 38.9241987215 c 1
 117.766221244 32.9033529397 116.225939744 29.3358427171 115.700024291 28.1272757876 c 0
 107.16700122 10.1499432495 89.7952041627 0.0176555606532 71.8655500243 0.0176555606532 c 0
 65.4719105504 0.0176555606532 59.0073336525 1.30608302907 52.8473168923 3.98665282242 c 0
 35.053185181 11.7298804499 24.0967255083 29.4352785507 24.0967255083 48.1968481274 c 0
 24.0967255083 54.1401289024 25.1961980906 60.1893956998 27.5260736987 66.061539386 c 0
 28.8350353857 69.1700198299 40.2979046177 96.1384872344 51.9479507719 153.492560609 c 2
 160.935458034 697.430211534 l 2
 165.457103127 719.996954014 185.929703619 735.975365991 208.252400346 735.975365991 c 0
 211.289264116 735.975365991 214.360369294 735.679639032 217.430211534 735.064541966 c 0
187.407012735 340.902853591 m 1
 153.31104512 170.735822557 l 1
 164.559379869 115.056911855 218.510291366 107.783563706 239 88 c 1
 303.641716498 88 389.942050259 164.343082935 411.946778807 273.486536531 c 0
 415.40427742 290.635729654 416.97623957 306.54576312 416.97623957 321.175006072 c 0
 416.97623957 390.456402782 381.720352311 431.012294896 344.514758028 438.420876341 c 0
 339.393534993 439.440642285 333.917027387 440 328 440 c 0
 282.802979193 440 224.749777106 403.857524873 187.407012735 340.902853591 c 1
EndSplineSet
EndChar

StartChar: c
Encoding: 99 99 67
Width: 528
VWidth: 0
Flags: HW
AnchorPoint: "middle" 259 264 basechar 0
AnchorPoint: "bottom" 215 40 basechar 0
AnchorPoint: "above" 321 576 basechar 0
LayerCount: 2
Fore
SplineSet
401.473553826 172.642680193 m 0
 414.106214192 163.334404134 420.825224148 148.604980106 420.825224148 133.763981357 c 0
 420.825224148 123.877823332 417.843728883 113.942155109 411.642680193 105.526446174 c 0
 363.712747786 40.4786807647 293.781866229 -8 215 -8 c 0
 203.367588163 -8 191.925865752 -6.88852657839 180.831078104 -4.68583199566 c 0
 84.0106739066 14.5363276869 33.4129584627 106.090223844 33.4129584627 208.832864547 c 0
 33.4129584627 230.085727375 35.5779905584 251.817346818 39.9467788069 273.486536531 c 0
 67.8466199991 411.869748844 176.096741828 536 304 536 c 0
 377.862481228 536 435.62855226 490.381197621 463.788937612 427.660339336 c 0
 466.579968885 421.443951501 467.89735803 414.885300739 467.89735803 408.395474692 c 0
 467.89735803 389.985378194 457.29603426 372.129129497 439.660339336 364.211062388 c 0
 433.443761528 361.419945821 426.885131541 360.102570705 420.395434777 360.102570705 c 0
 401.984661829 360.102570705 384.128672743 370.704983055 376.211062388 388.339660664 c 0
 360.37144774 423.618802379 336.137518772 440 304 440 c 0
 241.903258172 440 156.153380001 364.130251156 134.053221193 254.513463469 c 0
 130.543026012 237.102895371 128.954517147 220.982238161 128.954517147 206.188937397 c 0
 128.954517147 136.730772773 163.97370543 96.5346074307 199.525492305 89.4763625288 c 0
 204.328531132 88.5227951474 209.457270594 88 215 88 c 0
 252.218133771 88 298.287252214 113.521319235 334.357319807 162.473553826 c 0
 343.666011435 175.106778179 358.395289292 181.825177574 373.235762811 181.825177574 c 0
 383.122258631 181.825177574 393.058103308 178.843538469 401.473553826 172.642680193 c 0
EndSplineSet
EndChar

StartChar: d
Encoding: 100 100 68
Width: 592
VWidth: 0
Flags: HW
AnchorPoint: "above" 379 784 basechar 0
LayerCount: 2
Fore
SplineSet
521.430211534 735.064541966 m 0
 543.995415361 730.543205169 559.97539925 710.071639221 559.97539925 687.747844806 c 0
 559.97539925 684.710940002 559.679664291 681.639756772 559.064541966 678.569788466 c 2
 450.052049228 134.507439391 l 2
 441.031253903 90.0973700987 439.873120222 65.4091256613 439.873120222 54.6539187219 c 0
 439.873120222 50.9007193388 440.008501682 49.9031542233 440.008501682 47.7324508608 c 0
 440.008501682 23.3438580962 419.953567705 1.58491150315 394.86344793 0.0854858528965 c 0
 393.900713015 0.0279512759961 392.941942037 -0.000481041968494 391.988072952 -0.000481041968494 c 0
 371.803057099 -0.000481041968494 353.813091822 12.7314099067 346.906177591 31.8468909128 c 1
 313.162322393 9.26232654776 227.988074348 -8.57453321588 222.156923535 -8.57453321588 c 0
 221.560131857 -8.57453321588 221.79442647 -8.38769945026 223 -8 c 1
 106.924007914 -8 37.3223863525 94.9765900549 37.3223863525 208.868107967 c 0
 37.3223863525 230.037298635 39.499748493 251.429266174 43.9467788069 273.486536531 c 0
 71.9988300048 412.624710472 182.821646858 536 312 536 c 0
 356.539745799 536 394.578172238 520.367916511 424.306354191 494.657436387 c 1
 464.935458034 697.430211534 l 2
 469.457103127 719.996954014 489.929703619 735.975365991 512.252400346 735.975365991 c 0
 515.289264116 735.975365991 518.360369294 735.679639032 521.430211534 735.064541966 c 0
362.725458198 187.317918773 m 1
 396.734638994 357.051811921 l 1
 385.503085181 413.319803426 352.766433022 440 312 440 c 0
 247.178353142 440 160.001169995 363.375289528 138.053221193 254.513463469 c 0
 134.801537038 238.385110061 133.322103091 223.283776779 133.322103091 208.699225248 c 0
 133.322103091 128.270757135 174.893272724 88 223 88 c 0
 268.087173427 88 325.276032151 123.955956836 362.725458198 187.317918773 c 1
EndSplineSet
EndChar

StartChar: e
Encoding: 101 101 69
Width: 544
VWidth: 0
Flags: HW
AnchorPoint: "bottom" 207 40 basechar 0
AnchorPoint: "above" 313 576 basechar 0
LayerCount: 2
Fore
SplineSet
163.043982043 336 m 1
 378.478263662 336 l 1
 378.696627676 339.876472702 378.812618824 343.586190964 378.812618824 347.177567366 c 0
 378.812618824 364.84486087 376.00561474 379.648262684 368.770358005 397.351262512 c 0
 355.587194638 427.534846546 335.529252588 440 300 440 c 0
 256.503130452 440 199.753189642 403.691707688 163.043982043 336 c 1
131.610388496 240 m 1
 129.793754991 226.883155784 128.950107256 214.671649617 128.950107256 203.344242688 c 0
 128.950107256 129.728328944 164.582382448 93.4531986446 200.345173516 88.6890500382 c 0
 203.708872285 88.2409541171 207.251890157 88 211 88 c 0
 293.12857295 88 345.55403701 151.542778088 350.381237033 157.813248045 c 0
 359.188662503 168.910915695 373.788128264 175.627056854 388.707311389 175.627056854 c 0
 398.3631019 175.627056854 408.152814374 172.813825845 416.592905983 166.554451461 c 0
 429.373782317 157.075847005 435.615073002 142.527029451 435.615073002 128.01754724 c 0
 435.615073002 118.134498739 432.719380546 108.269700158 427.022263345 100.037880172 c 0
 423.260744609 94.9658776416 348.633629173 -8 211 -8 c 0
 199.900862911 -8 188.967454849 -6.98737564288 178.336049904 -4.96175797113 c 0
 82.323433657 13.3316710902 33.3116167563 103.127140155 33.3116167563 206.459371117 c 0
 33.3116167563 228.284789563 35.4981412579 250.714112607 39.8901396923 273.201144591 c 0
 42.9985925743 289.116423347 47.0561749577 304.602379951 51.9617135247 319.574657933 c 0
 91.1223801783 439.097596975 187.654265996 536 300 536 c 0
 366.643891904 536 428.180652243 502.430847793 457.230839928 434.647076528 c 0
 469.596818595 404.823245625 474.625621206 375.435800669 474.625621206 345.872339384 c 0
 474.625621206 323.507405591 471.747631321 301.041737436 466.991060147 278.210195803 c 0
 462.373308055 256.044985757 442.069973693 240 420 240 c 2
 131.610388496 240 l 1
EndSplineSet
EndChar

StartChar: f
Encoding: 102 102 70
Width: 376
VWidth: 0
Flags: HW
AnchorPoint: "above" 271 784 basechar 0
LayerCount: 2
Fore
SplineSet
58 480 m 0
 58 506.144471708 79.8536339246 528 106 528 c 2
 162.886011877 528 l 1
 183.914408547 633.324838976 l 2
 201.287801178 721.771201458 288.463117231 752 335 752 c 0
 358.985888611 752 375.564031896 747.1144337 378.923528957 746.234216129 c 0
 400.584224111 739.794592644 413.99765215 720.542956495 413.99765215 699.941687931 c 0
 413.99765215 695.928838812 413.488722776 691.864782233 412.432683271 687.834231457 c 0
 406.863529447 666.578627693 387.210044991 652.04820914 365.745001153 652.04820914 c 0
 362.249372413 652.04820914 358.705699622 652.433567839 355.166988557 653.237995836 c 0
 351.774965245 654.07629908 343.296177149 656 335 656 c 0
 317.536882769 656 282.712198822 638.228798542 278.085591453 614.675161024 c 2
 260.78065479 528 l 1
 314 528 l 2
 340.144471708 528 362 506.146366075 362 480 c 0
 362 453.853633925 340.144471708 432 314 432 c 2
 241.613988123 432 l 1
 163.071012906 38.6021415205 l 2
 158.562717143 16.0214601332 138.083616416 0.0244607991269 115.748422755 0.0244607991269 c 0
 112.722035406 0.0244607991269 109.661570433 0.318163613202 106.60214152 0.928987093974 c 0
 84.0230002703 5.43697536441 68.0244277082 25.9150387607 68.0244277082 48.2513320711 c 0
 68.0244277082 51.2777607121 68.3181385 54.3383037829 68.928987094 57.3978584795 c 2
 143.71934521 432 l 1
 106 432 l 2
 79.8536339246 432 58 453.855528292 58 480 c 0
EndSplineSet
EndChar

StartChar: g
Encoding: 103 103 71
Width: 588
VWidth: 0
Flags: HW
LayerCount: 2
Fore
SplineSet
493.152683108 524.013347178 m 0
 511.667280307 515.95660449 521.698808468 497.391286252 521.698808468 479.185038749 c 0
 521.698808468 473.274380168 520.641509132 467.401566793 518.473926301 461.938460614 c 0
 516.892048681 458.181868121 505.573061514 431.226269107 494.06331202 374.56288698 c 2
 418.102222374 -9.2405133338 l 2
 401.345575193 -95.4175559816 332.273308606 -192 214 -192 c 0
 141.442120672 -192 98.3678459132 -157.039664268 93.0319517766 -152.682391726 c 0
 81.7128701536 -142.804663406 76.0623768803 -129.289478605 76.0623768803 -115.832747007 c 0
 76.0623768803 -105.107616489 79.6516983249 -94.4196167709 86.8211800765 -85.639905318 c 0
 96.0807988783 -74.3006224997 109.352409287 -67.9557253458 123.398032465 -67.9557253458 c 0
 133.884961836 -67.9557253458 144.803373309 -71.4927594501 154.805558294 -79.1289363157 c 1
 154.805558294 -79.1289363157 178.480795452 -96 214 -96 c 0
 271.726691394 -96 312.654424807 -48.5824440184 323.897777626 9.2405133338 c 2
 326.347555007 21.6183358934 l 1
 293.379846875 2.91339796237 257.065232507 -8 219 -8 c 0
 102.924007914 -8 33.3223863525 94.9765900549 33.3223863525 208.868107967 c 0
 33.3223863525 230.037298635 35.499748493 251.429266174 39.9467788069 273.486536531 c 0
 67.9988300048 412.624710472 178.821646858 536 308 536 c 0
 355.488880269 536 395.586987069 518.229270474 426.101751864 489.419344353 c 1
 428.207723635 495.020626245 429.689018141 498.468728364 430.299975709 499.872724212 c 0
 438.266511955 516.656584994 455.920070049 527.883589177 474.61643463 527.883589177 c 0
 480.785156965 527.883589177 487.067401247 526.661395612 493.152683108 524.013347178 c 0
359.353814298 188.386803887 m 1
 392.735036411 357.04982088 l 1
 381.503857432 413.319174041 348.766913858 440 308 440 c 0
 243.178353142 440 156.001169995 363.375289528 134.053221193 254.513463469 c 0
 130.801537038 238.385110061 129.322103091 223.283776779 129.322103091 208.699225248 c 0
 129.322103091 128.270757135 170.893272724 88 219 88 c 0
 264.340092933 88 321.918022389 124.360482945 359.353814298 188.386803887 c 1
EndSplineSet
EndChar

StartChar: h
Encoding: 104 104 72
Width: 584
VWidth: 0
Flags: HW
AnchorPoint: "above" 375 784 basechar 0
LayerCount: 2
Fore
SplineSet
217.413574487 735.067872433 m 0
 239.985946779 730.553397975 255.975488308 710.078489371 255.975488308 687.74826791 c 0
 255.975488308 684.716750503 255.680795129 681.651038993 255.067872433 678.586425513 c 2
 219.847576926 502.484947978 l 1
 254.629960291 521.657253792 296.51603356 536 344 536 c 1
 427.152691252 536 488.249225491 469.084963454 488.249225491 383.538994599 c 0
 488.249225491 370.01714352 486.854799088 356.521058789 484.067872433 342.586425513 c 2
 423.061908829 38.5566564521 l 2
 418.534849693 15.9955748538 398.064890928 0.02470448278 375.747265958 0.02470448278 c 0
 372.70614939 0.02470448278 369.630724957 0.32125505651 366.556656452 0.938091170931 c 0
 343.997112905 5.46484168523 328.024671155 25.9337670371 328.024671155 48.2524888992 c 0
 328.024671155 51.2936463966 328.321229738 54.3691488638 328.938091171 57.4433435479 c 2
 389.932127567 361.413574487 l 2
 391.561747402 369.561673663 392.249521311 376.789746397 392.249521311 383.673356169 c 0
 392.249521311 423.619923328 371.226389369 440 344 440 c 0
 274.878227909 440 209.463126319 374.867059382 190.034182162 353.417974159 c 1
 127.067872433 38.5864255134 l 2
 122.553397975 16.0140532212 102.078489371 0.0245116921935 79.7482679102 0.0245116921935 c 0
 76.7167505034 0.0245116921935 73.6510389928 0.319204870956 70.5864255134 0.932127566836 c 0
 48.0125138044 5.44690990864 32.024544865 25.9228544887 32.024544865 48.2519772538 c 0
 32.024544865 51.2834534937 32.3192300552 54.3490869282 32.9321275668 57.4135744866 c 2
 160.932127567 697.413574487 l 2
 165.446909909 719.987486196 185.922854489 735.975455135 208.251977254 735.975455135 c 0
 211.283453494 735.975455135 214.349086928 735.680769945 217.413574487 735.067872433 c 0
EndSplineSet
EndChar

StartChar: i
Encoding: 105 105 73
Width: 288
VWidth: 0
Flags: HW
LayerCount: 2
Fore
SplineSet
70.6283418491 0.923763707124 m 0
 48.0379217315 5.42093067498 32.024288007 25.9042473912 32.024288007 48.2506644686 c 0
 32.024288007 51.2686103909 32.3163647637 54.3205378767 32.9237637071 57.3716581509 c 2
 118.923763707 489.371658151 l 2
 123.420930675 511.962078268 143.904247391 527.975711993 166.250664469 527.975711993 c 0
 169.268610391 527.975711993 172.320537877 527.683635236 175.371658151 527.076236293 c 0
 197.963619606 522.578762485 213.975679038 502.094406179 213.975679038 479.749090344 c 0
 213.975679038 476.73118592 213.683610241 473.679336567 213.076236293 470.628341849 c 2
 127.076236293 38.6283418491 l 2
 122.578762485 16.0363803945 102.094406179 0.0243209615216 79.7490903442 0.0243209615216 c 0
 76.73118592 0.0243209615216 73.6793365674 0.31638975857 70.6283418491 0.923763707124 c 0
191.210195803 609.008939853 m 0
 168.800636316 613.677598079 153.026563548 634.07616951 153.026563548 656.261207576 c 0
 153.026563548 659.414659784 153.345273768 662.604206993 154.008939853 665.789804197 c 2
 164.008939853 713.789804197 l 2
 168.677598079 736.199363684 189.07616951 751.973436452 211.261207576 751.973436452 c 0
 214.414659784 751.973436452 217.604206993 751.654726232 220.789804197 750.991060147 c 0
 243.200885754 746.322084823 258.97340132 725.922509722 258.97340132 703.738547844 c 0
 258.97340132 700.58513366 258.654699328 697.395663869 257.991060147 694.210195803 c 2
 247.991060147 646.210195803 l 2
 243.322084823 623.799114246 222.922509722 608.02659868 200.738547844 608.02659868 c 0
 197.58513366 608.02659868 194.395663869 608.345300672 191.210195803 609.008939853 c 0
EndSplineSet
EndChar

StartChar: j
Encoding: 106 106 74
Width: 288
VWidth: 0
Flags: HW
LayerCount: 2
Fore
SplineSet
175.34699106 527.081140153 m 0
 197.948023451 522.594170487 213.975843165 502.105914812 213.975843165 479.749964892 c 0
 213.975843165 476.740004351 213.685300579 473.696187382 213.081140153 470.65300894 c 2
 105.074529838 -73.3802874648 l 2
 93.6842248706 -130.3318123 44.9044582057 -192 -38 -192 c 0
 -53.8957199651 -192 -63.5137685734 -188.889906659 -66.4540497266 -188.082770656 c 0
 -87.8556583648 -181.447575827 -100.997377605 -162.329889018 -100.997377605 -141.938098127 c 0
 -100.997377605 -137.74465002 -100.441621819 -133.497320781 -99.2876551 -129.293584875 c 0
 -93.6169784808 -108.636120047 -76.0034754807 -94.225183228 -53.1757898348 -94.225183228 c 0
 -48.750749854 -94.225183228 -44.1297817082 -94.7666886946 -39.3618963881 -95.9091686354 c 1
 -39.3618963881 -95.9091686354 -39.9816180806 -96 -38 -96 c 0
 -8.90244154249 -96 6.31016386663 -77.6962440144 10.9321275668 -54.5864255134 c 2
 118.918859847 489.34699106 l 2
 123.406135738 511.949565917 143.89543313 527.975810339 166.250280305 527.975810339 c 0
 169.260199155 527.975810339 172.303937958 527.685275696 175.34699106 527.081140153 c 0
191.210195803 609.008939853 m 0
 168.800636316 613.677598079 153.026563548 634.07616951 153.026563548 656.261207576 c 0
 153.026563548 659.414659784 153.345273768 662.604206993 154.008939853 665.789804197 c 2
 164.008939853 713.789804197 l 2
 168.677598079 736.199363684 189.07616951 751.973436452 211.261207576 751.973436452 c 0
 214.414659784 751.973436452 217.604206993 751.654726232 220.789804197 750.991060147 c 0
 243.200885754 746.322084823 258.97340132 725.922509722 258.97340132 703.738547844 c 0
 258.97340132 700.58513366 258.654699328 697.395663869 257.991060147 694.210195803 c 2
 247.991060147 646.210195803 l 2
 243.322084823 623.799114246 222.922509722 608.02659868 200.738547844 608.02659868 c 0
 197.58513366 608.02659868 194.395663869 608.345300672 191.210195803 609.008939853 c 0
EndSplineSet
EndChar

StartChar: k
Encoding: 107 107 75
Width: 528
VWidth: 0
Flags: HW
AnchorPoint: "above" 347 784 basechar 0
LayerCount: 2
Fore
SplineSet
371.456873165 2.55679289525 m 0
 366.488150654 0.866751224738 361.399472355 0.0660951263464 356.371115016 0.0660951263464 c 0
 336.350552876 0.0660951263464 317.286234271 12.7585691893 310.556792895 32.5431268351 c 2
 233.558354392 258.918536035 l 1
 157.475785601 190.625991352 l 1
 127.067872433 38.5864255134 l 2
 122.553090091 16.0125138044 102.077145511 0.0245448649932 79.7480227462 0.0245448649932 c 0
 76.7165465063 0.0245448649932 73.6509130718 0.319230055154 70.5864255134 0.932127566836 c 0
 48.0140532212 5.44660202528 32.0245116922 25.9215106285 32.0245116922 48.2517320898 c 0
 32.0245116922 51.2832494966 32.319204871 54.3489610072 32.9321275668 57.4135744866 c 2
 160.932127567 697.413574487 l 2
 165.446602025 719.985946779 185.921510629 735.975488308 208.25173209 735.975488308 c 0
 211.283249497 735.975488308 214.348961007 735.680795129 217.413574487 735.067872433 c 0
 239.987486196 730.553090091 255.975455135 710.077145511 255.975455135 687.748022746 c 0
 255.975455135 684.716546506 255.680769945 681.650913072 255.067872433 678.586425513 c 2
 188.92123676 347.85324715 l 1
 375.936869611 515.720521688 l 2
 384.965126767 523.824383913 396.44871414 527.809270147 407.909952385 527.809270147 c 0
 421.149769704 527.809270147 434.359763325 522.491655866 443.720521688 512.063130389 c 0
 451.824109831 503.03517858 455.809252154 491.551372219 455.809252154 480.089721095 c 0
 455.809252154 466.850381123 450.492062695 453.640601849 440.063130389 444.279478312 c 2
 311.242051412 328.648270902 l 1
 401.443207105 63.4568731649 l 2
 403.133305705 58.4879832804 403.933966268 53.3992668608 403.933966268 48.3709509702 c 0
 403.933966268 28.3495826947 391.240190007 9.28581222915 371.456873165 2.55679289525 c 0
EndSplineSet
EndChar

StartChar: l
Encoding: 108 108 76
Width: 288
VWidth: 0
Flags: HW
AnchorPoint: "above" 227 784 basechar 0
LayerCount: 2
Fore
SplineSet
217.430211534 735.064541966 m 0
 239.995415361 730.543205169 255.97539925 710.071639221 255.97539925 687.747844806 c 0
 255.97539925 684.710940002 255.679664291 681.639756772 255.064541966 678.569788466 c 2
 146.052049228 134.507439391 l 2
 137.031253903 90.0973700987 135.873120222 65.4091256613 135.873120222 54.653918722 c 0
 135.873120222 50.9007193388 136.008501682 49.9031542233 136.008501682 47.7324508608 c 0
 136.008501682 23.3438580962 115.953567705 1.58491150315 90.8634479299 0.0854858528965 c 0
 89.900713015 0.0279512759961 88.9419420365 -0.000481041968506 87.9880729517 -0.000481041968506 c 0
 63.6652121706 -0.000481041968506 42.5295978648 18.486416254 40.1323168705 44.3527656164 c 0
 40.050258192 45.7258660906 39.8871730153 48.8545009048 39.8871730153 53.7864298702 c 0
 39.8871730153 69.1177683411 41.4631178325 101.874921523 51.9479507719 153.492560609 c 2
 160.935458034 697.430211534 l 2
 165.457103127 719.996954014 185.929703619 735.975365991 208.252400346 735.975365991 c 0
 211.289264116 735.975365991 214.360369294 735.679639032 217.430211534 735.064541966 c 0
EndSplineSet
EndChar

StartChar: m
Encoding: 109 109 77
Width: 864
VWidth: 0
Flags: HW
AnchorPoint: "above" 473 576 basechar 0
LayerCount: 2
Fore
SplineSet
70.6283418491 0.923763707124 m 0
 48.0379217315 5.42093067498 32.024288007 25.9042473912 32.024288007 48.2506644686 c 0
 32.024288007 51.2686103909 32.3163647637 54.3205378767 32.9237637071 57.3716581509 c 2
 118.923763707 489.371658151 l 2
 123.420930675 511.962078268 143.904247391 527.975711993 166.250664469 527.975711993 c 0
 169.268610391 527.975711993 172.320537877 527.683635236 175.371658151 527.076236293 c 0
 190.859222295 523.993063801 203.25451374 513.396739879 209.518757247 499.838238718 c 1
 243.995682212 520.360594975 286.504064412 536 336 536 c 1
 387.615028141 536 430.731805125 510.21759437 456.013197172 470.200702796 c 1
 495.215276968 503.153947862 552.269969865 536 624 536 c 0
 707.152691252 536 768.249225491 469.084963454 768.249225491 383.538994599 c 0
 768.249225491 370.01714352 766.854799088 356.521058789 764.067872433 342.586425513 c 2
 703.061908829 38.5566564521 l 2
 698.534849693 15.9955748538 678.064890928 0.02470448278 655.747265958 0.02470448278 c 0
 652.70614939 0.02470448278 649.630724957 0.32125505651 646.556656452 0.938091170931 c 0
 623.997112905 5.46484168523 608.024671155 25.9337670371 608.024671155 48.2524888992 c 0
 608.024671155 51.2936463966 608.321229738 54.3691488638 608.938091171 57.4433435479 c 2
 669.932127567 361.413574487 l 2
 671.561747402 369.561673663 672.249521311 376.789746397 672.249521311 383.673356169 c 0
 672.249521311 423.619923328 651.226389369 440 624 440 c 0
 554.615673099 440 494.575321961 374.275278127 478.073463465 354.182118504 c 0
 477.513067968 350.335760101 476.844506412 346.469595457 476.067872433 342.586425513 c 2
 415.061908829 38.5566564521 l 2
 410.534849693 15.9955748538 390.064890928 0.02470448278 367.747265958 0.02470448278 c 0
 364.70614939 0.02470448278 361.630724957 0.32125505651 358.556656452 0.938091170931 c 0
 335.997112905 5.46484168523 320.024671155 25.9337670371 320.024671155 48.2524888992 c 0
 320.024671155 51.2936463966 320.321229738 54.3691488638 320.938091171 57.4433435479 c 2
 381.932127567 361.413574487 l 2
 383.561747402 369.561673663 384.249521311 376.789746397 384.249521311 383.673356169 c 0
 384.249521311 423.619923328 363.226389369 440 336 440 c 0
 266.280713247 440 205.995837999 373.639160885 189.837518222 353.894316192 c 1
 127.076236293 38.6283418491 l 2
 122.578762485 16.0363803945 102.094406179 0.0243209615216 79.7490903442 0.0243209615216 c 0
 76.73118592 0.0243209615216 73.6793365674 0.31638975857 70.6283418491 0.923763707124 c 0
EndSplineSet
EndChar

StartChar: n
Encoding: 110 110 78
Width: 580
VWidth: 0
Flags: HW
AnchorPoint: "above" 331 576 basechar 0
LayerCount: 2
Fore
SplineSet
70.6283418491 0.923763707124 m 0
 48.0379217315 5.42093067498 32.024288007 25.9042473912 32.024288007 48.2506644686 c 0
 32.024288007 51.2686103909 32.3163647637 54.3205378767 32.9237637071 57.3716581509 c 2
 118.923763707 489.371658151 l 2
 123.420930675 511.962078268 143.904247391 527.975711993 166.250664469 527.975711993 c 0
 169.268610391 527.975711993 172.320537877 527.683635236 175.371658151 527.076236293 c 0
 191.352357425 523.894893382 204.040728605 512.714333732 210.098385603 498.534239034 c 1
 245.574552786 519.67332816 289.362027025 536 340 536 c 0
 423.152691252 536 484.249225491 469.084963454 484.249225491 383.538994599 c 0
 484.249225491 370.01714352 482.854799088 356.521058789 480.067872433 342.586425513 c 2
 419.061908829 38.5566564521 l 2
 414.534849693 15.9955748538 394.064890928 0.02470448278 371.747265958 0.02470448278 c 0
 368.70614939 0.02470448278 365.630724957 0.32125505651 362.556656452 0.938091170931 c 0
 339.997112905 5.46484168523 324.024671155 25.9337670371 324.024671155 48.2524888992 c 0
 324.024671155 51.2936463966 324.321229738 54.3691488638 324.938091171 57.4433435479 c 2
 385.932127567 361.413574487 l 2
 387.561747402 369.561673663 388.249521311 376.789746397 388.249521311 383.673356169 c 0
 388.249521311 423.619923328 367.226389369 440 340 440 c 0
 270.374683244 440 207.317015543 373.864368878 189.748549393 353.447403004 c 1
 127.076236293 38.6283418491 l 2
 122.578762485 16.0363803945 102.094406179 0.0243209615216 79.7490903442 0.0243209615216 c 0
 76.73118592 0.0243209615216 73.6793365674 0.31638975857 70.6283418491 0.923763707124 c 0
EndSplineSet
EndChar

StartChar: o
Encoding: 111 111 79
Width: 568
VWidth: 0
Flags: HW
HStem: 40 448<207.697 360.303>
VStem: 108 352<157.228 370.772>
AnchorPoint: "middle" 263 264 basechar 0
AnchorPoint: "above" 325 576 basechar 0
LayerCount: 2
Fore
SplineSet
486.053221193 254.513463469 m 0
 458.057949741 115.656917065 348.358283502 -8 219 -8 c 0
 206.984197104 -8 195.174865483 -6.85046476178 183.730074947 -4.57577591375 c 0
 85.9634113402 14.855662234 33.5470145848 106.614740777 33.5470145848 210.162665592 c 0
 33.5470145848 230.958592921 35.6611896477 252.230014301 39.9467788069 273.486536531 c 0
 67.9987786531 412.624455768 178.821610376 536 308 536 c 0
 320.015745722 536 331.822622058 534.850438854 343.262728844 532.572422214 c 0
 440.925601025 513.125256897 492.510350589 421.508080282 492.510350589 318.39259927 c 0
 492.510350589 297.405358005 490.373450128 275.941798987 486.053221193 254.513463469 c 0
391.946778807 273.486536531 m 0
 395.40427742 290.635729654 396.97623957 306.54576312 396.97623957 321.175006072 c 0
 396.97623957 390.456402782 361.720352311 431.012294896 324.514758028 438.420876341 c 0
 319.393534993 439.440642285 313.917027387 440 308 440 c 0
 243.178389624 440 156.001221347 363.375544232 134.053221193 254.513463469 c 0
 130.645864953 237.612976516 129.09494418 221.904692715 129.09494418 207.433754852 c 0
 129.09494418 138.01183026 164.788478599 97.066698663 202.444329961 89.5824773585 c 0
 207.591888277 88.5593836234 213.083029787 88 219 88 c 0
 283.641716498 88 369.942050259 164.343082935 391.946778807 273.486536531 c 0
EndSplineSet
EndChar

StartChar: p
Encoding: 112 112 80
Width: 588
VWidth: 0
Flags: HW
AnchorPoint: "above" 335 576 basechar 0
LayerCount: 2
Fore
SplineSet
126.186087741 33.3746766224 m 1
 89.0794440102 -153.35553054 l 2
 84.5889431322 -175.952889797 64.1023965095 -191.975797793 41.7497469239 -191.975797793 c 0
 38.7370220318 -191.975797793 35.6903973867 -191.68472456 32.6444694595 -191.07944401 c 0
 10.0455681277 -186.588636694 -5.97576492297 -166.101049092 -5.97576492297 -143.74950173 c 0
 -5.97576492297 -140.736818462 -5.68469963758 -137.690271972 -5.07944401016 -134.64446946 c 2
 118.92055599 489.35553054 l 2
 123.411363306 511.954431872 143.898950908 527.975764923 166.25049827 527.975764923 c 0
 169.263181538 527.975764923 172.309728028 527.684699638 175.35553054 527.07944401 c 0
 190.807542294 524.008851931 203.185480956 513.458850263 209.468400975 499.947191375 c 1
 245.472124199 522.580732032 285.774493701 536 328 536 c 0
 340.015745722 536 351.822622058 534.850438854 363.262728844 532.572422214 c 0
 460.925601025 513.125256897 512.510350589 421.508080282 512.510350589 318.39259927 c 0
 512.510350589 297.405358005 510.373450128 275.941798987 506.053221193 254.513463469 c 0
 478.057949741 115.656917065 368.358283502 -8 239 -8 c 0
 194.487434927 -8 156.19078515 7.61099527353 126.186087741 33.3746766224 c 1
153.397605446 170.310056042 m 1
 164.730105761 114.918974049 198.100033539 88 239 88 c 0
 303.641716498 88 389.942050259 164.343082935 411.946778807 273.486536531 c 0
 415.40427742 290.635729654 416.97623957 306.54576312 416.97623957 321.175006072 c 0
 416.97623957 390.456402782 381.720352311 431.012294896 344.514758028 438.420876341 c 0
 339.393534993 439.440642285 333.917027387 440 328 440 c 0
 282.736409406 440 224.57873842 403.750979412 187.242143401 340.624505103 c 1
 153.397605446 170.310056042 l 1
EndSplineSet
EndChar

StartChar: q
Encoding: 113 113 81
Width: 588
VWidth: 0
Flags: HW
AnchorPoint: "above" 335 576 basechar 0
LayerCount: 2
Fore
SplineSet
332.637871402 -191.078132377 m 0
 310.043350727 -186.584903834 294.024237291 -166.099678269 294.024237291 -143.749578575 c 0
 294.024237291 -140.734717725 294.315720869 -137.685923649 294.921867623 -134.637871402 c 2
 325.950881683 21.3937421589 l 1
 293.088641244 2.82606766833 256.912625365 -8 219 -8 c 1
 102.924007914 -8 33.3223863525 94.9765900549 33.3223863525 208.868107967 c 0
 33.3223863525 230.037298635 35.499748493 251.429266174 39.9467788069 273.486536531 c 0
 67.9988300048 412.624710472 178.821646858 536 308 536 c 0
 355.492240328 536 395.592661286 518.226755662 426.108228904 489.413228879 c 1
 428.288956861 495.226293806 429.781601527 498.681487312 430.299975709 499.872724212 c 0
 438.83299878 517.850056751 456.204795837 527.982344439 474.134449976 527.982344439 c 0
 480.52808945 527.982344439 486.992666347 526.693916971 493.152683108 524.013347178 c 0
 510.946814819 516.27011955 521.903274492 498.564721449 521.903274492 479.803151873 c 0
 521.903274492 473.859871098 520.803801909 467.8106043 518.473926301 461.938460614 c 0
 517.173407441 458.850029926 505.693135298 431.81740158 494.058959227 374.541457848 c 2
 389.078132377 -153.362128598 l 2
 384.584597231 -175.958191046 364.098331255 -191.975729804 341.749333384 -191.975729804 c 0
 338.734514107 -191.975729804 335.685798177 -191.684254179 332.637871402 -191.078132377 c 0
359.060077138 187.885696444 m 1
 392.717810919 357.136014888 l 1
 381.470415152 413.346421053 348.746092532 440 308 440 c 0
 243.178353142 440 156.001169995 363.375289528 134.053221193 254.513463469 c 0
 130.801537038 238.385110061 129.322103091 223.283776779 129.322103091 208.699225248 c 0
 129.322103091 128.270757135 170.893272724 88 219 88 c 0
 264.221673221 88 321.617340638 124.170797628 359.060077138 187.885696444 c 1
EndSplineSet
EndChar

StartChar: r
Encoding: 114 114 82
Width: 424
VWidth: 0
Flags: HW
AnchorPoint: "above" 253 576 basechar 0
LayerCount: 2
Fore
SplineSet
175.371658151 527.076236293 m 0
 197.962078268 522.579069325 213.975711993 502.095752609 213.975711993 479.749335531 c 0
 213.975711993 476.731389609 213.683635236 473.679462123 213.076236293 470.628341849 c 2
 212.286841333 466.663009025 l 1
 252.694054338 503.177878679 298.650296571 528 350 528 c 0
 376.146366075 528 398 506.144471708 398 480 c 0
 398 453.855528292 376.146366075 432 350 432 c 0
 307.696172188 432 229.966973143 355.010597342 169.377226864 251.11703867 c 1
 127.076236293 38.6283418491 l 2
 122.579069325 16.0379217315 102.095752609 0.0242880070445 79.7493355314 0.0242880070445 c 0
 76.7313896091 0.0242880070445 73.6794621233 0.316364763655 70.6283418491 0.923763707124 c 0
 48.0363803945 5.42123751522 32.0243209615 25.9055938208 32.0243209615 48.2509096558 c 0
 32.0243209615 51.26881408 32.3163897586 54.3206634326 32.9237637071 57.3716581509 c 2
 118.923763707 489.371658151 l 2
 123.421237515 511.963619606 143.905593821 527.975679038 166.250909656 527.975679038 c 0
 169.26881408 527.975679038 172.320663433 527.683610241 175.371658151 527.076236293 c 0
EndSplineSet
EndChar

StartChar: s
Encoding: 115 115 83
Width: 496
VWidth: 0
Flags: HW
AnchorPoint: "bottom" 183 40 basechar 0
LayerCount: 2
Fore
SplineSet
417.534966647 390.744268136 m 0
 409.979636887 386.251080031 401.771815812 384.188832643 393.680185311 384.188832643 c 0
 377.147017687 384.188832643 361.098927365 392.798389822 352.092937664 406.872470103 c 0
 350.339971522 409.40262543 329.535966403 440 272 440 c 0
 213.801496215 440 172.207872686 401.192894457 167.073777783 378.602871339 c 0
 166.6475841 376.237730156 166.481852426 375.022398465 166.291106647 373.111215727 c 0
 165.956488509 369.758499819 165.462975021 366.092252237 165.462975021 362.311210886 c 0
 165.462975021 346.875009493 173.688375365 329.525537772 234.531395964 323.785630169 c 0
 246.611891235 322.640065962 257.933885846 321.066294704 268.594487143 319.045909974 c 0
 364.993379809 300.77650421 397.021229674 238.843632747 397.021229674 181.176032223 c 0
 397.021229674 170.781895081 395.980732496 160.526324917 394.089126191 150.689972131 c 0
 376.271695728 62.9733913907 295.811929561 -8 183 -8 c 0
 69.4879771562 -8 17.2646451258 84.8733996691 15.2073684817 88.3781173806 c 0
 11.0554084237 96.0129893593 9.10549650895 104.129508372 9.10549650895 112.057954198 c 0
 9.10549650895 128.75735443 17.7559846272 144.622396523 32.7009695556 153.395134007 c 0
 40.0601572435 157.714992608 48.2801339826 159.707075826 56.4300555806 159.707075826 c 0
 72.6705575991 159.707075826 88.6328756797 151.796656335 96.9512924552 138.632130429 c 0
 101.726329622 130.957963554 131.237487836 88 183 88 c 0
 253.938963179 88 291.328147238 128.279495368 299.910587295 169.308404419 c 0
 301.666383444 178.60605053 303.658697002 186.35091918 303.658697002 192.964434189 c 0
 303.658697002 207.658813893 293.823217918 216.768026026 249.704792324 224.914558897 c 0
 242.562148564 226.233458685 234.494151798 227.358498923 225.468604036 228.214369831 c 0
 113.662998441 238.762068472 70.1196414951 307.758495801 70.1196414951 369.633097247 c 0
 70.1196414951 374.013902253 70.3379169611 378.359006753 70.7656947841 382.645138764 c 0
 71.2857396794 387.85574332 71.8765821154 391.882756023 72.9214889756 397.368517039 c 0
 90.3676936925 481.427503402 180.368729987 536 272 536 c 0
 382.68642736 536 429.255251255 464.943336525 434.657039621 455.860188558 c 0
 438.651403271 448.613993704 440.628818708 440.452226355 440.628818708 432.287194936 c 0
 440.628818708 416.069470975 432.827608004 399.838869751 417.534966647 390.744268136 c 0
EndSplineSet
EndChar

StartChar: t
Encoding: 116 116 84
Width: 344
VWidth: 0
Flags: HW
AnchorPoint: "bottom" 108 48 basechar 0
AnchorPoint: "above" 245 736 basechar 0
LayerCount: 2
Fore
SplineSet
58 480 m 0
 58 506.144471708 79.8536339246 528 106 528 c 2
 154.731438536 528 l 1
 178.926020822 649.382989093 l 2
 183.42817608 671.9700731 203.91026042 687.97561861 226.251198482 687.97561861 c 0
 229.272771419 687.97561861 232.328346678 687.682843714 235.382989093 687.073979178 c 0
 257.968532282 682.572131043 273.975651623 662.091085316 273.975651623 639.7490467 c 0
 273.975651623 636.727432354 273.68286876 633.671778977 273.073979178 630.617010907 c 2
 252.619912815 528 l 1
 282 528 l 2
 308.144471708 528 330 506.146366075 330 480 c 0
 330 453.853633925 308.144471708 432 282 432 c 2
 233.48477768 432 l 1
 155.073979178 38.617010907 l 2
 150.572131043 16.031467718 130.091085316 0.0243483765527 107.7490467 0.0243483765527 c 0
 104.727432354 0.0243483765527 101.671778977 0.317131240208 98.617010907 0.926020821678 c 0
 76.0299268998 5.42817607988 60.02438139 25.9102604196 60.02438139 48.2511984819 c 0
 60.02438139 51.2727714191 60.3171562862 54.3283466779 60.9260208217 57.382989093 c 2
 135.596303401 432 l 1
 106 432 l 2
 79.8536339246 432 58 453.855528292 58 480 c 0
EndSplineSet
EndChar

StartChar: u
Encoding: 117 117 85
Width: 580
VWidth: 0
Flags: HW
AnchorPoint: "above" 331 576 basechar 0
LayerCount: 2
Fore
SplineSet
467.371658151 527.076236293 m 0
 489.962078268 522.579069325 505.975711993 502.095752609 505.975711993 479.749335531 c 0
 505.975711993 476.731389609 505.683635236 473.679462123 505.076236293 470.628341849 c 2
 419.076236293 38.6283418491 l 2
 414.579069325 16.0379217315 394.095752609 0.0242880070445 371.749335531 0.0242880070445 c 0
 368.731389609 0.0242880070445 365.679462123 0.316364763655 362.628341849 0.923763707124 c 0
 346.82547552 4.06970468927 334.242071041 15.0378226777 328.106301588 28.9934946243 c 1
 292.771782157 8.08399585331 249.260228309 -8 199 -8 c 0
 115.847308748 -8 54.7507745086 58.9150365462 54.7507745086 144.461005401 c 0
 54.7507745086 157.941825612 56.1607555272 171.556714288 58.9202116689 185.353994997 c 2
 118.908446643 489.294385531 l 2
 123.373944266 511.919573488 143.873756635 527.976089205 166.248935473 527.976089205 c 0
 169.241827123 527.976089205 172.268272063 527.688812594 175.294385531 527.091553357 c 0
 197.918028618 522.626360643 213.976121757 502.127594529 213.976121757 479.751309735 c 0
 213.976121757 476.758375986 213.688837242 473.731852816 213.091553357 470.705614469 c 2
 153.079788331 166.646005003 l 2
 151.422674414 158.360435419 150.750478689 151.251727799 150.750478689 144.326643831 c 0
 150.750478689 104.380076672 171.773610631 88 199 88 c 0
 267.00760213 88 328.749202756 151.098067614 347.953679866 173.056818393 c 1
 410.923763707 489.371658151 l 2
 415.421237515 511.963619606 435.905593821 527.975679038 458.250909656 527.975679038 c 0
 461.26881408 527.975679038 464.320663433 527.683610241 467.371658151 527.076236293 c 0
EndSplineSet
EndChar

StartChar: v
Encoding: 118 118 86
Width: 496
VWidth: 0
Flags: HW
AnchorPoint: "above" 289 576 basechar 0
LayerCount: 2
Fore
SplineSet
112.4812856 527.681692413 m 0
 114.282814263 527.890202675 116.075932401 527.991883613 117.854141723 527.991883613 c 0
 141.710854482 527.991883613 162.884085971 509.690034055 165.681692413 485.5187144 c 2
 203.399936062 159.633089273 l 1
 379.307297226 501.939305592 l 2
 387.736521413 518.342120226 404.861718386 527.876840471 422.382866679 527.876840471 c 0
 429.700853589 527.876840471 437.087912163 526.21355773 443.939305592 522.692702774 c 0
 460.343015567 514.263018481 469.876769181 497.137695511 469.876769181 479.617172689 c 0
 469.876769181 472.299003106 468.213453281 464.911884584 464.692702774 458.060694408 c 2
 242.692702774 26.0606944079 l 2
 235.05787938 11.2037407773 218.181241306 0 200 0 c 2
 168 0 l 2
 146.36684266 0 123.221683959 17.3961137466 120.318307587 42.4812856003 c 2
 70.3183075869 474.4812856 l 2
 70.1097874366 476.282899699 70.0081024123 478.076086633 70.0081024123 479.854350266 c 0
 70.0081024123 503.712433388 88.31167212 524.884283445 112.4812856 527.681692413 c 0
EndSplineSet
EndChar

StartChar: w
Encoding: 119 119 87
Width: 696
VWidth: 0
Flags: HW
AnchorPoint: "above" 389 576 basechar 0
LayerCount: 2
Fore
SplineSet
115.116329088 527.913301306 m 0
 116.057559314 527.969949422 116.994928439 527.997887052 117.927564338 527.997887052 c 0
 142.853884688 527.997887052 164.399171958 508.0415124 165.913301306 482.883670912 c 2
 182.800922935 202.289342319 l 1
 310.980058114 461.290481444 l 2
 319.09323894 477.684125175 336.581400062 488 354 488 c 2
 370 488 l 2
 395.069598938 488 415.552105229 467.57305758 417.776046133 444.631351411 c 2
 441.381170371 201.125859274 l 1
 578.364888501 499.999426104 l 2
 586.364770703 517.453714545 604.115400991 527.894364066 622.394783673 527.894364066 c 0
 629.005928433 527.894364066 635.686237597 526.528656231 641.999426104 523.635111499 c 0
 659.454713666 515.634771366 669.894292536 497.883902454 669.894292536 479.605187881 c 0
 669.894292536 472.99390607 668.5285683 466.313570554 665.635111499 460.000573896 c 2
 467.635111499 28.0005738963 l 2
 461.079244681 13.696864476 443.568519209 0 424 0 c 2
 408 0 l 2
 384.95075283 0 362.642831417 18.4160170179 360.223953867 43.3686485891 c 2
 335.825424488 295.058741133 l 1
 203.019941886 26.7095185563 l 2
 195.293892329 11.0981194509 178.291398468 0 160 0 c 2
 144 0 l 2
 121.536451687 0 97.6712695251 18.7880752739 96.0866986937 45.116329088 c 2
 70.0866986937 477.116329088 l 2
 68.5159171248 503.215469001 89.0190801206 526.342633544 115.116329088 527.913301306 c 0
EndSplineSet
EndChar

StartChar: x
Encoding: 120 120 88
Width: 496
VWidth: 0
Flags: HW
AnchorPoint: "above" 289 576 basechar 0
LayerCount: 2
Fore
SplineSet
429.028023413 516.62324075 m 0
 440.100732313 507.242195711 445.81250993 493.577840062 445.81250993 479.863886488 c 0
 445.81250993 468.871739913 442.142975539 457.847729125 434.62324075 448.971976587 c 2
 286.869384916 274.573982815 l 1
 379.787391609 67.6637823431 l 2
 382.579452308 61.4464100666 383.897326935 54.8865263608 383.897326935 48.3954700569 c 0
 383.897326935 29.9867060828 373.297650623 12.1315214604 355.663782343 4.21260839053 c 0
 349.446220075 1.4204623719 342.8863572 0.102601797523 336.395430258 0.102601797523 c 0
 317.985989919 0.102601797523 300.131064693 10.7033665082 292.212608391 28.3362176569 c 2
 218.090290475 193.392100851 l 1
 68.6232407503 16.9719765866 l 2
 59.2421957105 5.89926768717 45.5778400624 0.187490070461 31.8638864884 0.187490070461 c 0
 20.8717399126 0.187490070461 9.84772912458 3.85702446054 0.971976586551 11.3767592497 c 0
 -10.1011819863 20.7581852628 -15.8124827864 34.4223398421 -15.8124827864 48.1358014613 c 0
 -15.8124827864 59.1283404678 -12.1427294501 70.1525613415 -4.6232407503 79.0280234134 c 2
 174.502043655 290.454588614 l 1
 98.2126083905 460.336217657 l 2
 95.4204623719 466.553779925 94.1026017975 473.1136428 94.1026017975 479.604569742 c 0
 94.1026017975 498.014010081 104.703366508 515.868935307 122.336217657 523.787391609 c 0
 128.553589933 526.579452308 135.113473639 527.897326935 141.604529943 527.897326935 c 0
 160.013293917 527.897326935 177.86847854 517.297650623 185.787391609 499.663782343 c 2
 243.281138097 371.636470577 l 1
 361.37675925 511.028023413 l 2
 370.758185263 522.101181986 384.422339842 527.812482786 398.135801461 527.812482786 c 0
 409.128340468 527.812482786 420.152561342 524.14272945 429.028023413 516.62324075 c 0
EndSplineSet
EndChar

StartChar: y
Encoding: 121 121 89
Width: 496
VWidth: 0
Flags: HW
AnchorPoint: "above" 289 576 basechar 0
LayerCount: 2
Fore
SplineSet
110.524764201 527.414352782 m 0
 112.962725182 527.798716 115.393260482 527.98475175 117.799471456 527.98475175 c 0
 140.882413978 527.98475175 161.726863606 510.864452858 165.414352782 487.475235799 c 2
 213.259191671 184.002257704 l 1
 354.837913779 453.964222403 377.054339811 497.398566117 377.054339811 497.398566117 c 1
 380.52786221 504.418625186 378.790317922 501.167425252 380.4627304 504.055253775 c 0
 388.913746107 518.647996013 406.338461485 526.82325322 424.072329211 526.82325322 c 0
 430.114636489 526.82325322 436.192833584 525.874179145 441.964196979 523.906502855 c 1
 460.315530821 513.278794367 469.670832883 501.209648231 469.670832883 482.057773476 c 0
 469.670832883 423.238090268 381.427766572 297.611190453 194.533917364 -58.2457327613 c 0
 168.931938795 -107.401531615 114.868293253 -194 18 -194 c 0
 -0.850178815017 -194 -12.651934148 -191.604780085 -15.9138569497 -190.971664267 c 0
 -39.0347974719 -185.693617939 -54.0003524007 -165.750228353 -54.0003524007 -143.975143935 c 0
 -54.0003524007 -140.958615477 -53.7131500539 -137.906935161 -53.120640272 -134.854221719 c 0
 -48.7278465377 -112.221784436 -28.1748263684 -96.0072196812 -5.80793952979 -96.0072196812 c 0
 -3.3886656204 -96.0072196812 -0.948170783433 -96.1969183565 1.49539065128 -96.5887127461 c 0
 5.12250843574 -97.2250491995 8.74895380512 -98 18 -98 c 0
 49.1317067473 -98 85.068061205 -60.5984683855 109.466082636 -13.7542672387 c 0
 119.518919075 5.38692686738 129.20122262 23.8256155762 138.526303767 41.5868855172 c 1
 70.5856472179 472.524764201 l 2
 70.2012670492 474.962832699 70.0152250347 477.393445215 70.0152250347 479.799708523 c 0
 70.0152250347 502.883875839 87.1371726206 523.727119875 110.524764201 527.414352782 c 0
EndSplineSet
EndChar

StartChar: z
Encoding: 122 122 90
Width: 504
VWidth: 0
Flags: HW
AnchorPoint: "above" 293 576 basechar 0
LayerCount: 2
Fore
SplineSet
380 48 m 0
 380 21.8555282921 358.146366075 0 332 0 c 2
 44 0 l 2
 17.6451520917 0 -3.99666378857 22.1344177733 -3.99666378857 48.0898351674 c 0
 -3.99666378857 60.4243791648 0.395890682396 70.7883096947 7.3767592497 79.0280234134 c 2
 306.422461636 432 l 1
 138 432 l 2
 111.855528292 432 90 453.853633925 90 480 c 0
 90 506.146366075 111.855528292 528 138 528 c 2
 410 528 l 2
 418.11623288 528 429.826449649 524.876153444 438.059026553 518.9447176 c 0
 450.990488151 509.627812851 457.791278629 494.750487627 457.791278629 479.787860499 c 0
 457.791278629 468.848221387 454.155899756 457.862983938 446.62324075 448.971976587 c 2
 147.577538364 96 l 1
 332 96 l 2
 358.146366075 96 380 74.1444717079 380 48 c 0
EndSplineSet
EndChar

StartChar: braceleft
Encoding: 123 123 91
Width: 432
VWidth: 0
Flags: HW
LayerCount: 2
Fore
SplineSet
97.9504559246 354.456016448 m 0
 96.5458407916 359.2317079 95.9451667562 364.081779567 96.0663567002 368.855698996 c 0
 96.1156350635 373.630893162 96.8890329159 378.456426122 98.4632016936 383.178932769 c 0
 100.977171421 390.720841952 105.282662992 397.247564553 110.755105439 402.44668731 c 0
 116.14726494 407.733137942 122.825794926 411.805362538 130.456016448 414.049544075 c 0
 344.742964556 477.075117048 88.744488359 717.075565226 418.456016448 814.049544075 c 0
 422.832719809 815.33680977 427.271894266 815.948854473 431.657672037 815.948854473 c 0
 452.406002307 815.948854473 471.959279041 802.25088467 478.049544075 781.543983552 c 0
 479.336855703 777.167124016 479.948908116 772.727892369 479.948908116 768.342123166 c 0
 479.948908116 747.592909177 466.249545344 728.04032704 445.543983552 721.950455925 c 0
 255.030928849 665.917204541 436.239309675 470.0024854 247.101310066 359.073415372 c 1
 270.102265259 331.897921334 278.056933095 300.224666889 278.056933095 268.328935474 c 0
 278.056933095 216.370564784 256.947918202 163.821814989 245.385804744 129.164040164 c 0
 236.015682816 101.076824359 228.961735829 80.7258660505 228.961735829 64.7971844266 c 0
 228.961735829 41.826603415 243.631275579 28.0526840364 287.178932769 13.5367983064 c 0
 307.098457432 6.89695675211 319.936221951 -12.2402209683 319.936221951 -32.3673807734 c 0
 319.936221951 -37.301581798 319.164682578 -42.2952799536 317.536798306 -47.1789327688 c 0
 310.896538321 -67.0997127241 291.758791711 -79.9361615802 271.63244853 -79.9361615802 c 0
 266.69821116 -79.9361615802 261.70455423 -79.1646273061 256.821067231 -77.5367983064 c 0
 164.097358052 -46.6288952468 138.055456597 12.668465632 138.055456597 70.9637093708 c 0
 138.055456597 102.302315654 145.581484129 133.351313238 154.319716742 159.544422257 c 0
 171.42722593 210.824683724 186.745348467 244.445451291 186.745348467 268.865020329 c 0
 186.745348467 292.995051447 171.788320251 308.14078402 128.821067231 322.463201694 c 0
 121.275753347 324.978306322 114.746783623 329.286346285 109.546721428 334.761936329 c 0
 104.263385726 340.153047392 100.193627668 346.829240739 97.9504559246 354.456016448 c 0
EndSplineSet
EndChar

StartChar: bar
Encoding: 124 124 92
Width: 288
VWidth: 0
Flags: HW
LayerCount: 2
Fore
SplineSet
233.413574487 815.067872433 m 0
 255.985946779 810.553397975 271.975488308 790.078489371 271.975488308 767.74826791 c 0
 271.975488308 764.716750503 271.680795129 761.651038993 271.067872433 758.586425513 c 2
 111.067872433 -41.4135744866 l 2
 106.553397975 -63.9859467788 86.0784893715 -79.9754883078 63.7482679102 -79.9754883078 c 0
 60.7167505034 -79.9754883078 57.6510389928 -79.680795129 54.5864255134 -79.0678724332 c 0
 32.0125138044 -74.5530900914 16.024544865 -54.0771455113 16.024544865 -31.7480227462 c 0
 16.024544865 -28.7165465063 16.3192300552 -25.6509130718 16.9321275668 -22.5864255134 c 2
 176.932127567 777.413574487 l 2
 181.446909909 799.987486196 201.922854489 815.975455135 224.251977254 815.975455135 c 0
 227.283453494 815.975455135 230.349086928 815.680769945 233.413574487 815.067872433 c 0
EndSplineSet
EndChar

StartChar: braceright
Encoding: 125 125 93
Width: 432
VWidth: 0
Flags: HW
LayerCount: 2
Fore
SplineSet
334.049544075 381.543983552 m 0
 335.454159208 376.7682921 336.054833244 371.918220433 335.9336433 367.144301004 c 0
 335.884364937 362.369106838 335.110967084 357.543573878 333.536798306 352.821067231 c 0
 331.022828579 345.279158048 326.717337008 338.752435447 321.244894561 333.55331269 c 0
 315.85273506 328.266862058 309.174205074 324.194637462 301.543983552 321.950455925 c 0
 87.2570354442 258.924882952 343.255511641 18.9244347744 13.5439835516 -78.0495440754 c 0
 9.16728019142 -79.3368097696 4.72810573441 -79.9488544728 0.342327962993 -79.9488544728 c 0
 -20.4060023069 -79.9488544728 -39.9592790406 -66.2508846699 -46.0495440754 -45.5439835516 c 0
 -47.3368557035 -41.1671240162 -47.9489081162 -36.7278923694 -47.9489081162 -32.3421231665 c 0
 -47.9489081162 -11.5929091766 -34.2495453436 7.95967296012 -13.5439835516 14.0495440754 c 0
 176.969071151 70.0827954587 -4.23930967479 265.9975146 184.898689934 376.926584628 c 1
 161.897734741 404.102078666 153.943066905 435.775333111 153.943066905 467.671064526 c 0
 153.943066905 519.629435216 175.052081798 572.178185011 186.614195256 606.835959836 c 0
 195.984317184 634.923175641 203.038264171 655.27413395 203.038264171 671.202815573 c 0
 203.038264171 694.173396585 188.368724421 707.947315964 144.821067231 722.463201694 c 0
 124.901542568 729.103043248 112.063778049 748.240220968 112.063778049 768.367380773 c 0
 112.063778049 773.301581798 112.835317422 778.295279954 114.463201694 783.178932769 c 0
 121.103461679 803.099712724 140.241208289 815.93616158 160.36755147 815.93616158 c 0
 165.30178884 815.93616158 170.29544577 815.164627306 175.178932769 813.536798306 c 0
 267.902641948 782.628895247 293.944543403 723.331534368 293.944543403 665.036290629 c 0
 293.944543403 633.697684346 286.418515871 602.648686762 277.680283258 576.455577743 c 0
 260.57277407 525.175316276 245.254651533 491.554548709 245.254651533 467.134979671 c 0
 245.254651533 443.004948553 260.211679749 427.85921598 303.178932769 413.536798306 c 0
 310.724246653 411.021693678 317.253216377 406.713653715 322.453278572 401.238063672 c 0
 327.736614274 395.846952608 331.806372332 389.170759261 334.049544075 381.543983552 c 0
EndSplineSet
EndChar

StartChar: asciitilde
Encoding: 126 126 94
Width: 648
VWidth: 0
Flags: HW
LayerCount: 2
Fore
SplineSet
50.2477463024 174.288725214 m 0
 34.8567577863 183.053038119 26.1391295988 199.558690387 26.1391295988 216.358718401 c 0
 26.1391295988 224.35777144 28.1154414877 232.423560325 32.2887252139 239.752253698 c 0
 81.1907261283 325.62893823 134.911006919 351.557889706 188.395642416 351.557889706 c 0
 269.927105574 351.557889706 350.910984211 291.30507405 413.444625297 291.30507405 c 0
 440.736348081 291.30507405 464.513790294 302.781636278 483.288725214 335.752253698 c 0
 492.053038119 351.143242214 508.558690387 359.860870401 525.358718401 359.860870401 c 0
 533.35777144 359.860870401 541.423560325 357.884558512 548.752253698 353.711274786 c 0
 564.144041845 344.946506535 572.860802197 328.440821263 572.860802197 311.641385603 c 0
 572.860802197 303.642106189 570.884435831 295.576224234 566.711274786 288.247746302 c 0
 517.808702399 202.370058208 464.088993581 176.440620853 410.60525721 176.440620853 c 0
 329.073713112 176.440620853 248.090533286 236.696711119 185.556435271 236.696711119 c 0
 158.264687011 236.696711119 134.486954391 225.219671463 115.711274786 192.247746302 c 0
 106.946506535 176.855958155 90.4408212626 168.139197803 73.6413856031 168.139197803 c 0
 65.6421061889 168.139197803 57.5762242343 170.115564169 50.2477463024 174.288725214 c 0
EndSplineSet
EndChar

StartChar: tildecomb
Encoding: 771 771 95
Width: 0
VWidth: 0
Flags: HW
AnchorPoint: "above" 72 728 mark 0
LayerCount: 2
Fore
SplineSet
-72.3854544345 780.088678494 m 0
 -90.6963363018 788.172351541 -100.6838257 806.363240135 -100.6838257 824.611207376 c 0
 -100.6838257 830.751051909 -99.5531394909 836.89735833 -97.2283790418 842.667301346 c 0
 -95.838639789 845.815294979 -59.4436096004 936 39 936 c 0
 151.293636193 936 139.532797789 872 155 872 c 0
 181.845542314 872 200.01925996 901.032966946 203.476309226 908.231627933 c 0
 211.987009492 925.919557291 229.313567041 935.967564845 247.180550249 935.967564845 c 0
 253.641972921 935.967564845 260.174074496 934.653448562 266.385454435 931.911321506 c 0
 283.992511147 924.138364921 294.891316222 906.783754878 294.891316222 887.992812717 c 0
 294.891316222 881.831484182 293.719578241 875.5157346 291.228379042 869.332698654 c 0
 290.468395064 867.611206857 254.175253643 776 155 776 c 0
 42.4672022113 776 54.7063638073 840 39 840 c 0
 12.5607015275 840 -5.80552603368 811.412094132 -9.47630922636 803.768372067 c 0
 -17.416981879 787.26514054 -35.0327163897 776.132148103 -53.6637912439 776.132148103 c 0
 -59.8988212758 776.132148103 -66.2475650417 777.378995181 -72.3854544345 780.088678494 c 0
EndSplineSet
EndChar

StartChar: dotlessi
Encoding: 305 305 96
Width: 288
VWidth: 0
Flags: HW
AnchorPoint: "above" 185 576 basechar 0
LayerCount: 2
Fore
SplineSet
70.6283418491 0.923763707124 m 0
 48.0379217315 5.42093067498 32.024288007 25.9042473912 32.024288007 48.2506644686 c 0
 32.024288007 51.2686103909 32.3163647637 54.3205378767 32.9237637071 57.3716581509 c 2
 118.923763707 489.371658151 l 2
 123.420930675 511.962078268 143.904247391 527.975711993 166.250664469 527.975711993 c 0
 169.268610391 527.975711993 172.320537877 527.683635236 175.371658151 527.076236293 c 0
 197.963619606 522.578762485 213.975679038 502.094406179 213.975679038 479.749090344 c 0
 213.975679038 476.73118592 213.683610241 473.679336567 213.076236293 470.628341849 c 2
 127.076236293 38.6283418491 l 2
 122.578762485 16.0363803945 102.094406179 0.0243209615216 79.7490903442 0.0243209615216 c 0
 76.73118592 0.0243209615216 73.6793365674 0.31638975857 70.6283418491 0.923763707124 c 0
EndSplineSet
EndChar

StartChar: uni0237
Encoding: 567 567 97
Width: 288
VWidth: 0
Flags: HW
AnchorPoint: "above" 185 576 basechar 0
LayerCount: 2
Fore
SplineSet
175.34699106 527.081140153 m 0
 197.948023451 522.594170487 213.975843165 502.105914812 213.975843165 479.749964892 c 0
 213.975843165 476.740004351 213.685300579 473.696187382 213.081140153 470.65300894 c 2
 105.074529838 -73.3802874648 l 2
 93.6842248706 -130.3318123 44.9044582057 -192 -38 -192 c 0
 -53.8957199651 -192 -63.5137685734 -188.889906659 -66.4540497266 -188.082770656 c 0
 -87.8556583648 -181.447575827 -100.997377605 -162.329889018 -100.997377605 -141.938098127 c 0
 -100.997377605 -137.74465002 -100.441621819 -133.497320781 -99.2876551 -129.293584875 c 0
 -93.6169784808 -108.636120047 -76.0034754807 -94.225183228 -53.1757898348 -94.225183228 c 0
 -48.750749854 -94.225183228 -44.1297817082 -94.7666886946 -39.3618963881 -95.9091686354 c 1
 -39.3618963881 -95.9091686354 -39.9816180806 -96 -38 -96 c 0
 -8.90244154249 -96 6.31016386663 -77.6962440144 10.9321275668 -54.5864255134 c 2
 118.918859847 489.34699106 l 2
 123.406135738 511.949565917 143.89543313 527.975810339 166.250280305 527.975810339 c 0
 169.260199155 527.975810339 172.303937958 527.685275696 175.34699106 527.081140153 c 0
EndSplineSet
EndChar

StartChar: gravecomb
Encoding: 768 768 98
Width: 0
VWidth: 0
Flags: HW
AnchorPoint: "above" 70 720 mark 0
LayerCount: 2
Fore
SplineSet
-29.9709879178 935.290259191 m 0
 -21.2857944581 950.941701572 -4.61903288722 959.864872604 12.3660868233 959.864872604 c 0
 20.1895564636 959.864872604 28.0805686671 957.971741041 35.2902591914 953.970987918 c 2
 208.290259191 857.970987918 l 2
 223.941701572 849.285794458 232.864872604 832.619032887 232.864872604 815.633913177 c 0
 232.864872604 807.810443536 230.971741041 799.919431333 226.970987918 792.709740809 c 0
 218.285337297 777.057474585 201.618520209 768.135196658 184.634000759 768.135196658 c 0
 176.81031592 768.135196658 168.919219175 770.028376688 161.709740809 774.029012082 c 2
 -11.2902591914 870.029012082 l 2
 -26.9425254152 878.714662703 -35.8648033416 895.381479791 -35.8648033416 912.365999241 c 0
 -35.8648033416 920.18968408 -33.9716233116 928.080780825 -29.9709879178 935.290259191 c 0
EndSplineSet
EndChar

StartChar: acutecomb
Encoding: 769 769 99
Width: 0
VWidth: 0
Flags: HW
AnchorPoint: "above" 70 720 mark 0
LayerCount: 2
Fore
SplineSet
-50.6904969016 796.12185923 m 0
 -53.5470756111 802.400381185 -54.895389642 809.037132113 -54.895389642 815.604902941 c 0
 -54.895389642 833.930645192 -44.3980748466 851.719342061 -26.8781407704 859.690496902 c 2
 184.12185923 955.690496902 l 2
 190.400381185 958.547075611 197.037132113 959.895389642 203.604902941 959.895389642 c 0
 221.930645192 959.895389642 239.719342061 949.398074847 247.690496902 931.87814077 c 0
 250.547162591 925.59942764 251.895461087 918.962701058 251.895461087 912.395064493 c 0
 251.895461087 894.068651182 241.397069218 876.280200401 223.87814077 868.309503098 c 2
 12.8781407704 772.309503098 l 2
 6.59942764018 769.452837409 -0.037298941794 768.104538913 -6.60493550698 768.104538913 c 0
 -24.931348818 768.104538913 -42.7197995985 778.602930782 -50.6904969016 796.12185923 c 0
EndSplineSet
EndChar

StartChar: uni0302
Encoding: 770 770 100
Width: 0
VWidth: 0
Flags: HW
AnchorPoint: "above" 73 736 mark 0
LayerCount: 2
Fore
SplineSet
-60.7039185922 806.56005088 m 0
 -65.5451720581 814.306056425 -67.8467794317 823.021948446 -67.8467794317 831.675463629 c 0
 -67.8467794317 847.789872694 -59.8654564051 863.687976539 -45.4399491202 872.703918592 c 2
 82.5600508798 952.703918592 l 2
 90.2353305692 957.500968398 98.9559297065 959.666498844 107.536852359 959.666498844 c 0
 119.177271856 959.666498844 130.560656162 955.681450605 138.728851184 948.874621421 c 2
 234.728851184 868.874621421 l 2
 245.986495265 859.493251353 251.813670089 845.700103714 251.813670089 831.851123561 c 0
 251.813670089 820.99216688 248.23106727 810.098883836 240.874621421 801.271148816 c 0
 231.492865976 790.013042283 217.699914593 784.186359574 203.851430442 784.186359574 c 0
 192.992087432 784.186359574 182.09859747 787.769171368 173.271148816 795.125378579 c 2
 103.969295578 852.876922944 l 1
 5.43994912015 791.296081408 l 2
 -2.30628509577 786.454685023 -11.0220529011 784.153157838 -19.6753009993 784.153157838 c 0
 -35.7902760899 784.153157838 -51.6884219142 792.135256195 -60.7039185922 806.56005088 c 0
EndSplineSet
EndChar

StartChar: uni0308
Encoding: 776 776 101
Width: 0
VWidth: 0
Flags: HW
AnchorPoint: "above" 70 720 mark 0
LayerCount: 2
Fore
SplineSet
-16.7898041974 769.008939853 m 0
 -39.1993636837 773.677598079 -54.9734364518 794.07616951 -54.9734364518 816.261207576 c 0
 -54.9734364518 819.414659784 -54.6547262316 822.604206993 -53.9910601474 825.789804197 c 2
 -43.9910601474 873.789804197 l 2
 -39.3224019211 896.199363684 -18.9238304904 911.973436452 3.26120757591 911.973436452 c 0
 6.41465978389 911.973436452 9.60420699302 911.654726232 12.7898041974 910.991060147 c 0
 35.2008857545 906.322084823 50.9734013197 885.922509722 50.9734013197 863.738547844 c 0
 50.9734013197 860.58513366 50.6546993279 857.395663869 49.9910601474 854.210195803 c 2
 39.9910601474 806.210195803 l 2
 35.322084823 783.799114246 14.922509722 768.02659868 -7.261452156 768.02659868 c 0
 -10.4148663401 768.02659868 -13.604336131 768.345300672 -16.7898041974 769.008939853 c 0
175.210195803 769.008939853 m 0
 152.800636316 773.677598079 137.026563548 794.07616951 137.026563548 816.261207576 c 0
 137.026563548 819.414659784 137.345273768 822.604206993 138.008939853 825.789804197 c 2
 148.008939853 873.789804197 l 2
 152.677598079 896.199363684 173.07616951 911.973436452 195.261207576 911.973436452 c 0
 198.414659784 911.973436452 201.604206993 911.654726232 204.789804197 910.991060147 c 0
 227.200885754 906.322084823 242.97340132 885.922509722 242.97340132 863.738547844 c 0
 242.97340132 860.58513366 242.654699328 857.395663869 241.991060147 854.210195803 c 2
 231.991060147 806.210195803 l 2
 227.322084823 783.799114246 206.922509722 768.02659868 184.738547844 768.02659868 c 0
 181.58513366 768.02659868 178.395663869 768.345300672 175.210195803 769.008939853 c 0
EndSplineSet
EndChar

StartChar: uni030A
Encoding: 778 778 102
Width: 0
VWidth: 0
Flags: HW
HStem: 816 160<-55.1865 55.1865>
VStem: -80 160<840.814 951.186>
AnchorPoint: "above" 70 720 mark 0
LayerCount: 2
Fore
SplineSet
232.02631675 886.380980665 m 0
 218.422989677 819.87582609 157.676978852 768 89 768 c 0
 81.0923638261 768 73.2762155951 768.730996319 65.6642045825 770.195195985 c 0
 11.2456904181 780.662806998 -24.5256596888 827.705833492 -24.5256596888 881.121482035 c 0
 -24.5256596888 889.176926561 -23.7121226263 897.377301716 -22.0263167496 905.619019335 c 0
 -8.42298967748 972.12417391 52.3230211485 1024 121 1024 c 0
 128.907636174 1024 136.723784405 1023.26900368 144.335795417 1021.80480401 c 0
 198.754309582 1011.337193 234.525659689 964.294166508 234.525659689 910.878517965 c 0
 234.525659689 902.823073439 233.712122626 894.622698284 232.02631675 886.380980665 c 0
137.97368325 905.619019335 m 0
 141.081130452 920.810983433 135.144541524 925.812907801 126.202248957 927.532992253 c 0
 124.7263247 927.816891974 123.007856784 928 121 928 c 0
 101.676978852 928 76.4229896775 907.87582609 72.0263167496 886.380980665 c 0
 68.9188695478 871.189016567 74.8554584759 866.187092199 83.7977510433 864.467007747 c 0
 85.2736752996 864.183108026 86.9921432162 864 89 864 c 0
 108.323021148 864 133.577010323 884.12417391 137.97368325 905.619019335 c 0
EndSplineSet
EndChar

StartChar: uni0327
Encoding: 807 807 103
Width: 0
VWidth: 0
Flags: HW
AnchorPoint: "bottom" -65 40 mark 0
LayerCount: 2
Fore
SplineSet
-225 -200 m 0
 -225 -173.855528292 -203.146366075 -152 -177 -152 c 0
 -98.6001771845 -152 -85.3603745968 -134.496999329 -83.4707777714 -128.151014572 c 1
 -93.9643515537 -123.89843675 -118.025812727 -120 -152 -120 c 0
 -178.354847908 -120 -199.996663789 -97.8655822267 -199.996663789 -71.9101648326 c 0
 -199.996663789 -60.4656401196 -194.089766259 -47.9388390416 -189.907123767 -42.5542877878 c 2
 -102.907123767 69.4457122122 l 2
 -93.551370968 81.489899724 -79.2181947154 87.8196752192 -64.7994889165 87.8196752192 c 0
 -54.5004843653 87.8196752192 -44.1578428924 84.5902424647 -35.5542877878 77.9071237674 c 0
 -23.5095811317 68.5509677041 -17.1803645387 54.217962172 -17.1803645387 39.7997691662 c 0
 -17.1803645387 29.5004053776 -20.4099671312 19.1575730678 -27.0928762326 10.5542877878 c 2
 -61.8220603665 -34.1545469593 l 1
 -37.9288148837 -41.3449123338 -10.071654987 -55.1939972037 4.52391815708 -84.7814033962 c 0
 10.728247843 -97.3585061079 13.2889135748 -110.806352965 13.2889135748 -123.915395806 c 0
 13.2889135748 -131.391865956 12.4559919615 -138.75813149 10.9910601474 -145.789804197 c 0
 -7.30356389207 -233.603999587 -98.6533511774 -248 -177 -248 c 0
 -203.146366075 -248 -225 -226.144471708 -225 -200 c 0
EndSplineSet
EndChar

StartChar: dieresis
Encoding: 168 168 104
Width: 480
VWidth: 0
Flags: HW
AnchorPoint: "above" 275 544 mark 0
LayerCount: 2
Fore
SplineSet
188.210195803 593.008939853 m 0
 165.800636316 597.677598079 150.026563548 618.07616951 150.026563548 640.261207576 c 0
 150.026563548 643.414659784 150.345273768 646.604206993 151.008939853 649.789804197 c 2
 161.008939853 697.789804197 l 2
 165.677598079 720.199363684 186.07616951 735.973436452 208.261207576 735.973436452 c 0
 211.414659784 735.973436452 214.604206993 735.654726232 217.789804197 734.991060147 c 0
 240.200885754 730.322084823 255.97340132 709.922509722 255.97340132 687.738547844 c 0
 255.97340132 684.58513366 255.654699328 681.395663869 254.991060147 678.210195803 c 2
 244.991060147 630.210195803 l 2
 240.322084823 607.799114246 219.922509722 592.02659868 197.738547844 592.02659868 c 0
 194.58513366 592.02659868 191.395663869 592.345300672 188.210195803 593.008939853 c 0
380.210195803 593.008939853 m 0
 357.800636316 597.677598079 342.026563548 618.07616951 342.026563548 640.261207576 c 0
 342.026563548 643.414659784 342.345273768 646.604206993 343.008939853 649.789804197 c 2
 353.008939853 697.789804197 l 2
 357.677598079 720.199363684 378.07616951 735.973436452 400.261207576 735.973436452 c 0
 403.414659784 735.973436452 406.604206993 735.654726232 409.789804197 734.991060147 c 0
 432.200885754 730.322084823 447.97340132 709.922509722 447.97340132 687.738547844 c 0
 447.97340132 684.58513366 447.654699328 681.395663869 446.991060147 678.210195803 c 2
 436.991060147 630.210195803 l 2
 432.322084823 607.799114246 411.922509722 592.02659868 389.738547844 592.02659868 c 0
 386.58513366 592.02659868 383.395663869 592.345300672 380.210195803 593.008939853 c 0
EndSplineSet
EndChar

StartChar: cedilla
Encoding: 184 184 106
Width: 320
VWidth: 0
Flags: HW
AnchorPoint: "bottom" 95 40 mark 0
LayerCount: 2
Fore
SplineSet
-65 -200 m 0
 -65 -173.855528292 -43.1463660754 -152 -17 -152 c 0
 61.3998228155 -152 74.6396254032 -134.496999329 76.5292222286 -128.151014572 c 1
 66.0356484463 -123.89843675 41.9741872731 -120 8 -120 c 0
 -18.3548479083 -120 -39.9966637886 -97.8655822267 -39.9966637886 -71.9101648326 c 0
 -39.9966637886 -60.4656401196 -34.0897662592 -47.9388390416 -29.9071237674 -42.5542877878 c 2
 57.0928762326 69.4457122122 l 2
 66.448629032 81.489899724 80.7818052846 87.8196752192 95.2005110835 87.8196752192 c 0
 105.499515635 87.8196752192 115.842157108 84.5902424647 124.445712212 77.9071237674 c 0
 136.490418868 68.5509677041 142.819635461 54.217962172 142.819635461 39.7997691662 c 0
 142.819635461 29.5004053776 139.590032869 19.1575730678 132.907123767 10.5542877878 c 2
 98.1779396335 -34.1545469593 l 1
 122.071185116 -41.3449123338 149.928345013 -55.1939972037 164.523918157 -84.7814033962 c 0
 170.728247843 -97.3585061079 173.288913575 -110.806352965 173.288913575 -123.915395806 c 0
 173.288913575 -131.391865956 172.455991962 -138.75813149 170.991060147 -145.789804197 c 0
 152.696436108 -233.603999587 61.3466488226 -248 -17 -248 c 0
 -43.1463660754 -248 -65 -226.144471708 -65 -200 c 0
EndSplineSet
EndChar

StartChar: minus
Encoding: 8722 8722 161
Width: 640
VWidth: 0
Flags: HW
LayerCount: 2
Fore
SplineSet
56 368 m 0
 56 394.144471708 77.8536339246 416 104 416 c 2
 536 416 l 2
 562.144471708 416 584 394.146366075 584 368 c 0
 584 341.853633925 562.144471708 320 536 320 c 2
 104 320 l 2
 77.8536339246 320 56 341.855528292 56 368 c 0
EndSplineSet
EndChar

StartChar: degree
Encoding: 176 176 164
Width: 480
VWidth: 32
Flags: HW
HStem: 432 256<168.45 311.55>
VStem: 112 256<488.45 631.55>
AnchorPoint: "above" 234 336 mark 0
LayerCount: 2
Fore
SplineSet
453.093210543 550.714014822 m 0
 434.62597801 457.058764116 348.473305765 384 253 384 c 0
 242.022379654 384 231.256527968 385.002345954 220.830539591 386.993450334 c 0
 147.426876866 401.011723622 99.6185293965 463.225878489 99.6185293965 536.014219725 c 0
 99.6185293965 546.909933089 100.689780856 558.042584419 102.906789457 569.285985178 c 0
 121.453541695 663.344514387 208.797146047 736 304 736 c 0
 315.025681885 736 325.834630736 734.988806722 336.297832222 732.975056902 c 0
 409.713870868 718.845391641 456.406419354 656.519959752 456.406419354 584.255360637 c 0
 456.406419354 573.260090274 455.325462877 562.034723086 453.093210543 550.714014822 c 0
358.906789457 569.285985178 m 0
 360.1358621 575.519139299 360.721523892 581.353011649 360.721523892 586.782730265 c 0
 360.721523892 616.26927516 343.449627737 633.836822729 318.154618735 638.705105145 c 0
 313.875126113 639.528737138 309.167300571 640 304 640 c 0
 257.202853953 640 206.546458305 598.655485613 197.093210543 550.714014822 c 0
 195.905427657 544.690258756 195.338098987 539.02584969 195.338098987 533.730472757 c 0
 195.338098987 504.281639378 212.884060088 486.245984606 238.838699676 481.2892942 c 0
 243.143464405 480.46719124 247.855349604 480 253 480 c 0
 299.526694235 480 349.37402199 520.941235884 358.906789457 569.285985178 c 0
EndSplineSet
EndChar

StartChar: uni00B2
Encoding: 178 178 165
Width: 528
VWidth: 516
Flags: HW
LayerCount: 2
Fore
SplineSet
203.586425513 846.932127567 m 0
 181.014053221 851.446602025 165.024511692 871.921510629 165.024511692 894.25173209 c 0
 165.024511692 897.283249497 165.319204871 900.348961007 165.932127567 903.413574487 c 0
 187.673841095 1012.12214213 286.736741447 1062 382 1062 c 0
 396.451782402 1062 410.447113258 1060.71790337 423.868064934 1058.13642847 c 0
 499.604763049 1043.56872941 552.210544287 984.513423728 552.210544287 910.370183279 c 0
 552.210544287 900.113210771 551.203777844 889.567486227 549.112209012 878.810846519 c 0
 536.388125155 813.776640135 493.031142356 776.416609256 416.573955815 735.639443101 c 0
 286.794228591 666.535951982 236.518159703 639.944654425 209.675353019 576 c 1
 452 576 l 2
 478.144471708 576 500 554.146366075 500 528 c 0
 500 501.853633925 478.144471708 480 452 480 c 2
 146 480 l 2
 126.807369714 480 98.0044479112 499.008356091 98.0044479112 528.224521188 c 0
 98.0044479112 531.124184562 98.2881648668 534.124397752 98.8931525667 537.216557107 c 0
 129.985748341 696.13426884 221.556925428 740.560117041 371.440328797 820.368162991 c 0
 444.96125181 859.579321931 449.607529181 870.201148692 454.893152567 897.216557107 c 0
 455.978362456 902.797636535 456.530835132 908.073279091 456.530835132 913.032594609 c 0
 456.530835132 939.650067723 440.616042916 957.155272843 405.735174846 963.864490456 c 0
 398.692948875 965.219038927 390.767729793 966 382 966 c 0
 315.263258553 966 270.326158905 935.877857874 260.067872433 884.586425513 c 0
 255.553090091 862.012513804 235.077145511 846.024544865 212.748022746 846.024544865 c 0
 209.716546506 846.024544865 206.650913072 846.319230055 203.586425513 846.932127567 c 0
EndSplineSet
EndChar

StartChar: uni00B3
Encoding: 179 179 166
Width: 528
VWidth: 516
Flags: HW
LayerCount: 2
Fore
SplineSet
145.548668805 652.445091751 m 0
 150.515694579 654.133880515 155.602475907 654.933950127 160.628953877 654.933950127 c 0
 180.65162558 654.933950127 199.717416176 642.238612298 206.445091751 622.451331195 c 0
 216.131527508 593.961814264 244.296423355 570 293 570 c 0
 363.04818042 570 431.008880101 624.755371031 441.867745596 681.085735789 c 0
 443.446430339 689.275162891 444.163615545 696.880261327 444.163615545 704.165008466 c 0
 444.163615545 747.10037106 423.084206297 777 361 777 c 0
 347.925146794 777 318.349929521 769.77946567 299.403667028 762.889915673 c 0
 294.146833779 760.978339946 288.732645699 760.073969412 283.381556158 760.073969412 c 0
 276.40478152 760.073969412 269.535268479 761.611314472 263.261617831 764.458087475 c 0
 252.169733096 769.481377109 242.927507719 778.600319807 238.258979503 790.61491775 c 0
 238.195524458 790.778221174 238.133053893 790.941700512 238.071564537 791.105348825 c 0
 238.01016806 791.268494638 237.949616287 791.432157097 237.889915673 791.596332972 c 0
 235.978277197 796.85333878 235.073904836 802.267553605 235.073904836 807.618583569 c 0
 235.073904836 814.595478357 236.611340188 821.464958717 239.458143398 827.738514151 c 0
 244.481234275 838.830075554 253.599826834 848.072300709 265.61491775 852.741020497 c 0
 342.195192989 882.497927448 389.37982844 925.202320458 417.845010812 960 c 1
 226 960 l 2
 199.855528292 960 178 981.853633925 178 1008 c 0
 178 1034.14636608 199.855528292 1056 226 1056 c 2
 502 1056 l 2
 502.553700565 1056 510.080661675 1055.45663054 513.635901403 1054.56829177 c 0
 535.378965159 1049.13540737 549.935348023 1028.99985922 549.935348023 1007.61100012 c 0
 549.935348023 1002.66771938 549.157833014 997.65749426 547.511825727 992.74635391 c 0
 545.975449625 988.162316693 522.404005256 920.514456448 448.931589689 853.752412999 c 1
 506.469122184 825.522097602 540.163455906 769.126286487 540.163455906 704.053514443 c 0
 540.163455906 690.347722695 538.790414815 676.703471345 536.132254404 662.914264211 c 0
 514.991119899 553.244628969 404.95181958 474 293 474 c 0
 209.703576645 474 139.868472492 520.038185736 115.554908249 591.548668805 c 0
 113.866062589 596.515861921 113.065988499 601.602681433 113.065988499 606.629118057 c 0
 113.065988499 626.652596103 125.762628795 645.717838148 145.548668805 652.445091751 c 0
EndSplineSet
EndChar

StartChar: uni00B9
Encoding: 185 185 167
Width: 288
VWidth: 492
Flags: HW
LayerCount: 2
Fore
SplineSet
280.31923138 1055.08664276 m 0
 302.932198931 1050.6111596 318.975990371 1030.1173538 318.975990371 1007.75067411 c 0
 318.975990371 1004.74969903 318.687169383 1001.7150084 318.086642761 998.68076862 c 2
 223.086642761 518.68076862 l 2
 218.6111596 496.067801069 198.117353802 480.024009629 175.75067411 480.024009629 c 0
 172.749699029 480.024009629 169.715008396 480.312830617 166.68076862 480.913357239 c 0
 144.066257334 485.389145931 128.02404231 505.883995841 128.02404231 528.249571094 c 0
 128.02404231 531.250504268 128.312855376 534.285116701 128.913357239 537.31923138 c 2
 223.913357239 1017.31923138 l 2
 228.389145931 1039.93374267 248.883995841 1055.97595769 271.249571094 1055.97595769 c 0
 274.250504268 1055.97595769 277.285116701 1055.68714462 280.31923138 1055.08664276 c 0
EndSplineSet
EndChar

StartChar: minute
Encoding: 8242 8242 168
Width: 256
VWidth: 0
Flags: HW
LayerCount: 2
Fore
SplineSet
224.089042344 733.223254156 m 0
 243.559798193 726.296158325 255.928741264 707.40235077 255.928741264 687.62176471 c 0
 255.928741264 682.378347573 255.059614548 677.072619299 253.223254156 671.910957656 c 2
 179.223254156 463.910957656 l 2
 172.296158325 444.440201807 153.40235077 432.071258736 133.62176471 432.071258736 c 0
 128.378347573 432.071258736 123.072619299 432.940385452 117.910957656 434.776745844 c 0
 98.4389941411 441.704271325 86.0713223077 460.598580535 86.0713223077 480.378383364 c 0
 86.0713223077 485.621853934 86.940446235 490.927551551 88.776745844 496.089042344 c 2
 162.776745844 704.089042344 l 2
 169.704271325 723.561005859 188.598580535 735.928677692 208.378383364 735.928677692 c 0
 213.621853934 735.928677692 218.927551551 735.059553765 224.089042344 733.223254156 c 0
EndSplineSet
EndChar

StartChar: second
Encoding: 8243 8243 169
Width: 416
VWidth: 0
Flags: HW
LayerCount: 2
Fore
SplineSet
384.089042344 733.223254156 m 0
 403.559798193 726.296158325 415.928741264 707.40235077 415.928741264 687.62176471 c 0
 415.928741264 682.378347573 415.059614548 677.072619299 413.223254156 671.910957656 c 2
 339.223254156 463.910957656 l 2
 332.296158325 444.440201807 313.40235077 432.071258736 293.62176471 432.071258736 c 0
 288.378347573 432.071258736 283.072619299 432.940385452 277.910957656 434.776745844 c 0
 258.438994141 441.704271325 246.071322308 460.598580535 246.071322308 480.378383364 c 0
 246.071322308 485.621853934 246.940446235 490.927551551 248.776745844 496.089042344 c 2
 322.776745844 704.089042344 l 2
 329.704271325 723.561005859 348.598580535 735.928677692 368.378383364 735.928677692 c 0
 373.621853934 735.928677692 378.927551551 735.059553765 384.089042344 733.223254156 c 0
224.089042344 733.223254156 m 0
 243.559798193 726.296158325 255.928741264 707.40235077 255.928741264 687.62176471 c 0
 255.928741264 682.378347573 255.059614548 677.072619299 253.223254156 671.910957656 c 2
 179.223254156 463.910957656 l 2
 172.296158325 444.440201807 153.40235077 432.071258736 133.62176471 432.071258736 c 0
 128.378347573 432.071258736 123.072619299 432.940385452 117.910957656 434.776745844 c 0
 98.4389941411 441.704271325 86.0713223077 460.598580535 86.0713223077 480.378383364 c 0
 86.0713223077 485.621853934 86.940446235 490.927551551 88.776745844 496.089042344 c 2
 162.776745844 704.089042344 l 2
 169.704271325 723.561005859 188.598580535 735.928677692 208.378383364 735.928677692 c 0
 213.621853934 735.928677692 218.927551551 735.059553765 224.089042344 733.223254156 c 0
EndSplineSet
EndChar

StartChar: uni2034
Encoding: 8244 8244 170
Width: 576
VWidth: 0
Flags: HW
LayerCount: 2
Fore
SplineSet
544.089042344 733.223254156 m 0
 563.559798193 726.296158325 575.928741264 707.40235077 575.928741264 687.62176471 c 0
 575.928741264 682.378347573 575.059614548 677.072619299 573.223254156 671.910957656 c 2
 499.223254156 463.910957656 l 2
 492.296158325 444.440201807 473.40235077 432.071258736 453.62176471 432.071258736 c 0
 448.378347573 432.071258736 443.072619299 432.940385452 437.910957656 434.776745844 c 0
 418.438994141 441.704271325 406.071322308 460.598580535 406.071322308 480.378383364 c 0
 406.071322308 485.621853934 406.940446235 490.927551551 408.776745844 496.089042344 c 2
 482.776745844 704.089042344 l 2
 489.704271325 723.561005859 508.598580535 735.928677692 528.378383364 735.928677692 c 0
 533.621853934 735.928677692 538.927551551 735.059553765 544.089042344 733.223254156 c 0
384.089042344 733.223254156 m 0
 403.559798193 726.296158325 415.928741264 707.40235077 415.928741264 687.62176471 c 0
 415.928741264 682.378347573 415.059614548 677.072619299 413.223254156 671.910957656 c 2
 339.223254156 463.910957656 l 2
 332.296158325 444.440201807 313.40235077 432.071258736 293.62176471 432.071258736 c 0
 288.378347573 432.071258736 283.072619299 432.940385452 277.910957656 434.776745844 c 0
 258.438994141 441.704271325 246.071322308 460.598580535 246.071322308 480.378383364 c 0
 246.071322308 485.621853934 246.940446235 490.927551551 248.776745844 496.089042344 c 2
 322.776745844 704.089042344 l 2
 329.704271325 723.561005859 348.598580535 735.928677692 368.378383364 735.928677692 c 0
 373.621853934 735.928677692 378.927551551 735.059553765 384.089042344 733.223254156 c 0
224.089042344 733.223254156 m 0
 243.559798193 726.296158325 255.928741264 707.40235077 255.928741264 687.62176471 c 0
 255.928741264 682.378347573 255.059614548 677.072619299 253.223254156 671.910957656 c 2
 179.223254156 463.910957656 l 2
 172.296158325 444.440201807 153.40235077 432.071258736 133.62176471 432.071258736 c 0
 128.378347573 432.071258736 123.072619299 432.940385452 117.910957656 434.776745844 c 0
 98.4389941411 441.704271325 86.0713223077 460.598580535 86.0713223077 480.378383364 c 0
 86.0713223077 485.621853934 86.940446235 490.927551551 88.776745844 496.089042344 c 2
 162.776745844 704.089042344 l 2
 169.704271325 723.561005859 188.598580535 735.928677692 208.378383364 735.928677692 c 0
 213.621853934 735.928677692 218.927551551 735.059553765 224.089042344 733.223254156 c 0
EndSplineSet
EndChar

StartChar: uni00AD
Encoding: 173 173 171
Width: 416
VWidth: 32
Flags: HW
LayerCount: 2
Fore
SplineSet
11 264 m 0
 11 290.144471708 32.8536339246 312 59 312 c 2
 315 312 l 2
 341.144471708 312 363 290.146366075 363 264 c 0
 363 237.853633925 341.144471708 216 315 216 c 2
 59 216 l 2
 32.8536339246 216 11 237.855528292 11 264 c 0
EndSplineSet
EndChar

StartChar: endash
Encoding: 8211 8211 173
Width: 512
VWidth: 0
Flags: HW
LayerCount: 2
Fore
SplineSet
-21 264 m 0
 -21 290.144471708 0.853633924644 312 27 312 c 2
 443 312 l 2
 469.144471708 312 491 290.146366075 491 264 c 0
 491 237.853633925 469.144471708 216 443 216 c 2
 27 216 l 2
 0.853633924644 216 -21 237.855528292 -21 264 c 0
EndSplineSet
EndChar

StartChar: emdash
Encoding: 8212 8212 174
Width: 1024
VWidth: 0
Flags: HW
LayerCount: 2
Fore
SplineSet
-21 264 m 0
 -21 290.144471708 0.853633924644 312 27 312 c 2
 955 312 l 2
 981.144471708 312 1003 290.146366075 1003 264 c 0
 1003 237.853633925 981.144471708 216 955 216 c 2
 27 216 l 2
 0.853633924644 216 -21 237.855528292 -21 264 c 0
EndSplineSet
EndChar

StartChar: figuredash
Encoding: 8210 8210 190
Width: 672
VWidth: 0
Flags: HW
LayerCount: 2
Fore
SplineSet
0 368 m 0
 0 394.144471708 21.8536339246 416 48 416 c 2
 624 416 l 2
 650.144471708 416 672 394.146366075 672 368 c 0
 672 341.853633925 650.144471708 320 624 320 c 2
 48 320 l 2
 21.8536339246 320 0 341.855528292 0 368 c 0
EndSplineSet
EndChar

StartChar: uni2057
Encoding: 8279 8279 191
Width: 736
VWidth: 0
Flags: HW
LayerCount: 2
Fore
SplineSet
704.089042344 733.223254156 m 0
 723.559798193 726.296158325 735.928741264 707.40235077 735.928741264 687.62176471 c 0
 735.928741264 682.378347573 735.059614548 677.072619299 733.223254156 671.910957656 c 2
 659.223254156 463.910957656 l 2
 652.296158325 444.440201807 633.40235077 432.071258736 613.62176471 432.071258736 c 0
 608.378347573 432.071258736 603.072619299 432.940385452 597.910957656 434.776745844 c 0
 578.438994141 441.704271325 566.071322308 460.598580535 566.071322308 480.378383364 c 0
 566.071322308 485.621853934 566.940446235 490.927551551 568.776745844 496.089042344 c 2
 642.776745844 704.089042344 l 2
 649.704271325 723.561005859 668.598580535 735.928677692 688.378383364 735.928677692 c 0
 693.621853934 735.928677692 698.927551551 735.059553765 704.089042344 733.223254156 c 0
544.089042344 733.223254156 m 0
 563.559798193 726.296158325 575.928741264 707.40235077 575.928741264 687.62176471 c 0
 575.928741264 682.378347573 575.059614548 677.072619299 573.223254156 671.910957656 c 2
 499.223254156 463.910957656 l 2
 492.296158325 444.440201807 473.40235077 432.071258736 453.62176471 432.071258736 c 0
 448.378347573 432.071258736 443.072619299 432.940385452 437.910957656 434.776745844 c 0
 418.438994141 441.704271325 406.071322308 460.598580535 406.071322308 480.378383364 c 0
 406.071322308 485.621853934 406.940446235 490.927551551 408.776745844 496.089042344 c 2
 482.776745844 704.089042344 l 2
 489.704271325 723.561005859 508.598580535 735.928677692 528.378383364 735.928677692 c 0
 533.621853934 735.928677692 538.927551551 735.059553765 544.089042344 733.223254156 c 0
384.089042344 733.223254156 m 0
 403.559798193 726.296158325 415.928741264 707.40235077 415.928741264 687.62176471 c 0
 415.928741264 682.378347573 415.059614548 677.072619299 413.223254156 671.910957656 c 2
 339.223254156 463.910957656 l 2
 332.296158325 444.440201807 313.40235077 432.071258736 293.62176471 432.071258736 c 0
 288.378347573 432.071258736 283.072619299 432.940385452 277.910957656 434.776745844 c 0
 258.438994141 441.704271325 246.071322308 460.598580535 246.071322308 480.378383364 c 0
 246.071322308 485.621853934 246.940446235 490.927551551 248.776745844 496.089042344 c 2
 322.776745844 704.089042344 l 2
 329.704271325 723.561005859 348.598580535 735.928677692 368.378383364 735.928677692 c 0
 373.621853934 735.928677692 378.927551551 735.059553765 384.089042344 733.223254156 c 0
224.089042344 733.223254156 m 0
 243.559798193 726.296158325 255.928741264 707.40235077 255.928741264 687.62176471 c 0
 255.928741264 682.378347573 255.059614548 677.072619299 253.223254156 671.910957656 c 2
 179.223254156 463.910957656 l 2
 172.296158325 444.440201807 153.40235077 432.071258736 133.62176471 432.071258736 c 0
 128.378347573 432.071258736 123.072619299 432.940385452 117.910957656 434.776745844 c 0
 98.4389941411 441.704271325 86.0713223077 460.598580535 86.0713223077 480.378383364 c 0
 86.0713223077 485.621853934 86.940446235 490.927551551 88.776745844 496.089042344 c 2
 162.776745844 704.089042344 l 2
 169.704271325 723.561005859 188.598580535 735.928677692 208.378383364 735.928677692 c 0
 213.621853934 735.928677692 218.927551551 735.059553765 224.089042344 733.223254156 c 0
EndSplineSet
EndChar

StartChar: copyright
Encoding: 169 169 192
Width: 736
VWidth: 0
Flags: HW
HStem: 48 640<250.702 485.298>
VStem: 48 640<250.702 485.298>
LayerCount: 2
Fore
SplineSet
735.088225459 358.688768977 m 0
 695.558145149 158.779505696 505.398534041 0 304 0 c 0
 280.594168352 0 257.910932741 2.18390622698 236.166286539 6.43652492991 c 0
 89.2705940503 35.1650387649 -6.18002992712 157.333398748 -6.18002992712 306.179036709 c 0
 -6.18002992712 329.328215956 -3.87127548724 353.122663735 0.911774541416 377.311231023 c 0
 40.4418548512 577.220494304 230.601465959 736 432 736 c 0
 455.405831648 736 478.089067259 733.816093773 499.833713461 729.56347507 c 0
 646.72940595 700.834961235 742.180029927 578.666601252 742.180029927 429.820963291 c 0
 742.180029927 406.671784044 739.871275487 382.877336265 735.088225459 358.688768977 c 0
640.911774541 377.311231023 m 0
 644.655618614 396.244385334 646.45445396 414.544241584 646.45445396 432.073962388 c 0
 646.45445396 538.089700301 580.661089507 615.937322538 481.407979757 635.348336491 c 0
 465.92572564 638.376213919 449.440322198 640 432 640 c 0
 279.398534041 640 125.558145149 512.779505696 95.0882254586 358.688768977 c 0
 91.3443813859 339.755614666 89.5455460403 321.455758416 89.5455460403 303.926037612 c 0
 89.5455460403 197.910299699 155.338910493 120.062677462 254.592020243 100.651663509 c 0
 270.07427436 97.6237860807 286.559677802 96 304 96 c 0
 456.601465959 96 610.441854851 223.220494304 640.911774541 377.311231023 c 0
456.891151391 331.346908344 m 0
 480.107176763 327.477570782 496.982966875 306.709811448 496.982966875 283.78836297 c 0
 496.982966875 281.248284339 496.775726523 278.681757685 496.346908344 276.108848609 c 0
 490.003487888 238.048325874 432.863637955 156 335 156 c 0
 326.20413611 156 317.499920752 156.815678324 309.021410192 158.446381211 c 0
 229.868907464 173.670071005 191.992703657 247.994725652 191.992703657 327.410587503 c 0
 191.992703657 343.986979568 193.642886085 360.785184269 196.912330952 377.314044427 c 0
 217.750176073 482.660928098 299.767007463 580 401 580 c 0
 507.025518701 580 525.833654311 482.888293399 526.442502286 479.336680215 c 0
 526.76805017 476.976234418 526.925955775 474.640393931 526.925955775 472.340234721 c 0
 526.925955775 448.580052216 510.076677898 428.627231444 487.110263125 424.690131769 c 0
 484.392402562 424.224212815 481.680752918 423.997691616 478.998763217 423.997691616 c 0
 456.82287522 423.997691616 436.674754577 439.484312932 431.809912837 463.178560166 c 0
 430.609509355 467.907422364 428.097361728 484 401 484 c 0
 366.232992537 484 306.249823927 435.339071902 291.087669048 358.685955573 c 0
 288.611517801 346.167635376 287.526142928 334.877481816 287.526142928 324.752210638 c 0
 287.526142928 277.739369131 310.92525829 255.839710123 327.153119837 252.718546272 c 0
 329.523882959 252.262568746 332.10836389 252 335 252 c 0
 364.446052253 252 394.683384506 282.969654862 403.053622378 297.982031355 c 0
 409.91709908 318.100395147 428.187067735 332.000809335 449.042251641 332.000809335 c 0
 451.624499508 332.000809335 454.246381065 331.787703398 456.891151391 331.346908344 c 0
EndSplineSet
EndChar

StartChar: registered
Encoding: 174 174 193
Width: 736
VWidth: 0
Flags: HW
HStem: 48 640<250.702 485.298>
VStem: 48 640<250.702 485.298>
LayerCount: 2
Fore
SplineSet
324.15058733 424 m 1
 398 424 l 2
 433.317820204 424 448.446057899 433.485962947 453.900056615 461.251774593 c 0
 455.599661409 469.904308092 454.859118294 474.155815905 454.582471958 475.217325127 c 0
 453.133045974 476.193468336 444.023799215 480 428 480 c 2
 335.35058733 480 l 1
 324.15058733 424 l 1
304.95058733 328 m 1
 279.067872433 198.586425513 l 2
 274.553090091 176.012513804 254.077145511 160.024544865 231.748022746 160.024544865 c 0
 228.716546506 160.024544865 225.650913072 160.319230055 222.586425513 160.932127567 c 0
 200.014053221 165.446602025 184.024511692 185.921510629 184.024511692 208.25173209 c 0
 184.024511692 211.283249497 184.319204871 214.348961007 184.932127567 217.413574487 c 2
 220.26955088 394.100691051 l 1
 248.932127567 537.413574487 l 2
 253.665182392 561.078848612 276.774845704 576 296 576 c 2
 428 576 l 2
 439.715779314 576 451.444234496 575.094790074 463.156065119 572.807931026 c 0
 487.22885094 568.107464476 513.917442958 556.79025093 532.094128495 532.014870189 c 0
 545.29960771 514.015396371 550.892835596 492.573435894 550.892835596 470.534199501 c 0
 550.892835596 461.307301455 549.912486232 451.975716263 548.099943385 442.748225407 c 0
 537.455206134 388.556835766 503.497861326 356.599620729 464.471633934 340.697439328 c 1
 492.756665612 218.854225946 l 2
 493.575322991 215.327701848 493.967210246 211.786594681 493.967210246 208.286859112 c 0
 493.967210246 186.510963586 478.795214046 166.336778054 456.854225946 161.243334388 c 0
 453.327839529 160.42470897 449.786806521 160.03283039 446.287098484 160.03283039 c 0
 424.51221877 160.03283039 404.337119759 175.203313994 399.243334388 197.145774054 c 2
 368.866460508 328 l 1
 304.95058733 328 l 1
735.088225459 358.688768977 m 0
 695.558145149 158.779505696 505.398534041 0 304 0 c 0
 280.594168352 0 257.910932741 2.18390622698 236.166286539 6.43652492991 c 0
 89.2705940503 35.1650387649 -6.18002992712 157.333398748 -6.18002992712 306.179036709 c 0
 -6.18002992712 329.328215956 -3.87127548724 353.122663735 0.911774541416 377.311231023 c 0
 40.4418548512 577.220494304 230.601465959 736 432 736 c 0
 455.405831648 736 478.089067259 733.816093773 499.833713461 729.56347507 c 0
 646.72940595 700.834961235 742.180029927 578.666601252 742.180029927 429.820963291 c 0
 742.180029927 406.671784044 739.871275487 382.877336265 735.088225459 358.688768977 c 0
640.911774541 377.311231023 m 0
 644.655618614 396.244385334 646.45445396 414.544241584 646.45445396 432.073962388 c 0
 646.45445396 538.089700301 580.661089507 615.937322538 481.407979757 635.348336491 c 0
 465.92572564 638.376213919 449.440322198 640 432 640 c 0
 279.398534041 640 125.558145149 512.779505696 95.0882254586 358.688768977 c 0
 91.3443813859 339.755614666 89.5455460403 321.455758416 89.5455460403 303.926037612 c 0
 89.5455460403 197.910299699 155.338910493 120.062677462 254.592020243 100.651663509 c 0
 270.07427436 97.6237860807 286.559677802 96 304 96 c 0
 456.601465959 96 610.441854851 223.220494304 640.911774541 377.311231023 c 0
EndSplineSet
EndChar

StartChar: brokenbar
Encoding: 166 166 194
Width: 288
VWidth: 0
Flags: HW
LayerCount: 2
Fore
SplineSet
134.443343548 319.061908829 m 0
 157.002887095 314.535158315 172.975328845 294.066232963 172.975328845 271.747511101 c 0
 172.975328845 268.706353603 172.678770262 265.630851136 172.061908829 262.556656452 c 2
 111.061908829 -41.4433435479 l 2
 106.535158315 -64.0028870946 86.0662329629 -79.9753288451 63.7475111008 -79.9753288451 c 0
 60.7063536034 -79.9753288451 57.6308511362 -79.6787702624 54.5566564521 -79.0619088291 c 0
 31.9955748538 -74.5348496926 16.0247044828 -54.0648909279 16.0247044828 -31.7472659584 c 0
 16.0247044828 -28.7061493903 16.3212550565 -25.6307249567 16.9380911709 -22.5566564521 c 2
 77.9380911709 281.443343548 l 2
 82.4651503074 304.004425146 102.935109072 319.975295517 125.252734042 319.975295517 c 0
 128.29385061 319.975295517 131.369275043 319.678744943 134.443343548 319.061908829 c 0
233.443343548 815.061908829 m 0
 256.002887095 810.535158315 271.975328845 790.066232963 271.975328845 767.747511101 c 0
 271.975328845 764.706353603 271.678770262 761.630851136 271.061908829 758.556656452 c 2
 210.061908829 454.556656452 l 2
 205.535158315 431.997112905 185.066232963 416.024671155 162.747511101 416.024671155 c 0
 159.706353603 416.024671155 156.630851136 416.321229738 153.556656452 416.938091171 c 0
 130.995574854 421.465150307 115.024704483 441.935109072 115.024704483 464.252734042 c 0
 115.024704483 467.29385061 115.321255057 470.369275043 115.938091171 473.443343548 c 2
 176.938091171 777.443343548 l 2
 181.465150307 800.004425146 201.935109072 815.975295517 224.252734042 815.975295517 c 0
 227.29385061 815.975295517 230.369275043 815.678744943 233.443343548 815.061908829 c 0
EndSplineSet
EndChar

StartChar: plusminus
Encoding: 177 177 195
Width: 640
VWidth: 0
Flags: HW
LayerCount: 2
Fore
SplineSet
522 56 m 0
 522 29.8555282921 500.146366075 8 474 8 c 2
 42 8 l 2
 15.8555282921 8 -6 29.8536339246 -6 56 c 0
 -6 82.1463660754 15.8555282921 104 42 104 c 2
 474 104 l 2
 500.146366075 104 522 82.1444717079 522 56 c 0
603 464 m 0
 603 437.855528292 581.146366075 416 555 416 c 2
 378.386334906 416 l 1
 343.076236293 238.628341849 l 2
 338.579069325 216.037921732 318.095752609 200.024288007 295.749335531 200.024288007 c 0
 292.731389609 200.024288007 289.679462123 200.316364764 286.628341849 200.923763707 c 0
 264.036380394 205.421237515 248.024320962 225.905593821 248.024320962 248.250909656 c 0
 248.024320962 251.26881408 248.316389759 254.320663433 248.923763707 257.371658151 c 2
 280.502553983 416 l 1
 123 416 l 2
 96.8555282921 416 75 437.853633925 75 464 c 0
 75 490.146366075 96.8555282921 512 123 512 c 2
 299.613665094 512 l 1
 334.923763707 689.371658151 l 2
 339.421237515 711.963619606 359.905593821 727.975679038 382.250909656 727.975679038 c 0
 385.26881408 727.975679038 388.320663433 727.683610241 391.371658151 727.076236293 c 0
 413.962078268 722.579069325 429.975711993 702.095752609 429.975711993 679.749335531 c 0
 429.975711993 676.731389609 429.683635236 673.679462123 429.076236293 670.628341849 c 2
 397.497446017 512 l 1
 555 512 l 2
 581.146366075 512 603 490.144471708 603 464 c 0
EndSplineSet
EndChar

StartChar: divide
Encoding: 247 247 196
Width: 640
VWidth: 0
Flags: HW
HStem: 128 48<297.906 342.094> 560 48<297.906 342.094>
VStem: 296 48<129.906 174.094 561.906 606.094>
LayerCount: 2
Fore
SplineSet
203.778451619 152.850961283 m 0
 213.013296808 194.1121545 249.099166212 224 290 224 c 0
 322.864964464 224 351.16136532 197.180099895 351.16136532 162.257030158 c 0
 351.16136532 158.634586962 350.85691983 154.924960471 350.221548381 151.149038717 c 0
 340.986703192 109.8878455 304.900833788 80 264 80 c 0
 231.135035536 80 202.83863468 106.819900105 202.83863468 141.742969842 c 0
 202.83863468 145.365413038 203.14308017 149.075039529 203.778451619 152.850961283 c 0
289.778451619 584.850961283 m 0
 299.013296808 626.1121545 335.099166212 656 376 656 c 0
 408.864964464 656 437.16136532 629.180099895 437.16136532 594.257030158 c 0
 437.16136532 590.634586962 436.85691983 586.924960471 436.221548381 583.149038717 c 0
 426.986703192 541.8878455 390.900833788 512 350 512 c 0
 317.135035536 512 288.83863468 538.819900105 288.83863468 573.742969842 c 0
 288.83863468 577.365413038 289.14308017 581.075039529 289.778451619 584.850961283 c 0
56 368 m 0
 56 394.144471708 77.8536339246 416 104 416 c 2
 536 416 l 2
 562.144471708 416 584 394.146366075 584 368 c 0
 584 341.853633925 562.144471708 320 536 320 c 2
 104 320 l 2
 77.8536339246 320 56 341.855528292 56 368 c 0
EndSplineSet
EndChar

StartChar: uni2070
Encoding: 8304 8304 197
Width: 528
VWidth: 516
Flags: HW
HStem: 522 492<200.047 327.953>
VStem: 78 372<666.762 869.238>
LayerCount: 2
Fore
SplineSet
577.081140153 758.65300894 m 0
 547.305305546 608.671027214 431.41780053 474 295 474 c 0
 282.917379321 474 271.043408613 475.141160903 259.531131825 477.404658011 c 0
 156.563116944 497.649810915 103.841620293 595.862877731 103.841620293 706.335460914 c 0
 103.841620293 729.665504783 106.192929925 753.542307009 110.918859847 777.34699106 c 0
 140.642174336 927.064427007 255.414256986 1062 392 1062 c 0
 404.082671949 1062 415.959006182 1060.85885658 427.475763086 1058.59829151 c 0
 530.573391733 1038.36178745 584.095595765 939.964517916 584.095595765 829.055611376 c 0
 584.095595765 805.933586238 581.769364544 782.267768835 577.081140153 758.65300894 c 0
482.918859847 777.34699106 m 0
 486.791014331 796.851176608 488.549249649 814.971112859 488.549249649 831.644460393 c 0
 488.549249649 909.992470014 449.726407116 956.398972516 408.985248699 964.395845271 c 0
 403.69494426 965.434251961 398.062405771 966 392 966 c 0
 322.585743014 966 229.357825664 880.935572993 205.081140153 758.65300894 c 0
 201.157439724 738.889184554 199.377535798 720.558108516 199.377535798 703.719083706 c 0
 199.377535798 625.544520214 237.738862367 579.527346582 278.051674376 571.601205206 c 0
 283.31815814 570.565730557 288.937542959 570 295 570 c 0
 364.58219947 570 458.694694454 655.328972786 482.918859847 777.34699106 c 0
EndSplineSet
EndChar

StartChar: uni2074
Encoding: 8308 8308 198
Width: 528
VWidth: 516
Flags: HW
LayerCount: 2
Fore
SplineSet
397.818926029 742 m 1
 433.426647763 921.912699291 l 1
 241.293463237 742 l 1
 397.818926029 742 l 1
569 694 m 0
 569 667.855528292 547.146366075 646 521 646 c 2
 476.681073971 646 l 1
 451.086642761 516.68076862 l 2
 446.6111596 494.067801069 426.117353802 478.024009629 403.75067411 478.024009629 c 0
 400.749699029 478.024009629 397.715008396 478.312830617 394.68076862 478.913357239 c 0
 372.066257334 483.389145931 356.02404231 503.883995841 356.02404231 526.249571094 c 0
 356.02404231 529.250504268 356.312855376 532.285116701 356.913357239 535.31923138 c 2
 378.818926029 646 l 1
 161 646 l 2
 132.488647958 646 113.120233578 671.274269166 113.120233578 695.136458576 c 0
 113.120233578 697.796670097 113.360950062 700.439331865 113.856550789 703.027468998 c 2
 122.856550789 750.027468998 l 2
 124.773465025 760.038021116 130.865297032 770.113326754 137.191422916 776.037084207 c 2
 420.191422916 1041.03708421 l 2
 429.280782265 1049.54832176 443.414930715 1054 453 1054 c 2
 499 1054 l 2
 527.283581012 1054 546.88727141 1029.09398728 546.88727141 1004.96641829 c 0
 546.88727141 1002.18098711 546.625997787 999.405930855 546.086642761 996.68076862 c 2
 495.681073971 742 l 1
 521 742 l 2
 547.146366075 742 569 720.144471708 569 694 c 0
EndSplineSet
EndChar

